<svg width="24" height="24" viewBox="0 0 24 24" fill="none" xmlns="http://www.w3.org/2000/svg">
<path d="M11.5708 12.2297H10.8908C10.8908 13.163 10.8908 14.0564 10.8908 14.9097C10.9041 15.7497 10.9174 16.583 10.9308 17.4097H11.5708C12.5041 17.4097 13.2241 17.1964 13.7308 16.7697C14.2508 16.343 14.5108 15.703 14.5108 14.8497C14.5108 13.943 14.2641 13.283 13.7708 12.8697C13.2908 12.443 12.5574 12.2297 11.5708 12.2297ZM11.6308 6.58969H10.9308C10.9174 7.33635 10.9041 8.09635 10.8908 8.86969C10.8908 9.62969 10.8908 10.3964 10.8908 11.1697H11.4508C12.3041 11.1697 12.9308 10.9697 13.3308 10.5697C13.7308 10.1564 13.9308 9.55635 13.9308 8.76969C13.9308 7.31635 13.1641 6.58969 11.6308 6.58969ZM6.05078 6.50969V5.42969H12.5108C13.6441 5.42969 14.5508 5.56969 15.2308 5.84969C15.9108 6.11635 16.4041 6.48302 16.7108 6.94969C17.0174 7.41635 17.1708 7.94302 17.1708 8.52969C17.1708 8.98302 17.0708 9.40969 16.8708 9.80969C16.6708 10.1964 16.3241 10.543 15.8308 10.8497C15.3374 11.143 14.6508 11.3697 13.7708 11.5297C15.2641 11.703 16.3308 12.083 16.9708 12.6697C17.6241 13.243 17.9508 13.983 17.9508 14.8897C17.9508 15.303 17.8574 15.7297 17.6708 16.1697C17.4841 16.5964 17.1641 16.9897 16.7108 17.3497C16.2574 17.7097 15.6241 18.003 14.8108 18.2297C14.0108 18.4564 12.9908 18.5697 11.7508 18.5697H6.05078V17.4897L7.55078 17.3297C7.57745 16.503 7.59078 15.6697 7.59078 14.8297C7.59078 13.9897 7.59078 13.143 7.59078 12.2897V11.7097C7.59078 10.883 7.59078 10.0497 7.59078 9.20969C7.59078 8.35635 7.57745 7.50969 7.55078 6.66969L6.05078 6.50969Z" fill="black"/>
</svg>
