<svg width="165" height="225" viewBox="0 0 165 225" fill="none" xmlns="http://www.w3.org/2000/svg">
<g clip-path="url(#clip0_821_941)">
<path d="M82.5 154.688C122.368 154.688 154.688 122.368 154.688 82.5C154.688 42.6319 122.368 10.3125 82.5 10.3125C42.6319 10.3125 10.3125 42.6319 10.3125 82.5C10.3125 122.368 42.6319 154.688 82.5 154.688Z" fill="#0074BA"/>
<path d="M20.4239 119.368L23.4609 115.964C24.9047 114.366 25.7297 112.252 25.7297 110.086V101.011C25.7297 99.3097 27.0703 97.9691 28.7719 97.9691C29.9578 97.9691 30.8859 97.041 30.8859 95.855V92.8129C30.8859 89.9769 28.5656 87.6566 25.7297 87.6566C22.8937 87.6566 20.5734 85.3363 20.5734 82.5004V79.8707C20.5734 78.4785 21.7078 77.3441 23.1 77.3441C24.5437 77.3441 25.7812 78.53 25.6781 79.9738C25.6781 81.366 26.8125 82.5004 28.2047 82.5004H31.2984C33.9281 82.5004 36.0422 80.3863 36.0422 77.7566V74.766C36.0422 73.3222 37.1766 72.1879 38.6203 72.1879C40.0641 72.1879 41.1984 73.3222 41.1984 74.766V79.6644C41.1984 81.2629 42.4875 82.5004 44.0344 82.5004C45.3234 82.5004 46.3547 83.5316 46.3547 84.8207V89.616C46.3536 90.3398 46.597 91.0428 47.0455 91.611C47.4939 92.1791 48.1211 92.5792 48.8254 92.7463C49.5296 92.9135 50.2697 92.8378 50.9256 92.5317C51.5815 92.2256 52.1148 91.7069 52.4391 91.0597L60.7922 74.3019C61.1209 73.6683 61.6164 73.1365 62.2252 72.764C62.8341 72.3914 63.5331 72.1922 64.2469 72.1879C65.8969 72.1879 67.3406 73.2707 67.9078 74.8175L71.5172 85.5941C71.7419 86.2655 72.1975 86.8354 72.803 87.2024C73.4084 87.5694 74.1245 87.7097 74.8236 87.5984C75.5228 87.487 76.1598 87.1311 76.6213 86.5942C77.0828 86.0572 77.3388 85.374 77.3438 84.666V74.766C77.3438 73.3222 78.4781 72.1879 79.9219 72.1879C81.3656 72.1879 82.5 71.0535 82.5 69.6097V62.1847C82.5 59.1941 84.9234 56.7191 87.9656 56.7191C90.6469 56.7191 92.8125 54.5535 92.7609 51.8722V51.2535C92.7609 48.5722 90.5953 46.4066 87.9141 46.4066H85.0266C83.5828 46.4066 82.4484 45.2722 82.4484 43.8285C82.4484 42.3847 83.5828 41.2504 85.0266 41.2504H93.4313C95.9063 41.2504 97.9172 43.2613 97.9172 45.7363V48.9847C97.9172 50.4285 99.0516 51.5629 100.495 51.5629C101.939 51.5629 103.073 50.4285 103.073 48.9847V45.9941C103.073 40.5285 107.508 36.0941 112.973 36.0941H121.12C122.564 36.0941 123.698 34.9597 123.698 33.516C123.698 32.0722 122.564 30.9379 121.12 30.9379H106.167C104.466 30.9379 103.073 29.5457 103.073 27.8441C103.073 26.7097 102.145 25.7816 101.011 25.7816H77.6531C74.0953 25.7816 70.5891 24.6988 67.65 22.6879L56.4609 15.1494C29.4628 25.596 10.3125 51.8104 10.3125 82.5004C10.3125 95.9685 13.9992 108.576 20.4239 119.368ZM92.8125 96.1128V91.3175C92.8125 89.3066 94.4109 87.6566 96.4734 87.5535C97.4531 87.5535 98.3812 87.966 99.0516 88.6363L107.25 96.8347C107.972 97.505 108.333 98.4332 108.333 99.4129C108.333 101.424 106.683 103.074 104.672 103.074H103.95C103.434 103.074 102.919 102.971 102.455 102.764L94.9781 99.4129C94.3317 99.138 93.7811 98.678 93.3957 98.0907C93.0103 97.5034 92.8074 96.8153 92.8125 96.1128ZM79.7672 92.8129H74.8688C73.3734 92.8129 72.1359 94.0504 72.1359 95.5457V100.444C72.1359 101.939 73.3734 103.177 74.8688 103.177H79.7672C81.2625 103.177 82.5 101.939 82.5 100.444V95.5457C82.5 94.0504 81.2625 92.8129 79.7672 92.8129ZM61.875 100.547C61.875 101.991 63.0094 103.125 64.4531 103.125C65.8453 103.125 67.0312 101.991 67.0312 100.547V95.391C67.0312 93.9472 65.8969 92.8129 64.4531 92.8129C63.0094 92.8129 61.875 93.9472 61.875 95.391V100.547ZM96.8859 57.8019L88.6875 66.0004C88.0172 66.6707 87.6047 67.5988 87.6047 68.5785C87.6047 70.5894 89.2547 72.2394 91.2656 72.2394C92.2453 72.2394 93.1734 71.8785 93.8438 71.1566L102.042 62.9582C102.713 62.2879 103.125 61.3597 103.125 60.38C103.125 58.3691 101.475 56.7191 99.4641 56.7191C98.4844 56.7191 97.5563 57.08 96.8859 57.8019ZM114.469 133.032L122.667 124.833C123.338 124.111 124.266 123.75 125.245 123.75C127.256 123.75 128.906 125.4 128.906 127.411C128.906 128.391 128.494 129.319 127.823 129.989L119.625 138.188C118.955 138.91 118.027 139.271 117.047 139.271C115.036 139.271 113.386 137.621 113.386 135.61C113.386 134.63 113.798 133.702 114.469 133.032ZM77.3438 117.253V123.596C77.3438 126.535 79.7156 128.907 82.6547 128.907H90.5437C91.9359 128.907 93.2766 129.474 94.2563 130.453L96.3703 132.568C97.35 133.547 98.6906 134.114 100.083 134.114H104.93C106.941 134.114 108.797 132.98 109.673 131.175L112.819 124.936C113.18 124.214 113.386 123.389 113.386 122.564V116.789C113.386 114.778 112.252 112.922 110.447 112.046L104.208 108.9C103.486 108.539 102.661 108.333 101.836 108.333H93.6375C93.0703 108.333 92.5031 108.436 91.9359 108.591L80.9016 112.252C78.7875 112.974 77.3438 114.985 77.3438 117.253Z" fill="#00D26A"/>
<path d="M134.161 124.594H122.004C119.536 124.594 117.504 126.594 117.536 129.063V141.219C117.536 143.688 119.536 145.688 122.004 145.688H122.779C123.306 146.627 124.074 147.409 125.003 147.953C125.932 148.497 126.99 148.784 128.067 148.784C129.144 148.784 130.201 148.497 131.131 147.953C132.06 147.409 132.827 146.627 133.354 145.688H134.161C136.629 145.688 138.629 143.688 138.629 141.219V129.063C138.629 126.594 136.629 124.594 134.161 124.594Z" fill="#9B9B9B"/>
<path d="M135.753 127.281C136.503 127.281 137.097 126.719 137.16 126C137.378 123.313 138.535 116.781 144.847 109.781C147.86 107.41 150.334 104.426 152.107 101.027C153.879 97.6273 154.909 93.89 155.128 90.0625C155.191 89.3125 155.222 88.8125 155.222 88.5V88.1875C155.035 73.25 142.941 61.25 128.035 61.25C120.881 61.2496 114.016 64.0721 108.931 69.1042C103.846 74.1363 100.953 80.9716 100.878 88.125C100.878 88.125 100.847 88.875 100.972 90.125C101.472 98.0625 105.347 105.094 111.253 109.75C117.566 116.781 118.816 123.313 119.035 126C119.097 126.719 119.691 127.281 120.441 127.281H135.753Z" fill="#FCD53F"/>
<path d="M128.066 88.4375C133.128 88.4375 137.253 92.5313 137.316 97.5938V97.8438C137.316 97.9375 137.316 98.0625 137.285 98.25C137.128 100.875 135.847 103.344 133.785 104.969L133.566 105.125L133.378 105.312C129.941 109.125 129.222 118.812 129.097 124.125H127.066C126.91 118.812 126.16 109.125 122.722 105.312L122.535 105.125L122.316 104.969C121.284 104.152 120.438 103.125 119.834 101.956C119.23 100.786 118.883 99.5017 118.816 98.1875C118.816 98.0625 118.785 97.9687 118.785 97.9062V97.625C118.878 92.5625 123.035 88.4375 128.066 88.4375ZM128.066 85.3125C125.494 85.3134 122.987 86.1154 120.892 87.607C118.798 89.0986 117.219 91.2058 116.377 93.6355C115.535 96.0653 115.471 98.697 116.194 101.165C116.917 103.633 118.39 105.814 120.41 107.406C124.16 111.594 123.972 127.281 123.972 127.281H132.222C132.222 127.281 131.972 111.594 135.753 107.438C138.441 105.313 140.222 102.094 140.441 98.4375C140.472 98.0937 140.472 97.875 140.472 97.7188V97.5938C140.439 94.3251 139.118 91.2016 136.794 88.9019C134.471 86.6022 131.335 85.3123 128.066 85.3125Z" fill="#FFB02E"/>
<path d="M138.899 133.291C139.101 133.256 139.295 133.181 139.468 133.071C139.642 132.961 139.792 132.818 139.91 132.65C140.028 132.482 140.112 132.292 140.156 132.092C140.201 131.891 140.206 131.684 140.171 131.482C140.136 131.279 140.061 131.086 139.951 130.913C139.841 130.739 139.698 130.589 139.53 130.471C139.362 130.353 139.172 130.269 138.972 130.224C138.771 130.179 138.564 130.174 138.362 130.21L117.299 133.897C117.097 133.933 116.903 134.007 116.73 134.117C116.557 134.227 116.406 134.371 116.288 134.539C116.17 134.707 116.086 134.896 116.042 135.097C115.997 135.297 115.992 135.504 116.027 135.707C116.062 135.909 116.137 136.102 116.247 136.276C116.357 136.449 116.5 136.599 116.668 136.717C116.836 136.835 117.026 136.919 117.227 136.964C117.427 137.009 117.634 137.014 117.837 136.979L138.899 133.291ZM138.743 140.01C139.146 139.934 139.504 139.702 139.737 139.364C139.971 139.026 140.063 138.61 139.992 138.206C139.921 137.801 139.694 137.441 139.36 137.202C139.026 136.964 138.611 136.867 138.205 136.932L117.424 140.588C117.215 140.616 117.014 140.685 116.832 140.793C116.651 140.9 116.493 141.043 116.369 141.213C116.244 141.383 116.155 141.576 116.107 141.782C116.059 141.987 116.053 142.2 116.09 142.407C116.126 142.615 116.205 142.813 116.32 142.99C116.435 143.166 116.584 143.318 116.759 143.435C116.935 143.553 117.132 143.633 117.339 143.672C117.546 143.711 117.759 143.708 117.965 143.663L138.743 140.01Z" fill="#D3D3D3"/>
<path d="M122.098 71.9996C118.63 77.9996 120.38 85.4996 126.005 88.7183C131.63 91.9371 138.973 89.7183 142.442 83.7183C145.911 77.7183 144.161 70.2183 138.536 66.9996C132.911 63.7808 125.567 65.9996 122.098 71.9996Z" fill="#FFF478"/>
</g>
<path d="M50.548 207V187.4H57.282C59.158 187.4 60.6747 187.82 61.832 188.66C62.9893 189.491 63.568 190.718 63.568 192.342C63.568 192.967 63.4187 193.56 63.12 194.12C62.8307 194.671 62.4527 195.156 61.986 195.576C61.5193 195.996 61.034 196.304 60.53 196.5C61.594 196.827 62.4807 197.424 63.19 198.292C63.9087 199.16 64.268 200.229 64.268 201.498C64.268 202.571 63.9973 203.523 63.456 204.354C62.9147 205.175 62.1447 205.824 61.146 206.3C60.1473 206.767 58.962 207 57.59 207H50.548ZM53.684 204.536H57.058C58.402 204.536 59.4007 204.275 60.054 203.752C60.7073 203.22 61.034 202.422 61.034 201.358C61.034 200.303 60.7027 199.501 60.04 198.95C59.3867 198.399 58.374 198.124 57.002 198.124H53.684V204.536ZM53.684 195.772H56.792C57.548 195.772 58.2013 195.651 58.752 195.408C59.3027 195.165 59.732 194.815 60.04 194.358C60.348 193.901 60.502 193.35 60.502 192.706C60.502 191.791 60.1753 191.091 59.522 190.606C58.878 190.111 57.954 189.864 56.75 189.864H53.684V195.772ZM74.2441 207.42C72.7881 207.42 71.4908 207.103 70.3521 206.468C69.2134 205.824 68.3174 204.951 67.6641 203.85C67.0201 202.739 66.6981 201.479 66.6981 200.07C66.6981 199.006 66.8894 198.031 67.2721 197.144C67.6548 196.248 68.1961 195.469 68.8961 194.806C69.5961 194.143 70.4174 193.63 71.3601 193.266C72.3121 192.902 73.3434 192.72 74.4541 192.72C75.3874 192.72 76.2508 192.846 77.0441 193.098C77.8468 193.341 78.5841 193.719 79.2561 194.232L77.7721 196.584C77.3428 196.201 76.8481 195.917 76.2881 195.73C75.7374 195.543 75.1494 195.45 74.5241 195.45C73.5534 195.45 72.7181 195.632 72.0181 195.996C71.3181 196.36 70.7721 196.887 70.3801 197.578C69.9974 198.259 69.8061 199.085 69.8061 200.056C69.8061 201.503 70.2261 202.637 71.0661 203.458C71.9154 204.279 73.0681 204.69 74.5241 204.69C75.2148 204.69 75.8681 204.564 76.4841 204.312C77.1001 204.051 77.6134 203.71 78.0241 203.29L79.4941 205.628C78.7568 206.188 77.9354 206.627 77.0301 206.944C76.1248 207.261 75.1961 207.42 74.2441 207.42ZM88.3802 207.42C86.8868 207.42 85.5755 207.117 84.4462 206.51C83.3168 205.894 82.4348 205.035 81.8002 203.934C81.1748 202.833 80.8622 201.554 80.8622 200.098C80.8622 199.034 81.0442 198.054 81.4082 197.158C81.7722 196.253 82.2855 195.469 82.9482 194.806C83.6108 194.143 84.3855 193.63 85.2722 193.266C86.1682 192.902 87.1435 192.72 88.1982 192.72C89.3462 192.72 90.3682 192.925 91.2642 193.336C92.1602 193.737 92.9022 194.302 93.4902 195.03C94.0875 195.758 94.5075 196.612 94.7502 197.592C95.0022 198.563 95.0442 199.617 94.8762 200.756H83.8162C83.7975 201.587 83.9795 202.315 84.3622 202.94C84.7448 203.556 85.2908 204.037 86.0002 204.382C86.7188 204.727 87.5635 204.9 88.5342 204.9C89.3182 204.9 90.0742 204.783 90.8022 204.55C91.5395 204.307 92.2068 203.953 92.8042 203.486L93.9942 205.698C93.5462 206.062 93.0048 206.375 92.3702 206.636C91.7355 206.888 91.0728 207.079 90.3822 207.21C89.6915 207.35 89.0242 207.42 88.3802 207.42ZM83.9982 198.488H91.8522C91.8242 197.443 91.4882 196.621 90.8442 196.024C90.2095 195.427 89.3042 195.128 88.1282 195.128C86.9895 195.128 86.0422 195.427 85.2862 196.024C84.5395 196.621 84.1102 197.443 83.9982 198.488ZM98.0756 207V193.14H100.75H100.834L107.05 202.128L105.72 202.156L111.628 193.14H114.358V207H111.558L111.6 196.752L112.174 197.004L107.218 204.242H105.23L100.05 196.99L100.624 196.738L100.666 207H98.0756Z" fill="#35237A"/>
<defs>
<clipPath id="clip0_821_941">
<rect width="165" height="165" fill="white"/>
</clipPath>
</defs>
</svg>
