<svg width="101" height="45" viewBox="0 0 101 45" fill="none" xmlns="http://www.w3.org/2000/svg">
<path fill-rule="evenodd" clip-rule="evenodd" d="M22.5 45C34.9264 45 45 34.9264 45 22.5C45 10.0736 34.9264 0 22.5 0C10.0736 0 0 10.0736 0 22.5C0 34.9264 10.0736 45 22.5 45ZM13.0937 34.505C13.2034 35.2182 13.6149 35.7667 14.328 36.1507C14.9863 36.5896 15.6446 36.6444 16.3029 36.3153C16.9611 35.9862 17.5097 35.3827 17.9486 34.505L22.3061 26.2407L26.5886 34.505C27.0274 35.3279 27.576 35.9039 28.2343 36.233C28.9474 36.5622 29.6606 36.5073 30.3737 36.0684C31.032 35.6844 31.3886 35.1633 31.4434 34.505C31.5531 33.7919 31.3337 33.0239 30.7851 32.201L25.9757 24.5338L34.9817 24.8776C35.9691 24.8776 36.7371 24.6856 37.2857 24.3016C37.8891 23.8627 38.1909 23.2319 38.1909 22.409C38.1909 21.641 37.8891 21.065 37.2857 20.681C36.7371 20.2422 35.9691 20.0502 34.9817 20.105L25.9229 20.4508L30.7851 12.6993C31.3337 11.8764 31.5531 11.1084 31.4434 10.3953C31.3886 9.68215 31.032 9.10616 30.3737 8.6673C29.7154 8.2833 29.0297 8.25587 28.3166 8.58501C27.6583 8.91415 27.0823 9.51758 26.5886 10.3953L22.3097 18.6527L18.0309 10.3953C17.592 9.51758 17.016 8.91415 16.3029 8.58501C15.6446 8.25587 14.9863 8.2833 14.328 8.6673C13.6697 9.0513 13.2857 9.59987 13.176 10.313C13.0663 11.0262 13.2857 11.7942 13.8343 12.617L18.7041 20.4511L9.63771 20.105C8.65029 20.0502 7.85486 20.2422 7.25143 20.681C6.70286 21.065 6.42857 21.641 6.42857 22.409C6.42857 23.2319 6.70286 23.8627 7.25143 24.3016C7.85486 24.6856 8.65029 24.8776 9.63771 24.8776L18.6308 24.5343L13.752 32.201C13.2583 33.0239 13.0389 33.7919 13.0937 34.505Z" fill="#7A66C9"/>
<path fill-rule="evenodd" clip-rule="evenodd" d="M70.268 32.9267C72.7935 32.9267 74.8407 30.8794 74.8407 28.354C74.8407 25.8285 72.7935 23.7812 70.268 23.7812C67.7426 23.7812 65.6953 25.8285 65.6953 28.354C65.6953 30.8794 67.7426 32.9267 70.268 32.9267ZM68.3572 30.7937C68.3795 30.9387 68.4631 31.0502 68.608 31.1282C68.7418 31.2174 68.8756 31.2285 69.0094 31.1617C69.1432 31.0948 69.2547 30.9721 69.3439 30.7937L70.2295 29.1142L71.0998 30.7937C71.189 30.961 71.3005 31.078 71.4342 31.1449C71.5792 31.2118 71.7241 31.2007 71.869 31.1115C72.0028 31.0334 72.0753 30.9275 72.0864 30.7937C72.1087 30.6488 72.0641 30.4927 71.9527 30.3255L70.9752 28.7673L72.8055 28.8372C73.0062 28.8372 73.1623 28.7981 73.2738 28.7201C73.3964 28.6309 73.4577 28.5027 73.4577 28.3355C73.4577 28.1794 73.3964 28.0623 73.2738 27.9843C73.1623 27.8951 73.0062 27.8561 72.8055 27.8672L70.9645 27.9375L71.9527 26.3621C72.0641 26.1949 72.1087 26.0388 72.0864 25.8939C72.0753 25.749 72.0028 25.6319 71.869 25.5427C71.7353 25.4647 71.5959 25.4591 71.451 25.526C71.3172 25.5929 71.2001 25.7155 71.0998 25.8939L70.2302 27.5721L69.3606 25.8939C69.2714 25.7155 69.1543 25.5929 69.0094 25.526C68.8756 25.4591 68.7418 25.4647 68.608 25.5427C68.4743 25.6208 68.3962 25.7322 68.3739 25.8772C68.3516 26.0221 68.3962 26.1782 68.5077 26.3454L69.4974 27.9375L67.6548 27.8672C67.4542 27.8561 67.2925 27.8951 67.1699 27.9843C67.0584 28.0623 67.0026 28.1794 67.0026 28.3355C67.0026 28.5027 67.0584 28.6309 67.1699 28.7201C67.2925 28.7981 67.4542 28.8372 67.6548 28.8372L69.4825 28.7674L68.491 30.3255C68.3906 30.4927 68.346 30.6488 68.3572 30.7937Z" fill="#AFA7D1"/>
<path d="M58.0496 33.0441C57.6664 33.0441 57.3703 32.9396 57.1612 32.7306C56.9522 32.5128 56.8477 32.2123 56.8477 31.8291V24.9309C56.8477 24.5389 56.9522 24.2384 57.1612 24.0294C57.379 23.8203 57.6795 23.7158 58.0627 23.7158H61.2766C62.3218 23.7158 63.1275 23.9728 63.6936 24.4866C64.2685 24.9918 64.5559 25.6973 64.5559 26.6032C64.5559 27.1867 64.4253 27.6963 64.164 28.1317C63.9114 28.5585 63.5412 28.8895 63.0535 29.1247C62.5744 29.3511 61.9822 29.4644 61.2766 29.4644L61.3812 29.2292H62.0083C62.3828 29.2292 62.7138 29.3207 63.0012 29.5036C63.2886 29.6778 63.5282 29.9478 63.7198 30.3136L64.373 31.4894C64.5124 31.742 64.5777 31.9902 64.569 32.2341C64.5603 32.4693 64.4645 32.6653 64.2816 32.822C64.1074 32.9701 63.8504 33.0441 63.5107 33.0441C63.1711 33.0441 62.8923 32.9745 62.6746 32.8351C62.4656 32.6957 62.2783 32.478 62.1128 32.1819L60.9239 30C60.8194 29.8084 60.6844 29.6778 60.5189 29.6081C60.3621 29.5297 60.1792 29.4905 59.9702 29.4905H59.2516V31.8291C59.2516 32.2123 59.1514 32.5128 58.9511 32.7306C58.7508 32.9396 58.4503 33.0441 58.0496 33.0441ZM59.2516 27.7921H60.8455C61.3071 27.7921 61.6599 27.7006 61.9038 27.5177C62.1476 27.3348 62.2696 27.0517 62.2696 26.6685C62.2696 26.3027 62.1476 26.0283 61.9038 25.8454C61.6599 25.6538 61.3071 25.558 60.8455 25.558H59.2516V27.7921Z" fill="#AFA7D1"/>
<path d="M49.2215 33.0441C48.8383 33.0441 48.5421 32.9396 48.3331 32.7306C48.124 32.5128 48.0195 32.2123 48.0195 31.8291V24.9309C48.0195 24.5389 48.124 24.2384 48.3331 24.0294C48.5508 23.8203 48.8513 23.7158 49.2346 23.7158H52.4485C53.4937 23.7158 54.2994 23.9858 54.8655 24.5258C55.4404 25.0571 55.7278 25.7931 55.7278 26.7338C55.7278 27.6745 55.4404 28.4148 54.8655 28.9548C54.2994 29.4861 53.4937 29.7518 52.4485 29.7518H50.4235V31.8291C50.4235 32.2123 50.3233 32.5128 50.123 32.7306C49.9226 32.9396 49.6222 33.0441 49.2215 33.0441ZM50.4235 27.9096H52.0304C52.4834 27.9096 52.8318 27.8138 53.0756 27.6222C53.3195 27.4219 53.4415 27.1258 53.4415 26.7338C53.4415 26.3331 53.3195 26.037 53.0756 25.8454C52.8318 25.6538 52.4834 25.558 52.0304 25.558H50.4235V27.9096Z" fill="#AFA7D1"/>
<path d="M95.7212 21.1685C95.3554 21.1685 95.0767 21.0727 94.8851 20.8811C94.6935 20.6895 94.5977 20.4108 94.5977 20.045V15.7858C94.5977 15.4026 94.6978 15.1152 94.8982 14.9235C95.1072 14.7232 95.3946 14.623 95.7604 14.623C96.135 14.623 96.4224 14.7232 96.6227 14.9235C96.823 15.1152 96.9232 15.4026 96.9232 15.7858V16.6742H98.3211C99.2096 16.6742 99.8759 16.8571 100.32 17.223C100.773 17.5888 100.999 18.1375 100.999 18.8691C100.999 19.322 100.886 19.7227 100.66 20.0711C100.433 20.4108 100.12 20.6808 99.7191 20.8811C99.3184 21.0727 98.8525 21.1685 98.3211 21.1685H95.7212ZM96.9232 19.7053H97.89C98.2036 19.7053 98.4474 19.64 98.6216 19.5093C98.7958 19.37 98.8829 19.1653 98.8829 18.8953C98.8829 18.6253 98.7958 18.4336 98.6216 18.3204C98.4562 18.1985 98.2123 18.1375 97.89 18.1375H96.9232V19.7053Z" fill="#AFA7D1"/>
<path d="M91.8541 21.2857C91.4883 21.2857 91.2052 21.1856 91.0049 20.9852C90.8046 20.7849 90.7044 20.4931 90.7044 20.1099V16.5171H89.3587V17.2095C89.3587 17.7147 89.3152 18.185 89.2281 18.6205C89.1497 19.0473 89.0321 19.4262 88.8753 19.7571C88.7185 20.0881 88.5139 20.3756 88.2613 20.6194C88.0174 20.8546 87.7256 21.0419 87.3859 21.1812C87.1246 21.2857 86.8851 21.3119 86.6674 21.2596C86.4583 21.2161 86.2841 21.1202 86.1448 20.9722C86.0054 20.8241 85.9139 20.6499 85.8704 20.4496C85.8356 20.2493 85.8617 20.0533 85.9488 19.8617C86.0359 19.6613 86.197 19.4871 86.4322 19.3391C86.5977 19.2346 86.7327 19.1126 86.8372 18.9733C86.9417 18.8252 87.0245 18.6597 87.0854 18.4768C87.1464 18.2852 87.1856 18.0805 87.203 17.8627C87.2291 17.6363 87.2422 17.3924 87.2422 17.1311V16.0337C87.2422 15.6069 87.3511 15.2846 87.5688 15.0669C87.7953 14.8491 88.1176 14.7402 88.5356 14.7402H91.7365C92.1546 14.7402 92.4725 14.8491 92.6903 15.0669C92.9167 15.2846 93.0299 15.6069 93.0299 16.0337V20.1099C93.0299 20.4931 92.9254 20.7849 92.7164 20.9852C92.5161 21.1856 92.2286 21.2857 91.8541 21.2857Z" fill="#AFA7D1"/>
<path d="M82.4738 21.312C81.6899 21.312 81.0105 21.177 80.4356 20.907C79.8695 20.6283 79.434 20.2364 79.1291 19.7312C78.8243 19.226 78.6719 18.6294 78.6719 17.9413C78.6719 17.2793 78.8156 16.7001 79.103 16.2037C79.3992 15.6985 79.7998 15.3065 80.305 15.0278C80.8189 14.7404 81.4024 14.5967 82.0557 14.5967C82.5347 14.5967 82.9702 14.6751 83.3622 14.8318C83.7541 14.9799 84.0894 15.202 84.3682 15.4982C84.6469 15.7856 84.8559 16.134 84.9953 16.5433C85.1433 16.9527 85.2174 17.41 85.2174 17.9152C85.2174 18.0894 85.1695 18.22 85.0737 18.3071C84.9779 18.3855 84.8254 18.4247 84.6164 18.4247H80.6185V17.3272H83.5189L83.3099 17.4971C83.3099 17.1748 83.2664 16.9135 83.1793 16.7132C83.0922 16.5129 82.9615 16.3604 82.7873 16.2559C82.6218 16.1514 82.4128 16.0991 82.1602 16.0991C81.8902 16.0991 81.655 16.1645 81.4547 16.2951C81.2631 16.4171 81.115 16.6 81.0105 16.8438C80.906 17.0877 80.8537 17.3926 80.8537 17.7584V17.876C80.8537 18.4944 80.9887 18.9386 81.2587 19.2086C81.5374 19.4699 81.9642 19.6005 82.5391 19.6005C82.7307 19.6005 82.9484 19.5788 83.1923 19.5352C83.4449 19.4829 83.6844 19.4133 83.9109 19.3262C84.1373 19.2391 84.3333 19.226 84.4988 19.287C84.6643 19.3392 84.7906 19.435 84.8777 19.5744C84.9735 19.705 85.0258 19.8575 85.0345 20.0317C85.0432 20.1972 85.004 20.3626 84.9169 20.5281C84.8298 20.6849 84.6861 20.8068 84.4857 20.8939C84.1809 21.0333 83.8543 21.1378 83.5059 21.2075C83.1662 21.2772 82.8222 21.312 82.4738 21.312Z" fill="#AFA7D1"/>
<path d="M74.9565 21.2857C74.582 21.2857 74.2946 21.1856 74.0943 20.9852C73.8939 20.7849 73.7938 20.4931 73.7938 20.1099V16.5563H72.5918C71.9473 16.5563 71.625 16.2514 71.625 15.6417C71.625 15.3543 71.7077 15.1322 71.8732 14.9754C72.0474 14.8186 72.287 14.7402 72.5918 14.7402H77.3213C77.9658 14.7402 78.2881 15.0407 78.2881 15.6417C78.2881 15.9378 78.2053 16.1643 78.0399 16.3211C77.8744 16.4779 77.6348 16.5563 77.3213 16.5563H76.1193V20.1099C76.1193 20.4931 76.0192 20.7849 75.8188 20.9852C75.6272 21.1856 75.3398 21.2857 74.9565 21.2857Z" fill="#AFA7D1"/>
<path d="M65.294 21.2861C65.0588 21.2861 64.8585 21.2426 64.693 21.1555C64.5362 21.0684 64.4186 20.9334 64.3402 20.7505C64.2619 20.5676 64.2227 20.3368 64.2227 20.058V15.7205C64.2227 15.3634 64.3141 15.0934 64.497 14.9105C64.6799 14.7189 64.9412 14.623 65.2809 14.623C65.6119 14.623 65.8645 14.7189 66.0387 14.9105C66.2216 15.0934 66.313 15.3634 66.313 15.7205V18.6993H65.9472L68.4818 15.3547C68.6037 15.1979 68.7605 15.0368 68.9521 14.8713C69.1525 14.7058 69.4312 14.623 69.7883 14.623C70.0322 14.623 70.2325 14.6666 70.3893 14.7537C70.5461 14.8408 70.6636 14.9758 70.742 15.1587C70.8204 15.3329 70.8596 15.5637 70.8596 15.8511V20.1887C70.8596 20.5371 70.7682 20.8071 70.5853 20.9987C70.4111 21.1903 70.1541 21.2861 69.8144 21.2861C69.4747 21.2861 69.2134 21.1903 69.0305 20.9987C68.8563 20.8071 68.7692 20.5371 68.7692 20.1887V17.1968H69.135L66.6005 20.5545C66.4872 20.7113 66.3305 20.8724 66.1301 21.0379C65.9385 21.2034 65.6598 21.2861 65.294 21.2861Z" fill="#AFA7D1"/>
<path d="M61.5208 21.2861C61.1463 21.2861 60.8632 21.1816 60.6716 20.9726C60.48 20.7548 60.3841 20.4456 60.3841 20.045V19.1696C60.1577 19.248 59.9399 19.3046 59.7309 19.3395C59.5219 19.3743 59.3172 19.3917 59.1169 19.3917C58.1152 19.3917 57.3662 19.1478 56.8697 18.6601C56.3732 18.1636 56.125 17.4276 56.125 16.4521V15.7858C56.125 15.4113 56.2252 15.1239 56.4255 14.9235C56.6258 14.7232 56.9132 14.623 57.2878 14.623C57.6623 14.623 57.9497 14.7232 58.1501 14.9235C58.3504 15.1239 58.4505 15.4113 58.4505 15.7858V16.2431C58.4505 16.7047 58.5333 17.0357 58.6988 17.236C58.873 17.4363 59.1735 17.5365 59.6003 17.5365C59.7396 17.5365 59.8703 17.5234 59.9922 17.4973C60.1229 17.4712 60.2361 17.432 60.3319 17.3797V15.8511C60.3319 15.0324 60.7195 14.623 61.4947 14.623C61.8866 14.623 62.1784 14.7276 62.37 14.9366C62.5616 15.1456 62.6574 15.4505 62.6574 15.8511V20.045C62.6574 20.4456 62.5616 20.7548 62.37 20.9726C62.1871 21.1816 61.904 21.2861 61.5208 21.2861Z" fill="#AFA7D1"/>
<path d="M50.4456 21.2857C50.1668 21.2857 49.9317 21.2161 49.7401 21.0767C49.5484 20.9374 49.4309 20.7501 49.3873 20.5149C49.3438 20.271 49.396 19.9967 49.5441 19.6918L50.3933 17.9934V18.6597L47.1924 13.3815C47.0356 13.1202 46.9747 12.872 47.0095 12.6368C47.0443 12.3929 47.1576 12.2013 47.3492 12.0619C47.5495 11.9139 47.8021 11.8398 48.107 11.8398C48.4205 11.8398 48.6557 11.9182 48.8125 12.075C48.9779 12.2231 49.1391 12.4365 49.2959 12.7152L51.5561 16.5301H51.1641L53.0716 12.7283C53.1848 12.5018 53.3242 12.2971 53.4897 12.1142C53.6639 11.9313 53.9252 11.8398 54.2736 11.8398C54.5523 11.8398 54.7875 11.9095 54.9791 12.0489C55.1794 12.1795 55.3013 12.3668 55.3449 12.6107C55.3972 12.8458 55.3405 13.1202 55.175 13.4338L51.6606 20.3973C51.5561 20.6151 51.4124 20.8198 51.2295 21.0114C51.0553 21.1943 50.794 21.2857 50.4456 21.2857Z" fill="#AFA7D1"/>
</svg>
