<svg width="33" height="33" viewBox="0 0 33 33" fill="none" xmlns="http://www.w3.org/2000/svg">
<path fill-rule="evenodd" clip-rule="evenodd" d="M16.5 33C25.6127 33 33 25.6127 33 16.5C33 7.3873 25.6127 0 16.5 0C7.3873 0 0 7.3873 0 16.5C0 25.6127 7.3873 33 16.5 33ZM12.1935 23.6033C13.4763 24.2819 14.9641 24.6212 16.6569 24.6212C17.4325 24.6212 18.1969 24.5467 18.9502 24.3975C19.7108 24.2558 20.4268 24.0507 21.098 23.7823C21.7691 23.5138 22.3546 23.1931 22.8542 22.8202L22.239 21.5002C21.8064 21.8507 21.2956 22.1528 20.7064 22.4063C20.1173 22.6599 19.4834 22.8538 18.8047 22.988C18.1261 23.1297 17.44 23.2006 16.7464 23.2006C15.3295 23.2006 14.0878 22.9209 13.0213 22.3616C11.9624 21.8097 11.1346 21.0379 10.538 20.046C9.94135 19.0467 9.64304 17.887 9.64304 16.567C9.64304 15.5528 9.82202 14.6206 10.18 13.7704C10.5454 12.9128 11.0563 12.167 11.7125 11.5331C12.3688 10.8918 13.1332 10.3921 14.0058 10.0341C14.8858 9.67616 15.8403 9.49718 16.8695 9.49718C18.1895 9.49718 19.3529 9.75819 20.3597 10.2802C21.3739 10.7948 22.1644 11.5107 22.7312 12.428C23.298 13.3379 23.5813 14.3894 23.5813 15.5826C23.5813 16.2836 23.4807 16.8951 23.2793 17.4172C23.0854 17.9392 22.8169 18.3419 22.4739 18.6253C22.1383 18.9087 21.758 19.0504 21.3329 19.0504C20.8258 19.0504 20.4752 18.9162 20.2813 18.6477C20.0949 18.3792 20.0166 17.9504 20.0464 17.3612L20.3037 12.4392H18.8271L18.7936 13.3006C18.0851 12.5324 17.2274 12.1484 16.2207 12.1484C15.4749 12.1484 14.8 12.3423 14.1959 12.7301C13.5919 13.1179 13.1146 13.6436 12.7641 14.3073C12.4135 14.9711 12.2383 15.7094 12.2383 16.5223C12.2383 17.2755 12.3912 17.9467 12.6969 18.5358C13.0027 19.125 13.4203 19.5911 13.9498 19.9341C14.4868 20.2697 15.0946 20.4375 15.7732 20.4375C16.4146 20.4375 16.9925 20.3107 17.5071 20.0572C18.0217 19.7962 18.4468 19.4158 18.7824 18.9162C18.9315 19.386 19.2037 19.7589 19.599 20.0348C19.9942 20.3033 20.5088 20.4375 21.1427 20.4375C21.8736 20.4375 22.5373 20.225 23.1339 19.7999C23.7305 19.3748 24.2078 18.7968 24.5658 18.066C24.9237 17.3277 25.1027 16.4962 25.1027 15.5714C25.1027 14.1023 24.7522 12.8084 24.0512 11.6897C23.3576 10.5711 22.3956 9.6948 21.1651 9.0609C19.9346 8.42701 18.5102 8.11006 16.8919 8.11006C15.639 8.11006 14.4756 8.3226 13.4017 8.74768C12.3352 9.17277 11.4068 9.76565 10.6163 10.5263C9.82575 11.287 9.2105 12.1819 8.7705 13.2111C8.3305 14.2402 8.1105 15.3626 8.1105 16.5782C8.1105 18.1741 8.46846 19.5762 9.1844 20.7843C9.90779 21.9924 10.9108 22.9321 12.1935 23.6033ZM17.7644 18.1107C17.3468 18.6179 16.7688 18.8714 16.0305 18.8714C15.3817 18.8714 14.882 18.6738 14.5315 18.2785C14.181 17.8758 14.0058 17.3053 14.0058 16.567C14.0058 15.6795 14.2183 14.9823 14.6434 14.4751C15.0685 13.968 15.6464 13.7145 16.3773 13.7145C17.0335 13.7145 17.5332 13.9121 17.8763 14.3073C18.2268 14.7026 18.402 15.2657 18.402 15.9965C18.402 16.8989 18.1895 17.6036 17.7644 18.1107Z" fill="#5B8DC8"/>
</svg>
