<svg width="56" height="38" viewBox="0 0 56 38" fill="none" xmlns="http://www.w3.org/2000/svg">
<rect x="1.21372" y="1.29966" width="53.8157" height="35.3441" rx="11.9949" fill="white"/>
<rect x="1.21372" y="1.29966" width="53.8157" height="35.3441" rx="11.9949" stroke="#CCCCCC" stroke-width="1.59932"/>
<path d="M9.42121 12.6233C9.39732 12.6237 9.37518 12.6241 9.35497 12.6242L5.03125 12.6243V25.3213H9.20936V17.8332H9.48953L11.8186 25.3213H14.9621L17.2912 17.8387H17.5714V25.3213H21.7495V12.6243L17.6502 12.6243C17.6184 12.6243 17.5837 12.6238 17.5466 12.6233C16.9627 12.6153 15.7588 12.5989 15.2592 14.2775C14.9488 15.3209 14.3784 17.2707 13.548 20.1271H13.2327C12.4584 17.4177 11.8942 15.4679 11.54 14.2775C11.0396 12.5959 9.89113 12.6154 9.42121 12.6233Z" fill="#0F754E"/>
<path d="M27.7491 20.1124V12.6243H23.4838V25.3214H27.5269C27.5269 25.3214 28.7546 25.2105 29.3046 23.9907L32.0822 17.8332H32.4155V25.3214H36.6808V12.6243H32.6377C32.6377 12.6243 31.4655 12.7296 30.9156 13.955L28.0825 20.1124H27.7491Z" fill="#0F754E"/>
<path d="M46.8918 21.5391C48.9604 21.5391 50.8289 20.3368 51.4238 18.658H38.3626V25.3214H42.4187V21.5391H46.8918Z" fill="#0F754E"/>
<path d="M38.1499 12.6243H47.0874C50.5263 12.6243 52.1885 15.5216 51.7057 17.871H43.3384C40.8074 17.871 38.3626 15.4511 38.1499 12.6243Z" fill="#0F754E"/>
</svg>
