<svg width="174" height="225" viewBox="0 0 174 225" fill="none" xmlns="http://www.w3.org/2000/svg">
<path d="M30.2817 144.891C30.2301 150.305 34.6129 154.687 40.027 154.687H68.9536L81.8442 149.531L92.1567 154.687H141.45L140.605 134.645L153.413 130.659L127.941 99.4639L127.926 99.5103C122.695 93.3584 116.184 88.4224 108.849 85.0471C101.513 81.6718 93.5286 79.9384 85.4536 79.9681C55.0317 79.9681 30.3333 104.151 30.3333 133.903L30.2817 144.891Z" fill="#FF6723"/>
<path d="M84.009 95.5453C89.4747 95.5453 93.8575 91.1109 93.8575 85.6969V74.0437C93.8575 71.4318 92.8199 68.9268 90.9729 67.0799C89.126 65.2329 86.621 64.1953 84.009 64.1953C81.3971 64.1953 78.8921 65.2329 77.0451 67.0799C75.1982 68.9268 74.1606 71.4318 74.1606 74.0437V85.6969C74.109 91.1625 78.5434 95.5453 84.009 95.5453Z" fill="#F4C6AD"/>
<path d="M106.129 22.945C104.169 20.5731 101.488 19.1809 98.6521 18.7169C95.61 18.2528 92.7225 16.809 90.7115 14.4887C87.9787 11.395 83.7506 9.74498 79.4193 10.5184C77.7693 10.8278 76.2225 11.4465 74.8818 12.3231C73.0771 13.509 70.86 13.9215 68.6943 13.4059C67.1475 13.045 65.4975 12.9934 63.7959 13.2512C59.4646 14.0247 56.1131 16.9122 54.5662 20.6762C53.3803 23.6153 51.2146 26.0387 48.4303 27.5856C45.8521 29.0294 43.7381 31.4528 42.7584 34.495C41.3146 38.9294 42.6037 43.6731 45.6975 46.87C46.8318 48.0044 47.6053 49.4997 47.8631 51.0981L51.5756 72.1872C52.4006 76.8794 56.1131 80.5403 60.8053 81.3137L70.9631 82.9122L64.3631 45.3231C64.9818 44.4465 65.4975 43.5184 65.8584 42.4356C66.4771 40.7856 66.6834 39.1356 66.5803 37.4856L68.024 37.3309C71.0146 36.8153 73.5412 35.2684 75.2943 33.1028C77.7178 34.5465 80.6053 35.1137 83.5959 34.5981C84.06 34.495 84.524 34.3919 84.9881 34.2372C85.4521 35.784 86.2256 37.3309 87.36 38.62C88.0818 39.445 88.8553 40.1669 89.7318 40.7856L96.3318 78.3747L105.304 73.3731C109.48 71.0528 111.697 66.3606 110.872 61.6684L107.16 40.6309C106.902 39.0325 107.108 37.3825 107.779 35.9387C109.79 31.7622 109.274 26.709 106.129 22.945Z" fill="#212121"/>
<path d="M112.523 50.9432C112.523 53.2133 111.622 55.3904 110.016 56.9956C108.411 58.6008 106.234 59.5025 103.964 59.5025C101.694 59.5025 99.5169 58.6008 97.9117 56.9956C96.3065 55.3904 95.4047 53.2133 95.4047 50.9432C95.4047 48.6731 96.3065 46.496 97.9117 44.8908C99.5169 43.2856 101.694 42.3838 103.964 42.3838C106.234 42.3838 108.411 43.2856 110.016 44.8908C111.622 46.496 112.523 48.6731 112.523 50.9432ZM64.1578 59.7088C64.1578 60.8328 63.9364 61.9458 63.5063 62.9843C63.0761 64.0228 62.4456 64.9664 61.6508 65.7612C60.856 66.556 59.9124 67.1865 58.874 67.6166C57.8355 68.0468 56.7225 68.2682 55.5984 68.2682C54.4744 68.2682 53.3614 68.0468 52.3229 67.6166C51.2844 67.1865 50.3409 66.556 49.546 65.7612C48.7512 64.9664 48.1208 64.0228 47.6906 62.9843C47.2605 61.9458 47.0391 60.8328 47.0391 59.7088C47.0391 57.4387 47.9409 55.2616 49.546 53.6564C51.1512 52.0512 53.3284 51.1494 55.5984 51.1494C57.8685 51.1494 60.0456 52.0512 61.6508 53.6564C63.256 55.2616 64.1578 57.4387 64.1578 59.7088Z" fill="#F4C6AD"/>
<path d="M87.9282 32.8962C85.5144 33.3228 83.0288 33.0437 80.7697 32.0925C78.5106 31.1413 76.5739 29.5584 75.1922 27.5337C74.8764 27.0178 74.4306 26.5938 73.8994 26.3043C73.3682 26.0147 72.7703 25.8697 72.1655 25.8837L65.086 27.1212C60.5791 27.9065 56.559 30.4259 53.8873 34.1395C51.2156 37.8531 50.1047 42.4655 50.7929 46.9883L57.4547 74.2803C60.5485 84.0256 70.3454 89.9553 80.4 88.1506L90.0938 86.3975C94.9484 85.5404 99.3274 82.9517 102.419 79.1115C105.51 75.2713 107.103 70.4403 106.903 65.5147L104.17 41.3473L103.655 38.0009C103.369 36.0573 102.338 34.3012 100.779 33.1049C99.2211 31.9085 97.2583 31.3658 95.3068 31.5917L87.9282 32.8962Z" fill="#FFD7C2"/>
<path d="M77.8486 54.2437L76.7142 63.3703C76.4564 65.2265 78.1064 66.8249 79.9626 66.464L83.9329 65.7421C84.365 65.6692 84.7737 65.4953 85.1259 65.2346C85.4781 64.9739 85.7637 64.6337 85.9597 64.2418C86.1557 63.8499 86.2563 63.4173 86.2536 62.9792C86.2508 62.541 86.1447 62.1097 85.9439 61.7203L81.7673 53.5218C80.7876 51.7687 78.1064 52.2328 77.8486 54.2437Z" fill="#E5AF93"/>
<path d="M82.6632 71.6405C80.1628 72.0835 77.5928 71.9244 75.166 71.1764C74.372 70.9186 73.7739 71.8983 74.3204 72.517C76.5531 74.992 79.884 76.2811 83.3593 75.6624C86.8346 75.0436 89.5159 72.6202 90.805 69.4749C91.104 68.7014 90.212 67.9795 89.5675 68.4952C87.6287 70.042 85.2929 71.1249 82.6632 71.6405Z" fill="#990838"/>
<path d="M87.9653 52.4391C87.6427 52.1907 87.235 52.0795 86.8309 52.1297C85.6966 52.3359 85.2841 53.7797 86.2638 54.5531C88.0684 56.0485 90.4919 56.7188 92.9669 56.3063C95.3903 55.8422 97.4528 54.3469 98.6388 52.3359C99.2059 51.3047 98.3294 50.0672 97.195 50.2735C96.7825 50.325 96.4216 50.5828 96.2153 50.9438C95.8112 51.6291 95.2641 52.2194 94.6114 52.6743C93.9586 53.1292 93.2155 53.4382 92.4326 53.5801C91.6497 53.722 90.8455 53.6935 90.0746 53.4966C89.3037 53.2997 88.5843 52.939 87.9653 52.4391ZM64.7622 56.6156C64.4395 56.3672 64.0319 56.2561 63.6278 56.3063C62.4934 56.5125 62.0809 58.0078 63.0606 58.7297C64.8653 60.225 67.2887 60.8953 69.7637 60.4828C72.1872 60.0188 74.2497 58.5235 75.4356 56.5125C76.0028 55.4813 75.1263 54.2438 73.9919 54.45C73.5794 54.5016 73.2184 54.7594 73.0122 55.1203C72.6081 55.8057 72.061 56.3959 71.4083 56.8509C70.7555 57.3058 70.0124 57.6147 69.2295 57.7566C68.4466 57.8985 67.6423 57.8701 66.8715 57.6732C66.1006 57.4763 65.3811 57.1156 64.7622 56.6156ZM94.2198 41.6109C94.5292 41.7656 94.8386 41.8172 95.148 41.7656C95.5605 41.7141 95.973 41.4563 96.1792 40.9406C96.5402 40.2703 96.2823 39.3938 95.5605 39.0328L95.5553 39.0277C92.3992 37.5867 88.8253 37.3483 85.5058 38.3574C84.7323 38.6152 84.3198 39.3886 84.5261 40.162C84.7839 40.9355 85.5573 41.348 86.3308 41.1417C88.9095 40.3862 91.6696 40.541 94.1477 41.58L94.2198 41.6109ZM58.487 47.6953C58.848 48.0047 59.312 48.1078 59.7245 48.0047C60.0339 47.9531 60.2917 47.7984 60.498 47.5922L60.5856 47.5149C61.0858 47.056 63.6278 44.7305 67.7683 44.4985C68.5417 44.4469 69.1605 43.7766 69.1089 43.0031C69.1089 42.2297 68.387 41.611 67.6136 41.6625C64.1586 41.8284 60.8834 43.2514 58.4045 45.6638L58.3839 45.6844C57.8683 46.2516 57.9198 47.1797 58.487 47.6953Z" fill="#212121"/>
<path d="M91.8972 99.7215L92.98 100.031C94.3206 100.392 95.0941 101.732 94.7331 103.073C94.3722 104.414 93.0316 105.187 91.6909 104.826L90.6081 104.517C90.1956 104.414 89.7316 104.517 89.4222 104.878L88.0816 106.373C87.5144 107.043 86.5863 107.301 85.7613 107.095L84.0391 106.646L87.2359 94.7354L88.9581 95.1839C89.7831 95.3902 90.4534 96.1121 90.6081 96.9371L91.0206 98.8965C91.1238 99.2574 91.4331 99.6183 91.8972 99.7215Z" fill="#F9C23C"/>
<path d="M82.2555 87.5524C82.2555 87.604 82.3071 87.604 82.2555 87.5524H82.3586C84.7718 88.2279 86.2774 90.6152 85.8752 93.0696L87.0405 94.5237L83.756 106.569L82.0647 107.239C81.6268 108.353 80.7959 109.269 79.729 109.812C78.6621 110.356 77.4331 110.489 76.2743 110.188H76.1711L61.3211 106.218C59.9012 105.832 58.6919 104.899 57.9576 103.623C57.2233 102.348 57.0237 100.834 57.4024 99.4118L60.5993 87.5009C61.3727 84.5618 64.4149 82.8087 67.4055 83.5821H67.4571L82.2555 87.5524Z" fill="#26EAFC"/>
<path d="M61.7844 104.517C60.8202 104.247 60 103.61 59.499 102.743C58.998 101.876 58.8559 100.847 59.1031 99.8767L62.3 87.9657C62.8672 85.9548 64.9297 84.7689 66.9406 85.2845C66.9956 85.2879 67.0558 85.2965 67.1211 85.3103C67.1864 85.324 67.2465 85.3326 67.3015 85.336L81.5844 89.1517C81.6359 89.1757 81.6875 89.1929 81.739 89.2032L81.8937 89.2548C83.5437 89.7189 84.5234 91.472 84.0594 93.122L80.5531 106.219C80.1406 107.869 78.3875 108.9 76.7375 108.488H76.6859L61.7844 104.517ZM83.3375 107.663L82.0484 107.302C82.1275 107.106 82.1962 106.899 82.2547 106.683L85.7609 93.586C85.8109 93.4011 85.8505 93.2134 85.8795 93.024L87.1531 93.385C87.7719 93.5396 88.1328 94.1584 87.9781 94.7771L84.7297 106.843C84.6936 106.989 84.6288 107.127 84.539 107.248C84.4492 107.369 84.3362 107.47 84.2066 107.547C84.077 107.624 83.9334 107.674 83.7841 107.695C83.6349 107.716 83.4831 107.706 83.3375 107.668" fill="#00D1ED"/>
<path d="M71.7875 107.199L61.7844 104.517C60.8202 104.247 60 103.61 59.499 102.743C58.998 101.876 58.8559 100.847 59.1031 99.8767L62.3 87.9657C62.8156 85.9548 64.9297 84.7689 66.9406 85.2845C67.0437 85.3361 67.1984 85.336 67.3015 85.336L73.3859 86.9861C73.6953 87.0892 73.9531 87.347 73.9531 87.7079L73.6953 105.806C73.5922 106.786 72.7156 107.456 71.7875 107.199Z" fill="white"/>
<path d="M124.023 140.043C129.904 140.043 135.543 137.707 139.701 133.549C143.859 129.391 146.195 123.751 146.195 117.871C146.195 111.991 143.859 106.351 139.701 102.193C135.543 98.0352 129.904 95.6992 124.023 95.6992C118.143 95.6992 112.504 98.0352 108.346 102.193C104.188 106.351 101.852 111.991 101.852 117.871C101.852 123.751 104.188 129.391 108.346 133.549C112.504 137.707 118.143 140.043 124.023 140.043Z" fill="#00F397"/>
<path d="M118.039 96.5244C114.531 99.9697 112.267 104.484 111.604 109.356C110.942 114.228 111.917 119.183 114.378 123.44C116.845 127.696 120.651 131.016 125.203 132.882C129.755 134.747 134.797 135.053 139.541 133.753C136.402 136.82 132.424 138.887 128.11 139.692C123.796 140.497 119.34 140.004 115.306 138.275C115.719 144.55 113.625 150.325 107.675 153.707L76.6861 149.531V154.687H66.2705L65.1876 152.934C59.1548 142.467 62.7126 129.009 73.2314 122.976L85.7611 115.757C90.7673 112.867 96.7126 112.072 102.302 113.545C102.908 110.506 104.144 107.627 105.931 105.095C107.718 102.563 110.016 100.434 112.677 98.8447C114.378 97.8135 116.183 97.04 118.039 96.5244Z" fill="#00D26A"/>
<path d="M29.4047 109.312L14.8125 154.687H47.6578L58.8984 118.491C60.1155 114.579 59.7291 110.345 57.8241 106.719C55.9192 103.093 52.6517 100.372 48.7406 99.1546C44.8295 97.9375 40.5951 98.3239 36.9689 100.229C33.3427 102.134 30.6218 105.401 29.4047 109.312ZM144.028 127.101L110.956 132.928C106.042 133.805 105.047 138.033 105.047 143.034V154.687H144.028C151.69 154.687 157.898 148.551 157.898 140.92C157.898 133.289 152.361 125.761 144.028 127.101Z" fill="#FF8101"/>
<path d="M45.2843 91.1106L40.2311 100.907C38.839 103.589 38.1893 107.549 39.7877 110.127C41.3346 112.705 44.2221 114.793 47.2127 115.206C49.1721 115.515 53.0547 115.324 56.4063 110.323L58.3811 111.632C59.1546 112.509 60.2374 112.921 61.3202 112.921C62.2483 112.921 63.228 112.561 64.053 111.839C65.0843 110.911 65.4968 109.57 65.2905 108.281C66.7858 108.848 68.5905 108.384 69.6733 107.043C71.014 105.29 70.7562 102.815 69.0546 101.423L63.9499 97.2981C63.8983 97.2981 63.8983 97.2981 63.8468 97.2465L71.9421 98.3809C74.1077 98.6902 76.1186 97.1434 76.428 94.9777C76.6858 93.4309 75.9124 91.9356 74.6749 91.1106C76.8405 91.4199 78.8515 89.8731 79.1608 87.7074C79.3005 86.6619 79.0211 85.6036 78.3836 84.7633C77.7461 83.9229 76.8022 83.3687 75.7577 83.2215L67.1983 82.0356C66.889 81.984 63.7436 81.5715 63.7436 81.5715C54.8749 80.334 49.0483 83.8402 45.2843 91.1106ZM87.581 143.637H74.4326C72.9965 143.681 71.6339 144.282 70.6336 145.314C69.6333 146.345 69.0739 147.725 69.0739 149.162C69.0739 150.599 69.6333 151.979 70.6336 153.011C71.6339 154.042 72.9965 154.643 74.4326 154.687H101.812C102.529 154.739 103.256 154.61 103.947 154.367C104.695 154.104 104.865 151.609 104.865 151.609V146.545L104.375 143.637L94.3924 133.598C93.8883 133.084 93.2866 132.675 92.6226 132.396C91.9585 132.117 91.2455 131.973 90.5252 131.973C89.8049 131.973 89.0919 132.117 88.4279 132.396C87.7638 132.675 87.1621 133.084 86.658 133.598C86.1467 134.108 85.741 134.714 85.4641 135.381C85.1873 136.048 85.0448 136.764 85.0448 137.486C85.0448 138.208 85.1873 138.923 85.4641 139.59C85.741 140.258 86.1467 140.864 86.658 141.374L87.9935 142.714C88.3029 143.024 88.0966 143.637 87.581 143.637Z" fill="#F4C6AD"/>
<path d="M56.1122 109.209L58.381 111.633C53.4825 118.594 45.7481 118.594 40.5919 114.727C35.4356 110.859 35.4356 103.125 38.0138 100.547C38.0138 100.547 39.3028 98.8298 41.881 97.9688L40.1278 101.104C39.4938 102.394 39.1989 103.824 39.2711 105.259C39.3433 106.694 39.7801 108.088 40.5403 109.307C42.0872 111.885 44.82 113.587 47.8106 114C49.77 114.309 52.7606 114.211 56.1122 109.209ZM103.756 136.641C103.414 136.641 103.086 136.776 102.844 137.018C102.603 137.26 102.467 137.588 102.467 137.93V154.688H106.334V137.285C106.334 137.114 106.266 136.95 106.145 136.829C106.024 136.709 105.86 136.641 105.69 136.641H103.756Z" fill="#F24827"/>
<path d="M12.548 207V187.4H19.646C21.0367 187.4 22.264 187.643 23.328 188.128C24.4013 188.604 25.2413 189.295 25.848 190.2C26.4547 191.096 26.758 192.174 26.758 193.434C26.758 194.731 26.478 195.828 25.918 196.724C25.358 197.611 24.5413 198.287 23.468 198.754C22.404 199.211 21.1067 199.44 19.576 199.44H15.684V207H12.548ZM15.684 196.752H19.618C20.8873 196.752 21.872 196.486 22.572 195.954C23.272 195.413 23.622 194.596 23.622 193.504C23.622 192.421 23.2627 191.591 22.544 191.012C21.8253 190.433 20.8593 190.144 19.646 190.144H15.684V196.752ZM35.7646 207.42C34.3179 207.42 33.0253 207.089 31.8866 206.426C30.7573 205.754 29.8706 204.863 29.2266 203.752C28.5826 202.632 28.2606 201.405 28.2606 200.07C28.2606 199.081 28.4426 198.147 28.8066 197.27C29.1799 196.383 29.7026 195.599 30.3746 194.918C31.0559 194.237 31.8539 193.7 32.7686 193.308C33.6833 192.916 34.6866 192.72 35.7786 192.72C37.2253 192.72 38.5133 193.056 39.6426 193.728C40.7813 194.391 41.6726 195.282 42.3166 196.402C42.9606 197.513 43.2826 198.735 43.2826 200.07C43.2826 201.05 43.0959 201.983 42.7226 202.87C42.3586 203.757 41.8406 204.541 41.1686 205.222C40.4966 205.903 39.7033 206.44 38.7886 206.832C37.8739 207.224 36.8659 207.42 35.7646 207.42ZM35.7646 204.69C36.6233 204.69 37.3839 204.503 38.0466 204.13C38.7186 203.747 39.2459 203.211 39.6286 202.52C40.0113 201.829 40.2026 201.013 40.2026 200.07C40.2026 199.127 40.0113 198.311 39.6286 197.62C39.2459 196.92 38.7186 196.383 38.0466 196.01C37.3839 195.637 36.6233 195.45 35.7646 195.45C34.9059 195.45 34.1406 195.637 33.4686 196.01C32.8059 196.383 32.2833 196.92 31.9006 197.62C31.5273 198.311 31.3406 199.127 31.3406 200.07C31.3406 201.013 31.5319 201.829 31.9146 202.52C32.2973 203.211 32.8199 203.747 33.4826 204.13C34.1546 204.503 34.9153 204.69 35.7646 204.69ZM56.4424 207V195.688H50.8424V197.522C50.8424 198.782 50.7677 199.921 50.6184 200.938C50.469 201.955 50.203 202.851 49.8204 203.626C49.4377 204.391 48.901 205.026 48.2104 205.53C47.529 206.034 46.6564 206.403 45.5924 206.636L44.8364 204.55C45.723 204.335 46.3904 203.934 46.8384 203.346C47.2864 202.758 47.585 201.983 47.7344 201.022C47.893 200.051 47.9724 198.885 47.9724 197.522V193.14H59.5224V207H56.4424ZM44.8364 211.2V204.55L46.7404 204.746L47.2164 204.452H62.3084V211.2H59.4944V207H47.6504V211.2H44.8364ZM65.0248 207V193.14H68.0068V202.492L75.5248 193.14H78.2128V207H75.2448V197.536L67.6568 207H65.0248ZM85.5915 207V195.688H81.0415V193.14H93.2355V195.688H88.6715V207H85.5915ZM102.388 207.42C100.895 207.42 99.5833 207.117 98.454 206.51C97.3246 205.894 96.4426 205.035 95.808 203.934C95.1826 202.833 94.87 201.554 94.87 200.098C94.87 199.034 95.052 198.054 95.416 197.158C95.78 196.253 96.2933 195.469 96.956 194.806C97.6186 194.143 98.3933 193.63 99.28 193.266C100.176 192.902 101.151 192.72 102.206 192.72C103.354 192.72 104.376 192.925 105.272 193.336C106.168 193.737 106.91 194.302 107.498 195.03C108.095 195.758 108.515 196.612 108.758 197.592C109.01 198.563 109.052 199.617 108.884 200.756H97.824C97.8053 201.587 97.9873 202.315 98.37 202.94C98.7526 203.556 99.2986 204.037 100.008 204.382C100.727 204.727 101.571 204.9 102.542 204.9C103.326 204.9 104.082 204.783 104.81 204.55C105.547 204.307 106.215 203.953 106.812 203.486L108.002 205.698C107.554 206.062 107.013 206.375 106.378 206.636C105.743 206.888 105.081 207.079 104.39 207.21C103.699 207.35 103.032 207.42 102.388 207.42ZM98.006 198.488H105.86C105.832 197.443 105.496 196.621 104.852 196.024C104.217 195.427 103.312 195.128 102.136 195.128C100.997 195.128 100.05 195.427 99.294 196.024C98.5473 196.621 98.118 197.443 98.006 198.488ZM111.579 207.238L110.501 204.466C111.453 204.223 112.149 203.841 112.587 203.318C113.035 202.795 113.315 202.067 113.427 201.134C113.549 200.201 113.609 198.997 113.609 197.522V193.14H124.879V207H121.799V195.688H116.479V197.522C116.479 199.006 116.409 200.299 116.269 201.4C116.139 202.501 115.896 203.439 115.541 204.214C115.187 204.989 114.687 205.623 114.043 206.118C113.409 206.603 112.587 206.977 111.579 207.238ZM128.207 207L133.527 199.902L134.199 201.89C133.051 201.899 132.071 201.731 131.259 201.386C130.447 201.031 129.827 200.537 129.397 199.902C128.977 199.258 128.767 198.497 128.767 197.62C128.767 196.677 129.005 195.875 129.481 195.212C129.957 194.54 130.629 194.027 131.497 193.672C132.365 193.317 133.383 193.14 134.549 193.14H140.527V207H137.559V195.478H134.857C133.868 195.478 133.117 195.651 132.603 195.996C132.099 196.341 131.847 196.859 131.847 197.55C131.847 198.222 132.081 198.745 132.547 199.118C133.023 199.482 133.709 199.664 134.605 199.664H137.951V201.904H135.515L131.721 207H128.207ZM144.814 207V193.14H147.488H147.572L153.788 202.128L152.458 202.156L158.366 193.14H161.096V207H158.296L158.338 196.752L158.912 197.004L153.956 204.242H151.968L146.788 196.99L147.362 196.738L147.404 207H144.814Z" fill="#35237A"/>
</svg>
