<svg width="75" height="75" viewBox="0 0 75 75" fill="none" xmlns="http://www.w3.org/2000/svg">
<g filter="url(#filter0_d_830_3609)">
<rect x="11" y="7.38574" width="52.3857" height="52.3857" rx="15" fill="#7A66C9"/>
</g>
<path d="M27.2909 26.8859C27.2909 26.035 27.6289 25.219 28.2306 24.6173C28.8323 24.0156 29.6483 23.6776 30.4992 23.6776H31.9575C32.8047 23.6771 33.6173 23.3416 34.218 22.7443L35.2388 21.7234C35.5369 21.4236 35.8914 21.1857 36.2819 21.0233C36.6723 20.8609 37.091 20.7773 37.5138 20.7773C37.9366 20.7773 38.3553 20.8609 38.7457 21.0233C39.1362 21.1857 39.4906 21.4236 39.7888 21.7234L40.8096 22.7443C41.4105 23.3422 42.2242 23.6776 43.07 23.6776H44.5284C45.3793 23.6776 46.1953 24.0156 46.797 24.6173C47.3987 25.219 47.7367 26.035 47.7367 26.8859V28.3443C47.7367 29.1901 48.0721 30.0038 48.67 30.6047L49.6909 31.6255C49.9907 31.9237 50.2286 32.2781 50.391 32.6686C50.5534 33.059 50.637 33.4777 50.637 33.9005C50.637 34.3234 50.5534 34.742 50.391 35.1324C50.2286 35.5229 49.9907 35.8774 49.6909 36.1755L48.67 37.1963C48.0727 37.797 47.7372 38.6096 47.7367 39.4568V40.9151C47.7367 41.766 47.3987 42.582 46.797 43.1837C46.1953 43.7854 45.3793 44.1234 44.5284 44.1234H43.07C42.2229 44.1239 41.4103 44.4594 40.8096 45.0568L39.7888 46.0776C39.4906 46.3774 39.1362 46.6154 38.7457 46.7777C38.3553 46.9401 37.9366 47.0237 37.5138 47.0237C37.091 47.0237 36.6723 46.9401 36.2819 46.7777C35.8914 46.6154 35.5369 46.3774 35.2388 46.0776L34.218 45.0568C33.6173 44.4594 32.8047 44.1239 31.9575 44.1234H30.4992C29.6483 44.1234 28.8323 43.7854 28.2306 43.1837C27.6289 42.582 27.2909 41.766 27.2909 40.9151V39.4568C27.2904 38.6096 26.9549 37.797 26.3575 37.1963L25.3367 36.1755C25.0369 35.8774 24.7989 35.5229 24.6366 35.1324C24.4742 34.742 24.3906 34.3234 24.3906 33.9005C24.3906 33.4777 24.4742 33.059 24.6366 32.6686C24.7989 32.2781 25.0369 31.9237 25.3367 31.6255L26.3575 30.6047C26.9549 30.004 27.2904 29.1914 27.2909 28.3443V26.8859Z" stroke="white" stroke-width="2" stroke-linecap="round" stroke-linejoin="round"/>
<path d="M33.125 33.8864L36.0417 36.8031L41.875 30.9697" stroke="white" stroke-width="2" stroke-linecap="round" stroke-linejoin="round"/>
<defs>
<filter id="filter0_d_830_3609" x="0" y="0.385742" width="74.3867" height="74.3857" filterUnits="userSpaceOnUse" color-interpolation-filters="sRGB">
<feFlood flood-opacity="0" result="BackgroundImageFix"/>
<feColorMatrix in="SourceAlpha" type="matrix" values="0 0 0 0 0 0 0 0 0 0 0 0 0 0 0 0 0 0 127 0" result="hardAlpha"/>
<feOffset dy="4"/>
<feGaussianBlur stdDeviation="5.5"/>
<feColorMatrix type="matrix" values="0 0 0 0 0 0 0 0 0 0 0 0 0 0 0 0 0 0 0.06 0"/>
<feBlend mode="normal" in2="BackgroundImageFix" result="effect1_dropShadow_830_3609"/>
<feBlend mode="normal" in="SourceGraphic" in2="effect1_dropShadow_830_3609" result="shape"/>
</filter>
</defs>
</svg>
