<svg width="1180" height="570" viewBox="0 0 1180 570" fill="none" xmlns="http://www.w3.org/2000/svg">
<rect width="1180" height="570" rx="10" fill="white"/>
<path d="M188.858 148.5H146.051L146.108 140.52H151.751V117.15L160.301 108.6H183.101V140.52H188.858V148.5ZM163.151 140.52H171.701V112.59H163.151V140.52ZM191.707 148.5V108.6H216.844V112.59H203.107V116.01H212.113V123.99H203.107V140.52H217.129V148.5H191.707ZM219.973 148.5L220.03 140.52H225.673V117.15L234.223 108.6H257.023V148.5H245.623V112.59H237.073V148.5H219.973ZM274.134 148.5H262.734V108.6H274.134V131.97L282.684 114.87V108.6H294.084V148.5H282.684V125.13L274.134 142.23V148.5ZM296.957 108.6H328.307V112.59H318.332V148.5H306.932V112.59H296.957V108.6ZM331.145 148.5V108.6H356.282V112.59H342.545V116.01H351.551V123.99H342.545V140.52H356.567V148.5H331.145ZM362.262 148.5V108.6H387.399V112.59H373.662V140.52H387.684V148.5H362.262ZM393.378 148.5V108.6H404.664V117.15H416.178L424.728 125.7V148.5H393.378ZM413.328 125.13H404.778V140.52H413.328V125.13ZM441.861 148.5V108.6H473.211V131.4L464.661 139.95H453.261V148.5H441.861ZM453.261 131.97H461.811V112.59H453.261V131.97ZM478.933 148.5V108.6H504.07V112.59H490.333V116.01H499.339V123.99H490.333V140.52H504.355V148.5H478.933ZM510.05 148.5V108.6H535.187V112.59H521.45V140.52H535.472V148.5H510.05ZM549.716 139.95L541.166 131.4V108.6H552.566V131.97H561.116V108.6H572.516V148.5H549.716V144.51H561.116V139.95H549.716ZM578.238 148.5V108.6H609.588V131.4L601.038 139.95H589.638V148.5H578.238ZM589.638 131.97H598.188V112.59H589.638V131.97ZM615.31 148.5V108.6H640.447V112.59H626.71V140.52H640.732V148.5H615.31ZM646.427 148.5V117.15L654.977 108.6H677.777V148.5H666.377V141.09H657.827V148.5H646.427ZM666.377 112.59H657.827V133.11H666.377V112.59ZM683.499 108.6H703.449V112.59H714.849V108.6H734.799V148.5H723.399V116.58H714.849V148.5H703.449V116.58H694.899V148.5H683.499V108.6ZM751.899 148.5H740.499V108.6H751.899V131.97L760.449 114.87V108.6H771.849V148.5H760.449V125.13L751.899 142.23V148.5ZM800.382 148.5H788.982V108.6H800.382V131.97L808.932 114.87V108.6H820.332V148.5H808.932V125.13L800.382 142.23V148.5ZM837.466 148.5V108.6H862.603V112.59H848.866V140.52H862.888V148.5H837.466ZM868.582 108.6H891.382V117.15L899.932 125.7V148.5H868.582V108.6ZM879.982 125.13V140.52H888.532V125.13H879.982ZM883.402 112.59H879.868V117.15H883.402V112.59ZM905.654 148.5V108.6H937.004V148.5H905.654ZM917.054 140.52H925.604V112.59H917.054V140.52ZM954.126 148.5H942.726V108.6H954.126V131.97L962.676 114.87V108.6H974.076V148.5H962.676V125.13L954.126 142.23V148.5ZM979.799 108.6H999.749V112.59H1011.15V108.6H1031.1V148.5H1019.7V116.58H1011.15V148.5H999.749V116.58H991.199V148.5H979.799V108.6ZM266.492 211.5V171.6H297.842V211.5H266.492ZM277.892 203.52H286.442V175.59H277.892V203.52ZM314.964 211.5H303.564V171.6H334.914V211.5H323.514V175.59H314.964V211.5ZM340.636 211.5V171.6H351.922V180.15H363.436L371.986 188.7V211.5H340.636ZM387.376 211.5H375.976V171.6H387.376V211.5ZM352.036 203.52H360.586V188.13H352.036V203.52ZM390.222 171.6H421.572V175.59H411.597V211.5H400.197V175.59H390.222V171.6ZM424.411 211.5V171.6H455.761V211.5H424.411ZM435.811 203.52H444.361V175.59H435.811V203.52ZM461.483 171.6H481.433V175.59H492.833V171.6H512.783V211.5H501.383V179.58H492.833V211.5H481.433V179.58H472.883V211.5H461.483V171.6ZM529.894 211.5V171.6H555.031V175.59H541.294V203.52H555.316V211.5H529.894ZM572.421 211.5V171.6H583.821V194.97H592.371V171.6H603.771V194.4L595.221 202.95H583.821V211.5H572.421ZM606.621 211.5H595.221L595.278 203.52H606.678L606.621 211.5ZM608.937 211.5V171.6H640.287V211.5H608.937ZM620.337 203.52H628.887V175.59H620.337V203.52ZM643.159 211.5L643.216 203.52H648.859V180.15L657.409 171.6H680.209V211.5H668.809V175.59H660.259V211.5H643.159ZM683.07 211.5L683.127 203.52H688.77V180.15L697.32 171.6H720.12V211.5H708.72V175.59H700.17V211.5H683.07ZM725.831 211.5V171.6H750.968V175.59H737.231V179.01H746.237V186.99H737.231V203.52H751.253V211.5H725.831ZM768.348 211.5H756.948V171.6H782.37V175.59H768.348V211.5ZM788.064 211.5V180.15L796.614 171.6H819.414V211.5H808.014V204.09H799.464V211.5H788.064ZM808.014 175.59H799.464V196.11H808.014V175.59ZM825.136 171.6H845.086V175.59H856.486V171.6H876.436V211.5H865.036V179.58H856.486V211.5H845.086V179.58H836.536V211.5H825.136V171.6ZM893.536 211.5H882.136V171.6H893.536V194.97L902.086 177.87V171.6H913.486V211.5H902.086V188.13L893.536 205.23V211.5Z" fill="#200E49"/>
<path d="M198.865 305.8C197.418 305.8 196.151 305.5 195.065 304.9C193.985 304.293 193.145 303.443 192.545 302.35C191.951 301.25 191.655 299.967 191.655 298.5C191.655 297.44 191.831 296.467 192.185 295.58C192.538 294.687 193.038 293.913 193.685 293.26C194.331 292.607 195.095 292.1 195.975 291.74C196.861 291.38 197.828 291.2 198.875 291.2C199.908 291.2 200.811 291.33 201.585 291.59C202.358 291.843 203.025 292.207 203.585 292.68L202.585 294.22C202.131 293.813 201.605 293.51 201.005 293.31C200.405 293.11 199.741 293.01 199.015 293.01C198.195 293.01 197.451 293.137 196.785 293.39C196.118 293.643 195.548 294.01 195.075 294.49C194.608 294.963 194.248 295.537 193.995 296.21C193.741 296.883 193.615 297.64 193.615 298.48C193.615 299.64 193.838 300.63 194.285 301.45C194.738 302.27 195.378 302.897 196.205 303.33C197.031 303.757 198.008 303.97 199.135 303.97C199.861 303.97 200.558 303.863 201.225 303.65C201.898 303.43 202.528 303.073 203.115 302.58L203.995 304.18C203.308 304.72 202.538 305.127 201.685 305.4C200.838 305.667 199.898 305.8 198.865 305.8ZM217.56 304.53L214.29 300.44L217.56 296.36L218.73 297.2L216.14 300.44L218.73 303.68L217.56 304.53ZM213.41 304.53L210.14 300.44L213.41 296.36L214.58 297.2L211.99 300.44L214.58 303.68L213.41 304.53ZM221.944 305.72L221.154 303.98C221.894 303.793 222.567 303.513 223.174 303.14C223.787 302.767 224.35 302.277 224.864 301.67C225.377 301.063 225.847 300.32 226.274 299.44L230.184 291.5H232.354L228.084 299.89C227.637 300.777 227.184 301.55 226.724 302.21C226.27 302.87 225.797 303.433 225.304 303.9C224.817 304.36 224.297 304.74 223.744 305.04C223.19 305.333 222.59 305.56 221.944 305.72ZM226.064 300.92L220.754 291.5H223.054L227.314 299.22L226.064 300.92ZM239.344 305.5V301.52C238.864 301.647 238.41 301.74 237.984 301.8C237.557 301.86 237.104 301.89 236.624 301.89C235.724 301.89 234.977 301.757 234.384 301.49C233.79 301.217 233.347 300.81 233.054 300.27C232.767 299.73 232.624 299.06 232.624 298.26V295.7H234.464V297.99C234.464 298.737 234.647 299.303 235.014 299.69C235.38 300.077 236.007 300.27 236.894 300.27C237.4 300.27 237.847 300.247 238.234 300.2C238.62 300.153 238.99 300.093 239.344 300.02V295.7H241.184V305.5H239.344ZM244.363 305.5V295.7H246.153V302.74L251.853 295.7H253.433V305.5H251.643V298.38L245.893 305.5H244.363ZM258.88 305.5V297.26H255.52V295.7H264.09V297.26H260.72V305.5H258.88ZM270.59 305.8C269.55 305.8 268.633 305.583 267.84 305.15C267.047 304.717 266.427 304.113 265.98 303.34C265.533 302.56 265.31 301.653 265.31 300.62C265.31 299.873 265.437 299.18 265.69 298.54C265.95 297.9 266.31 297.347 266.77 296.88C267.237 296.413 267.78 296.05 268.4 295.79C269.027 295.53 269.707 295.4 270.44 295.4C271.233 295.4 271.94 295.54 272.56 295.82C273.187 296.1 273.703 296.493 274.11 297C274.523 297.5 274.82 298.09 275 298.77C275.18 299.443 275.217 300.177 275.11 300.97H267.13C267.11 301.623 267.243 302.197 267.53 302.69C267.817 303.177 268.23 303.557 268.77 303.83C269.317 304.103 269.963 304.24 270.71 304.24C271.257 304.24 271.79 304.153 272.31 303.98C272.83 303.807 273.29 303.55 273.69 303.21L274.47 304.58C274.15 304.84 273.77 305.063 273.33 305.25C272.897 305.43 272.443 305.567 271.97 305.66C271.497 305.753 271.037 305.8 270.59 305.8ZM267.23 299.54H273.27C273.243 298.713 272.987 298.07 272.5 297.61C272.013 297.143 271.317 296.91 270.41 296.91C269.53 296.91 268.803 297.143 268.23 297.61C267.657 298.07 267.323 298.713 267.23 299.54ZM277.008 305.65L276.328 303.96C277.015 303.787 277.515 303.51 277.828 303.13C278.142 302.743 278.342 302.2 278.428 301.5C278.515 300.8 278.558 299.89 278.558 298.77V295.7H286.288V305.5H284.448V297.26H280.298V298.77C280.298 299.837 280.252 300.763 280.158 301.55C280.072 302.33 279.908 302.99 279.668 303.53C279.435 304.07 279.102 304.513 278.668 304.86C278.242 305.2 277.688 305.463 277.008 305.65ZM289.461 305.5V295.7H291.301V304.04H293.361C294.154 304.04 294.748 303.893 295.141 303.6C295.541 303.3 295.741 302.85 295.741 302.25C295.741 301.663 295.554 301.213 295.181 300.9C294.814 300.587 294.268 300.43 293.541 300.43H291.011V298.98H293.671C294.911 298.98 295.884 299.263 296.591 299.83C297.304 300.39 297.661 301.197 297.661 302.25C297.661 302.937 297.488 303.523 297.141 304.01C296.794 304.49 296.311 304.86 295.691 305.12C295.071 305.373 294.348 305.5 293.521 305.5H289.461ZM300.357 305.5V291.5H305.247C306.227 291.5 307.09 291.667 307.837 292C308.583 292.333 309.167 292.817 309.587 293.45C310.013 294.077 310.227 294.83 310.227 295.71C310.227 296.61 310.03 297.37 309.637 297.99C309.243 298.61 308.673 299.083 307.927 299.41C307.18 299.73 306.273 299.89 305.207 299.89H302.237V305.5H300.357ZM302.237 298.24H305.267C306.247 298.24 307.003 298.033 307.537 297.62C308.077 297.207 308.347 296.583 308.347 295.75C308.347 294.937 308.07 294.303 307.517 293.85C306.97 293.397 306.227 293.17 305.287 293.17H302.237V298.24ZM312.876 305.5V291.5H318.036C318.983 291.5 319.799 291.667 320.486 292C321.179 292.333 321.713 292.81 322.086 293.43C322.466 294.043 322.656 294.767 322.656 295.6C322.656 296.3 322.503 296.92 322.196 297.46C321.889 297.993 321.456 298.43 320.896 298.77C320.336 299.11 319.683 299.337 318.936 299.45L323.306 305.5H321.006L316.886 299.69H314.756V305.5H312.876ZM314.756 298.08H317.676C318.649 298.08 319.406 297.87 319.946 297.45C320.493 297.03 320.766 296.437 320.766 295.67C320.766 294.883 320.526 294.263 320.046 293.81C319.566 293.357 318.839 293.13 317.866 293.13H314.756V298.08ZM332.285 305.8C331.239 305.8 330.269 305.617 329.375 305.25C328.489 304.877 327.712 304.36 327.045 303.7C326.385 303.04 325.872 302.267 325.505 301.38C325.139 300.493 324.955 299.533 324.955 298.5C324.955 297.46 325.139 296.497 325.505 295.61C325.872 294.723 326.385 293.95 327.045 293.29C327.712 292.63 328.489 292.117 329.375 291.75C330.269 291.383 331.239 291.2 332.285 291.2C333.325 291.2 334.289 291.387 335.175 291.76C336.062 292.133 336.839 292.653 337.505 293.32C338.172 293.987 338.689 294.763 339.055 295.65C339.429 296.53 339.615 297.48 339.615 298.5C339.615 299.533 339.429 300.493 339.055 301.38C338.689 302.267 338.172 303.04 337.505 303.7C336.839 304.36 336.062 304.877 335.175 305.25C334.289 305.617 333.325 305.8 332.285 305.8ZM332.285 304.01C333.039 304.01 333.739 303.88 334.385 303.62C335.039 303.36 335.609 302.99 336.095 302.51C336.582 302.023 336.962 301.44 337.235 300.76C337.515 300.08 337.655 299.327 337.655 298.5C337.655 297.387 337.415 296.417 336.935 295.59C336.462 294.763 335.819 294.123 335.005 293.67C334.192 293.21 333.285 292.98 332.285 292.98C331.532 292.98 330.829 293.113 330.175 293.38C329.529 293.64 328.959 294.013 328.465 294.5C327.979 294.98 327.599 295.56 327.325 296.24C327.052 296.913 326.915 297.667 326.915 298.5C326.915 299.607 327.152 300.573 327.625 301.4C328.105 302.227 328.752 302.87 329.565 303.33C330.379 303.783 331.285 304.01 332.285 304.01ZM347.055 304.52L345.885 303.68L348.475 300.44L345.885 297.2L347.055 296.36L350.325 300.44L347.055 304.52ZM342.905 304.52L341.735 303.68L344.325 300.44L341.735 297.2L342.905 296.36L346.175 300.44L342.905 304.52ZM362.189 305.8C361.362 305.8 360.619 305.66 359.959 305.38C359.299 305.1 358.736 304.69 358.269 304.15C357.809 303.61 357.456 302.95 357.209 302.17C356.969 301.39 356.849 300.5 356.849 299.5C356.849 298.407 356.929 297.423 357.089 296.55C357.249 295.677 357.509 294.92 357.869 294.28C358.229 293.633 358.702 293.103 359.289 292.69C359.882 292.27 360.609 291.97 361.469 291.79L366.159 290.8L366.479 292.44L361.919 293.37C361.106 293.55 360.469 293.837 360.009 294.23C359.549 294.617 359.212 295.107 358.999 295.7C358.786 296.293 358.646 296.987 358.579 297.78C358.999 297.16 359.532 296.663 360.179 296.29C360.832 295.91 361.599 295.72 362.479 295.72C363.426 295.72 364.256 295.947 364.969 296.4C365.689 296.847 366.252 297.447 366.659 298.2C367.066 298.947 367.269 299.773 367.269 300.68C367.269 301.38 367.149 302.04 366.909 302.66C366.669 303.28 366.322 303.827 365.869 304.3C365.416 304.767 364.879 305.133 364.259 305.4C363.639 305.667 362.949 305.8 362.189 305.8ZM362.139 304.14C362.766 304.14 363.326 304 363.819 303.72C364.312 303.433 364.699 303.033 364.979 302.52C365.259 302.007 365.399 301.4 365.399 300.7C365.399 299.993 365.259 299.383 364.979 298.87C364.699 298.357 364.312 297.96 363.819 297.68C363.332 297.4 362.772 297.26 362.139 297.26C361.506 297.26 360.942 297.4 360.449 297.68C359.956 297.96 359.569 298.357 359.289 298.87C359.009 299.383 358.869 299.993 358.869 300.7C358.869 301.4 359.009 302.007 359.289 302.52C359.569 303.033 359.956 303.433 360.449 303.72C360.942 304 361.506 304.14 362.139 304.14ZM374.164 305.8C373.15 305.8 372.247 305.563 371.454 305.09C370.66 304.617 370.037 303.987 369.584 303.2C369.13 302.413 368.904 301.547 368.904 300.6C368.904 299.9 369.034 299.237 369.294 298.61C369.554 297.983 369.92 297.43 370.394 296.95C370.867 296.463 371.424 296.083 372.064 295.81C372.704 295.537 373.404 295.4 374.164 295.4C375.184 295.4 376.09 295.637 376.884 296.11C377.677 296.583 378.3 297.213 378.754 298C379.207 298.787 379.434 299.653 379.434 300.6C379.434 301.3 379.304 301.963 379.044 302.59C378.784 303.217 378.417 303.77 377.944 304.25C377.47 304.73 376.914 305.11 376.274 305.39C375.634 305.663 374.93 305.8 374.164 305.8ZM374.164 304.14C374.824 304.14 375.407 303.997 375.914 303.71C376.427 303.417 376.83 303.007 377.124 302.48C377.417 301.947 377.564 301.32 377.564 300.6C377.564 299.873 377.417 299.247 377.124 298.72C376.837 298.187 376.437 297.777 375.924 297.49C375.41 297.203 374.824 297.06 374.164 297.06C373.504 297.06 372.917 297.203 372.404 297.49C371.897 297.777 371.497 298.187 371.204 298.72C370.917 299.247 370.774 299.873 370.774 300.6C370.774 301.32 370.917 301.947 371.204 302.48C371.497 303.007 371.9 303.417 372.414 303.71C372.927 303.997 373.51 304.14 374.164 304.14ZM381.266 305.65L380.586 303.96C381.273 303.787 381.773 303.51 382.086 303.13C382.4 302.743 382.6 302.2 382.686 301.5C382.773 300.8 382.816 299.89 382.816 298.77V295.7H390.546V305.5H388.706V297.26H384.556V298.77C384.556 299.837 384.51 300.763 384.416 301.55C384.33 302.33 384.166 302.99 383.926 303.53C383.693 304.07 383.36 304.513 382.926 304.86C382.5 305.2 381.946 305.463 381.266 305.65ZM393.719 305.5V295.7H395.559V304.04H397.619C398.412 304.04 399.006 303.893 399.399 303.6C399.799 303.3 399.999 302.85 399.999 302.25C399.999 301.663 399.812 301.213 399.439 300.9C399.072 300.587 398.526 300.43 397.799 300.43H395.269V298.98H397.929C399.169 298.98 400.142 299.263 400.849 299.83C401.562 300.39 401.919 301.197 401.919 302.25C401.919 302.937 401.746 303.523 401.399 304.01C401.052 304.49 400.569 304.86 399.949 305.12C399.329 305.373 398.606 305.5 397.779 305.5H393.719ZM404.324 305.5V295.7H406.114V303.94H410.624V295.7H412.414V303.94H416.924V295.7H418.714V305.5H404.324ZM426.313 305.8C425.273 305.8 424.356 305.583 423.563 305.15C422.769 304.717 422.149 304.113 421.703 303.34C421.256 302.56 421.033 301.653 421.033 300.62C421.033 299.873 421.159 299.18 421.413 298.54C421.673 297.9 422.033 297.347 422.493 296.88C422.959 296.413 423.503 296.05 424.123 295.79C424.749 295.53 425.429 295.4 426.163 295.4C426.956 295.4 427.663 295.54 428.283 295.82C428.909 296.1 429.426 296.493 429.833 297C430.246 297.5 430.543 298.09 430.723 298.77C430.903 299.443 430.939 300.177 430.833 300.97H422.853C422.833 301.623 422.966 302.197 423.252 302.69C423.539 303.177 423.953 303.557 424.493 303.83C425.039 304.103 425.686 304.24 426.433 304.24C426.979 304.24 427.513 304.153 428.033 303.98C428.553 303.807 429.013 303.55 429.413 303.21L430.193 304.58C429.873 304.84 429.493 305.063 429.053 305.25C428.619 305.43 428.166 305.567 427.693 305.66C427.219 305.753 426.759 305.8 426.313 305.8ZM422.952 299.54H428.993C428.966 298.713 428.709 298.07 428.223 297.61C427.736 297.143 427.039 296.91 426.133 296.91C425.253 296.91 424.526 297.143 423.953 297.61C423.379 298.07 423.046 298.713 422.952 299.54ZM442.651 305.8C441.618 305.8 440.701 305.573 439.901 305.12C439.101 304.667 438.474 304.05 438.021 303.27C437.568 302.483 437.341 301.593 437.341 300.6C437.341 299.847 437.474 299.153 437.741 298.52C438.014 297.887 438.398 297.337 438.891 296.87C439.384 296.403 439.961 296.043 440.621 295.79C441.288 295.53 442.014 295.4 442.801 295.4C443.441 295.4 444.031 295.483 444.571 295.65C445.111 295.817 445.611 296.073 446.071 296.42L445.131 297.84C444.831 297.58 444.481 297.387 444.081 297.26C443.681 297.127 443.258 297.06 442.811 297.06C442.078 297.06 441.441 297.2 440.901 297.48C440.368 297.753 439.954 298.153 439.661 298.68C439.368 299.207 439.221 299.84 439.221 300.58C439.221 301.693 439.541 302.567 440.181 303.2C440.828 303.827 441.701 304.14 442.801 304.14C443.308 304.14 443.781 304.05 444.221 303.87C444.661 303.683 445.021 303.443 445.301 303.15L446.251 304.55C445.738 304.937 445.174 305.243 444.561 305.47C443.948 305.69 443.311 305.8 442.651 305.8ZM448.387 305.5V295.7H452.887C453.98 295.7 454.86 295.913 455.527 296.34C456.2 296.767 456.537 297.4 456.537 298.24C456.537 298.613 456.45 298.95 456.277 299.25C456.104 299.55 455.857 299.807 455.537 300.02C455.217 300.227 454.84 300.38 454.407 300.48L454.377 300.08C455.21 300.213 455.847 300.507 456.287 300.96C456.734 301.407 456.957 301.967 456.957 302.64C456.957 303.233 456.8 303.743 456.487 304.17C456.18 304.597 455.74 304.927 455.167 305.16C454.594 305.387 453.91 305.5 453.117 305.5H448.387ZM450.177 304.07H452.867C453.587 304.07 454.144 303.95 454.537 303.71C454.937 303.47 455.137 303.11 455.137 302.63C455.137 302.15 454.94 301.793 454.547 301.56C454.154 301.32 453.594 301.2 452.867 301.2H449.897V299.81H452.637C453.317 299.81 453.844 299.707 454.217 299.5C454.59 299.293 454.777 298.95 454.777 298.47C454.777 297.997 454.59 297.657 454.217 297.45C453.85 297.237 453.324 297.13 452.637 297.13H450.177V304.07ZM463.968 305.8C462.955 305.8 462.052 305.563 461.258 305.09C460.465 304.617 459.842 303.987 459.388 303.2C458.935 302.413 458.708 301.547 458.708 300.6C458.708 299.9 458.838 299.237 459.098 298.61C459.358 297.983 459.725 297.43 460.198 296.95C460.672 296.463 461.228 296.083 461.868 295.81C462.508 295.537 463.208 295.4 463.968 295.4C464.988 295.4 465.895 295.637 466.688 296.11C467.482 296.583 468.105 297.213 468.558 298C469.012 298.787 469.238 299.653 469.238 300.6C469.238 301.3 469.108 301.963 468.848 302.59C468.588 303.217 468.222 303.77 467.748 304.25C467.275 304.73 466.718 305.11 466.078 305.39C465.438 305.663 464.735 305.8 463.968 305.8ZM463.968 304.14C464.628 304.14 465.212 303.997 465.718 303.71C466.232 303.417 466.635 303.007 466.928 302.48C467.222 301.947 467.368 301.32 467.368 300.6C467.368 299.873 467.222 299.247 466.928 298.72C466.642 298.187 466.242 297.777 465.728 297.49C465.215 297.203 464.628 297.06 463.968 297.06C463.308 297.06 462.722 297.203 462.208 297.49C461.702 297.777 461.302 298.187 461.008 298.72C460.722 299.247 460.578 299.873 460.578 300.6C460.578 301.32 460.722 301.947 461.008 302.48C461.302 303.007 461.705 303.417 462.218 303.71C462.732 303.997 463.315 304.14 463.968 304.14ZM476.271 305.8C475.444 305.8 474.701 305.66 474.041 305.38C473.381 305.1 472.818 304.69 472.351 304.15C471.891 303.61 471.538 302.95 471.291 302.17C471.051 301.39 470.931 300.5 470.931 299.5C470.931 298.407 471.011 297.423 471.171 296.55C471.331 295.677 471.591 294.92 471.951 294.28C472.311 293.633 472.784 293.103 473.371 292.69C473.964 292.27 474.691 291.97 475.551 291.79L480.241 290.8L480.561 292.44L476.001 293.37C475.188 293.55 474.551 293.837 474.091 294.23C473.631 294.617 473.294 295.107 473.081 295.7C472.868 296.293 472.728 296.987 472.661 297.78C473.081 297.16 473.614 296.663 474.261 296.29C474.914 295.91 475.681 295.72 476.561 295.72C477.508 295.72 478.338 295.947 479.051 296.4C479.771 296.847 480.334 297.447 480.741 298.2C481.148 298.947 481.351 299.773 481.351 300.68C481.351 301.38 481.231 302.04 480.991 302.66C480.751 303.28 480.404 303.827 479.951 304.3C479.498 304.767 478.961 305.133 478.341 305.4C477.721 305.667 477.031 305.8 476.271 305.8ZM476.221 304.14C476.848 304.14 477.408 304 477.901 303.72C478.394 303.433 478.781 303.033 479.061 302.52C479.341 302.007 479.481 301.4 479.481 300.7C479.481 299.993 479.341 299.383 479.061 298.87C478.781 298.357 478.394 297.96 477.901 297.68C477.414 297.4 476.854 297.26 476.221 297.26C475.588 297.26 475.024 297.4 474.531 297.68C474.038 297.96 473.651 298.357 473.371 298.87C473.091 299.383 472.951 299.993 472.951 300.7C472.951 301.4 473.091 302.007 473.371 302.52C473.651 303.033 474.038 303.433 474.531 303.72C475.024 304 475.588 304.14 476.221 304.14ZM488.246 305.8C487.232 305.8 486.329 305.563 485.536 305.09C484.742 304.617 484.119 303.987 483.666 303.2C483.212 302.413 482.986 301.547 482.986 300.6C482.986 299.9 483.116 299.237 483.376 298.61C483.636 297.983 484.002 297.43 484.476 296.95C484.949 296.463 485.506 296.083 486.146 295.81C486.786 295.537 487.486 295.4 488.246 295.4C489.266 295.4 490.172 295.637 490.966 296.11C491.759 296.583 492.382 297.213 492.836 298C493.289 298.787 493.516 299.653 493.516 300.6C493.516 301.3 493.386 301.963 493.126 302.59C492.866 303.217 492.499 303.77 492.026 304.25C491.552 304.73 490.996 305.11 490.356 305.39C489.716 305.663 489.012 305.8 488.246 305.8ZM488.246 304.14C488.906 304.14 489.489 303.997 489.996 303.71C490.509 303.417 490.912 303.007 491.206 302.48C491.499 301.947 491.646 301.32 491.646 300.6C491.646 299.873 491.499 299.247 491.206 298.72C490.919 298.187 490.519 297.777 490.006 297.49C489.492 297.203 488.906 297.06 488.246 297.06C487.586 297.06 486.999 297.203 486.486 297.49C485.979 297.777 485.579 298.187 485.286 298.72C484.999 299.247 484.856 299.873 484.856 300.6C484.856 301.32 484.999 301.947 485.286 302.48C485.579 303.007 485.982 303.417 486.496 303.71C487.009 303.997 487.592 304.14 488.246 304.14ZM503.028 305.5V297.26H498.678V298.77C498.678 299.71 498.628 300.547 498.528 301.28C498.428 302.007 498.252 302.637 497.998 303.17C497.745 303.697 497.388 304.13 496.928 304.47C496.475 304.81 495.892 305.06 495.178 305.22L494.658 304.01C495.305 303.843 495.788 303.553 496.108 303.14C496.435 302.72 496.655 302.153 496.768 301.44C496.882 300.72 496.938 299.83 496.938 298.77V295.7H504.868V305.5H503.028ZM494.658 308.5V304.01L495.908 304.14L496.188 303.94H506.848V308.5H505.158V305.5H496.348V308.5H494.658ZM508.895 305.5V295.7H510.735V299.56H516.045V295.7H517.885V305.5H516.045V301.12H510.735V305.5H508.895ZM525.453 305.8C524.439 305.8 523.536 305.563 522.743 305.09C521.949 304.617 521.326 303.987 520.873 303.2C520.419 302.413 520.193 301.547 520.193 300.6C520.193 299.9 520.323 299.237 520.583 298.61C520.843 297.983 521.209 297.43 521.683 296.95C522.156 296.463 522.713 296.083 523.353 295.81C523.993 295.537 524.693 295.4 525.453 295.4C526.473 295.4 527.379 295.637 528.173 296.11C528.966 296.583 529.589 297.213 530.043 298C530.496 298.787 530.723 299.653 530.723 300.6C530.723 301.3 530.593 301.963 530.333 302.59C530.073 303.217 529.706 303.77 529.233 304.25C528.759 304.73 528.203 305.11 527.563 305.39C526.923 305.663 526.219 305.8 525.453 305.8ZM525.453 304.14C526.113 304.14 526.696 303.997 527.203 303.71C527.716 303.417 528.119 303.007 528.413 302.48C528.706 301.947 528.853 301.32 528.853 300.6C528.853 299.873 528.706 299.247 528.413 298.72C528.126 298.187 527.726 297.777 527.213 297.49C526.699 297.203 526.113 297.06 525.453 297.06C524.793 297.06 524.206 297.203 523.693 297.49C523.186 297.777 522.786 298.187 522.493 298.72C522.206 299.247 522.063 299.873 522.063 300.6C522.063 301.32 522.206 301.947 522.493 302.48C522.786 303.007 523.189 303.417 523.703 303.71C524.216 303.997 524.799 304.14 525.453 304.14ZM533.035 305.5V295.7H539.385V297.26H534.875V305.5H533.035ZM545.902 305.8C544.889 305.8 543.985 305.563 543.192 305.09C542.399 304.617 541.775 303.987 541.322 303.2C540.869 302.413 540.642 301.547 540.642 300.6C540.642 299.9 540.772 299.237 541.032 298.61C541.292 297.983 541.659 297.43 542.132 296.95C542.605 296.463 543.162 296.083 543.802 295.81C544.442 295.537 545.142 295.4 545.902 295.4C546.922 295.4 547.829 295.637 548.622 296.11C549.415 296.583 550.039 297.213 550.492 298C550.945 298.787 551.172 299.653 551.172 300.6C551.172 301.3 551.042 301.963 550.782 302.59C550.522 303.217 550.155 303.77 549.682 304.25C549.209 304.73 548.652 305.11 548.012 305.39C547.372 305.663 546.669 305.8 545.902 305.8ZM545.902 304.14C546.562 304.14 547.145 303.997 547.652 303.71C548.165 303.417 548.569 303.007 548.862 302.48C549.155 301.947 549.302 301.32 549.302 300.6C549.302 299.873 549.155 299.247 548.862 298.72C548.575 298.187 548.175 297.777 547.662 297.49C547.149 297.203 546.562 297.06 545.902 297.06C545.242 297.06 544.655 297.203 544.142 297.49C543.635 297.777 543.235 298.187 542.942 298.72C542.655 299.247 542.512 299.873 542.512 300.6C542.512 301.32 542.655 301.947 542.942 302.48C543.235 303.007 543.639 303.417 544.152 303.71C544.665 303.997 545.249 304.14 545.902 304.14ZM558.485 305.5V295.7H562.985C564.078 295.7 564.958 295.913 565.625 296.34C566.298 296.767 566.635 297.4 566.635 298.24C566.635 298.613 566.548 298.95 566.375 299.25C566.201 299.55 565.955 299.807 565.635 300.02C565.315 300.227 564.938 300.38 564.505 300.48L564.475 300.08C565.308 300.213 565.945 300.507 566.385 300.96C566.831 301.407 567.055 301.967 567.055 302.64C567.055 303.233 566.898 303.743 566.585 304.17C566.278 304.597 565.838 304.927 565.265 305.16C564.691 305.387 564.008 305.5 563.215 305.5H558.485ZM560.275 304.07H562.965C563.685 304.07 564.241 303.95 564.635 303.71C565.035 303.47 565.235 303.11 565.235 302.63C565.235 302.15 565.038 301.793 564.645 301.56C564.251 301.32 563.691 301.2 562.965 301.2H559.995V299.81H562.735C563.415 299.81 563.941 299.707 564.315 299.5C564.688 299.293 564.875 298.95 564.875 298.47C564.875 297.997 564.688 297.657 564.315 297.45C563.948 297.237 563.421 297.13 562.735 297.13H560.275V304.07ZM569.676 309.7V295.7H571.366V297.17C571.773 296.65 572.283 296.227 572.896 295.9C573.516 295.567 574.296 295.4 575.236 295.4C576.209 295.4 577.066 295.63 577.806 296.09C578.546 296.543 579.123 297.163 579.536 297.95C579.956 298.737 580.166 299.62 580.166 300.6C580.166 301.313 580.046 301.987 579.806 302.62C579.573 303.247 579.236 303.8 578.796 304.28C578.356 304.753 577.833 305.127 577.226 305.4C576.626 305.667 575.956 305.8 575.216 305.8C574.389 305.8 573.666 305.647 573.046 305.34C572.433 305.027 571.919 304.617 571.506 304.11V309.7H569.676ZM574.906 304.14C575.566 304.14 576.149 303.997 576.656 303.71C577.169 303.417 577.569 303.007 577.856 302.48C578.149 301.947 578.296 301.32 578.296 300.6C578.296 299.873 578.149 299.247 577.856 298.72C577.569 298.187 577.169 297.777 576.656 297.49C576.149 297.203 575.566 297.06 574.906 297.06C574.246 297.06 573.659 297.203 573.146 297.49C572.639 297.777 572.239 298.187 571.946 298.72C571.653 299.247 571.506 299.873 571.506 300.6C571.506 301.32 571.653 301.947 571.946 302.48C572.239 303.007 572.639 303.417 573.146 303.71C573.659 303.997 574.246 304.14 574.906 304.14ZM586.977 305.8C585.937 305.8 585.02 305.583 584.227 305.15C583.433 304.717 582.813 304.113 582.367 303.34C581.92 302.56 581.697 301.653 581.697 300.62C581.697 299.873 581.823 299.18 582.077 298.54C582.337 297.9 582.697 297.347 583.157 296.88C583.623 296.413 584.167 296.05 584.787 295.79C585.413 295.53 586.093 295.4 586.827 295.4C587.62 295.4 588.327 295.54 588.947 295.82C589.573 296.1 590.09 296.493 590.497 297C590.91 297.5 591.207 298.09 591.387 298.77C591.567 299.443 591.603 300.177 591.497 300.97H583.517C583.497 301.623 583.63 302.197 583.917 302.69C584.203 303.177 584.617 303.557 585.157 303.83C585.703 304.103 586.35 304.24 587.097 304.24C587.643 304.24 588.177 304.153 588.697 303.98C589.217 303.807 589.677 303.55 590.077 303.21L590.857 304.58C590.537 304.84 590.157 305.063 589.717 305.25C589.283 305.43 588.83 305.567 588.357 305.66C587.883 305.753 587.423 305.8 586.977 305.8ZM583.617 299.54H589.657C589.63 298.713 589.373 298.07 588.887 297.61C588.4 297.143 587.703 296.91 586.797 296.91C585.917 296.91 585.19 297.143 584.617 297.61C584.043 298.07 583.71 298.713 583.617 299.54ZM593.875 305.5V295.7H595.485H595.545L600.085 302.16L599.285 302.18L603.625 295.7H605.275V305.5H603.565L603.585 297.95L603.925 298.1L600.205 303.44H598.955L595.085 298.08L595.415 297.93L595.435 305.5H593.875ZM612.855 305.8C611.815 305.8 610.899 305.583 610.105 305.15C609.312 304.717 608.692 304.113 608.245 303.34C607.799 302.56 607.575 301.653 607.575 300.62C607.575 299.873 607.702 299.18 607.955 298.54C608.215 297.9 608.575 297.347 609.035 296.88C609.502 296.413 610.045 296.05 610.665 295.79C611.292 295.53 611.972 295.4 612.705 295.4C613.499 295.4 614.205 295.54 614.825 295.82C615.452 296.1 615.969 296.493 616.375 297C616.789 297.5 617.085 298.09 617.265 298.77C617.445 299.443 617.482 300.177 617.375 300.97H609.395C609.375 301.623 609.509 302.197 609.795 302.69C610.082 303.177 610.495 303.557 611.035 303.83C611.582 304.103 612.229 304.24 612.975 304.24C613.522 304.24 614.055 304.153 614.575 303.98C615.095 303.807 615.555 303.55 615.955 303.21L616.735 304.58C616.415 304.84 616.035 305.063 615.595 305.25C615.162 305.43 614.709 305.567 614.235 305.66C613.762 305.753 613.302 305.8 612.855 305.8ZM609.495 299.54H615.535C615.509 298.713 615.252 298.07 614.765 297.61C614.279 297.143 613.582 296.91 612.675 296.91C611.795 296.91 611.069 297.143 610.495 297.61C609.922 298.07 609.589 298.713 609.495 299.54ZM619.754 305.5V295.7H621.594V299.56H626.904V295.7H628.744V305.5H626.904V301.12H621.594V305.5H619.754ZM631.922 305.5V295.7H633.712V302.74L639.412 295.7H640.992V305.5H639.202V298.38L633.452 305.5H631.922ZM644.018 308.33L643.308 307.42C643.781 307.18 644.198 306.9 644.558 306.58C644.918 306.26 645.155 305.947 645.268 305.64C645.001 305.653 644.755 305.61 644.528 305.51C644.308 305.417 644.131 305.277 643.998 305.09C643.871 304.897 643.808 304.673 643.808 304.42C643.808 304.04 643.935 303.73 644.188 303.49C644.448 303.243 644.771 303.12 645.158 303.12C645.605 303.12 645.961 303.27 646.228 303.57C646.501 303.863 646.638 304.273 646.638 304.8C646.638 305.193 646.538 305.597 646.338 306.01C646.145 306.43 645.855 306.837 645.468 307.23C645.081 307.623 644.598 307.99 644.018 308.33ZM654.422 305.5V295.7H656.212V302.74L661.912 295.7H663.492V305.5H661.702V298.38L655.952 305.5H654.422ZM673.868 305.5V297.26H669.518V298.77C669.518 299.71 669.468 300.547 669.368 301.28C669.268 302.007 669.091 302.637 668.838 303.17C668.585 303.697 668.228 304.13 667.768 304.47C667.315 304.81 666.731 305.06 666.018 305.22L665.498 304.01C666.145 303.843 666.628 303.553 666.948 303.14C667.275 302.72 667.495 302.153 667.608 301.44C667.721 300.72 667.778 299.83 667.778 298.77V295.7H675.708V305.5H673.868ZM665.498 308.5V304.01L666.748 304.14L667.028 303.94H677.688V308.5H675.998V305.5H667.188V308.5H665.498ZM683.969 305.8C682.929 305.8 682.012 305.583 681.219 305.15C680.425 304.717 679.805 304.113 679.359 303.34C678.912 302.56 678.689 301.653 678.689 300.62C678.689 299.873 678.815 299.18 679.069 298.54C679.329 297.9 679.689 297.347 680.149 296.88C680.615 296.413 681.159 296.05 681.779 295.79C682.405 295.53 683.085 295.4 683.819 295.4C684.612 295.4 685.319 295.54 685.939 295.82C686.565 296.1 687.082 296.493 687.489 297C687.902 297.5 688.199 298.09 688.379 298.77C688.559 299.443 688.595 300.177 688.489 300.97H680.509C680.489 301.623 680.622 302.197 680.909 302.69C681.195 303.177 681.609 303.557 682.149 303.83C682.695 304.103 683.342 304.24 684.089 304.24C684.635 304.24 685.169 304.153 685.689 303.98C686.209 303.807 686.669 303.55 687.069 303.21L687.849 304.58C687.529 304.84 687.149 305.063 686.709 305.25C686.275 305.43 685.822 305.567 685.349 305.66C684.875 305.753 684.415 305.8 683.969 305.8ZM680.609 299.54H686.649C686.622 298.713 686.365 298.07 685.879 297.61C685.392 297.143 684.695 296.91 683.789 296.91C682.909 296.91 682.182 297.143 681.609 297.61C681.035 298.07 680.702 298.713 680.609 299.54ZM695.135 305.8C694.148 305.8 693.275 305.57 692.515 305.11C691.755 304.65 691.162 304.03 690.735 303.25C690.308 302.463 690.095 301.58 690.095 300.6C690.095 299.867 690.218 299.183 690.465 298.55C690.712 297.917 691.058 297.367 691.505 296.9C691.952 296.427 692.482 296.06 693.095 295.8C693.715 295.533 694.395 295.4 695.135 295.4C696.122 295.4 696.942 295.607 697.595 296.02C698.248 296.433 698.758 296.96 699.125 297.6L698.855 298V295.7H700.535V305.5H698.855V303.2L699.125 303.59C698.758 304.23 698.248 304.76 697.595 305.18C696.942 305.593 696.122 305.8 695.135 305.8ZM695.335 304.14C695.988 304.14 696.568 303.997 697.075 303.71C697.582 303.417 697.978 303.007 698.265 302.48C698.558 301.947 698.705 301.32 698.705 300.6C698.705 299.873 698.558 299.247 698.265 298.72C697.978 298.187 697.582 297.777 697.075 297.49C696.568 297.203 695.988 297.06 695.335 297.06C694.682 297.06 694.102 297.203 693.595 297.49C693.088 297.777 692.688 298.187 692.395 298.72C692.102 299.247 691.955 299.873 691.955 300.6C691.955 301.32 692.102 301.947 692.395 302.48C692.688 303.007 693.088 303.417 693.595 303.71C694.102 303.997 694.682 304.14 695.335 304.14ZM703.239 305.65L702.559 303.96C703.246 303.787 703.746 303.51 704.059 303.13C704.372 302.743 704.572 302.2 704.659 301.5C704.746 300.8 704.789 299.89 704.789 298.77V295.7H712.519V305.5H710.679V297.26H706.529V298.77C706.529 299.837 706.482 300.763 706.389 301.55C706.302 302.33 706.139 302.99 705.899 303.53C705.666 304.07 705.332 304.513 704.899 304.86C704.472 305.2 703.919 305.463 703.239 305.65ZM715.692 305.5V295.7H717.532V304.04H719.592C720.385 304.04 720.978 303.893 721.372 303.6C721.772 303.3 721.972 302.85 721.972 302.25C721.972 301.663 721.785 301.213 721.412 300.9C721.045 300.587 720.498 300.43 719.772 300.43H717.242V298.98H719.902C721.142 298.98 722.115 299.263 722.822 299.83C723.535 300.39 723.892 301.197 723.892 302.25C723.892 302.937 723.718 303.523 723.372 304.01C723.025 304.49 722.542 304.86 721.922 305.12C721.302 305.373 720.578 305.5 719.752 305.5H715.692ZM726.297 305.5V295.7H728.137V299.56H733.447V295.7H735.287V305.5H733.447V301.12H728.137V305.5H726.297ZM742.855 305.8C741.842 305.8 740.938 305.563 740.145 305.09C739.352 304.617 738.728 303.987 738.275 303.2C737.822 302.413 737.595 301.547 737.595 300.6C737.595 299.9 737.725 299.237 737.985 298.61C738.245 297.983 738.612 297.43 739.085 296.95C739.558 296.463 740.115 296.083 740.755 295.81C741.395 295.537 742.095 295.4 742.855 295.4C743.875 295.4 744.782 295.637 745.575 296.11C746.368 296.583 746.992 297.213 747.445 298C747.898 298.787 748.125 299.653 748.125 300.6C748.125 301.3 747.995 301.963 747.735 302.59C747.475 303.217 747.108 303.77 746.635 304.25C746.162 304.73 745.605 305.11 744.965 305.39C744.325 305.663 743.622 305.8 742.855 305.8ZM742.855 304.14C743.515 304.14 744.098 303.997 744.605 303.71C745.118 303.417 745.522 303.007 745.815 302.48C746.108 301.947 746.255 301.32 746.255 300.6C746.255 299.873 746.108 299.247 745.815 298.72C745.528 298.187 745.128 297.777 744.615 297.49C744.102 297.203 743.515 297.06 742.855 297.06C742.195 297.06 741.608 297.203 741.095 297.49C740.588 297.777 740.188 298.187 739.895 298.72C739.608 299.247 739.465 299.873 739.465 300.6C739.465 301.32 739.608 301.947 739.895 302.48C740.188 303.007 740.592 303.417 741.105 303.71C741.618 303.997 742.202 304.14 742.855 304.14ZM759.828 305.8C758.814 305.8 757.911 305.563 757.118 305.09C756.324 304.617 755.701 303.987 755.248 303.2C754.794 302.413 754.568 301.547 754.568 300.6C754.568 299.9 754.698 299.237 754.958 298.61C755.218 297.983 755.584 297.43 756.058 296.95C756.531 296.463 757.088 296.083 757.728 295.81C758.368 295.537 759.068 295.4 759.828 295.4C760.848 295.4 761.754 295.637 762.548 296.11C763.341 296.583 763.964 297.213 764.418 298C764.871 298.787 765.098 299.653 765.098 300.6C765.098 301.3 764.968 301.963 764.708 302.59C764.448 303.217 764.081 303.77 763.608 304.25C763.134 304.73 762.578 305.11 761.938 305.39C761.298 305.663 760.594 305.8 759.828 305.8ZM759.828 304.14C760.488 304.14 761.071 303.997 761.578 303.71C762.091 303.417 762.494 303.007 762.788 302.48C763.081 301.947 763.228 301.32 763.228 300.6C763.228 299.873 763.081 299.247 762.788 298.72C762.501 298.187 762.101 297.777 761.588 297.49C761.074 297.203 760.488 297.06 759.828 297.06C759.168 297.06 758.581 297.203 758.068 297.49C757.561 297.777 757.161 298.187 756.868 298.72C756.581 299.247 756.438 299.873 756.438 300.6C756.438 301.32 756.581 301.947 756.868 302.48C757.161 303.007 757.564 303.417 758.078 303.71C758.591 303.997 759.174 304.14 759.828 304.14ZM767.41 309.7V295.7H769.1V297.17C769.507 296.65 770.017 296.227 770.63 295.9C771.25 295.567 772.03 295.4 772.97 295.4C773.944 295.4 774.8 295.63 775.54 296.09C776.28 296.543 776.857 297.163 777.27 297.95C777.69 298.737 777.9 299.62 777.9 300.6C777.9 301.313 777.78 301.987 777.54 302.62C777.307 303.247 776.97 303.8 776.53 304.28C776.09 304.753 775.567 305.127 774.96 305.4C774.36 305.667 773.69 305.8 772.95 305.8C772.124 305.8 771.4 305.647 770.78 305.34C770.167 305.027 769.654 304.617 769.24 304.11V309.7H767.41ZM772.64 304.14C773.3 304.14 773.884 303.997 774.39 303.71C774.904 303.417 775.304 303.007 775.59 302.48C775.884 301.947 776.03 301.32 776.03 300.6C776.03 299.873 775.884 299.247 775.59 298.72C775.304 298.187 774.904 297.777 774.39 297.49C773.884 297.203 773.3 297.06 772.64 297.06C771.98 297.06 771.394 297.203 770.88 297.49C770.374 297.777 769.974 298.187 769.68 298.72C769.387 299.247 769.24 299.873 769.24 300.6C769.24 301.32 769.387 301.947 769.68 302.48C769.974 303.007 770.374 303.417 770.88 303.71C771.394 303.997 771.98 304.14 772.64 304.14ZM780.203 305.5V295.7H786.553V297.26H782.043V305.5H780.203ZM792.85 305.8C791.863 305.8 790.99 305.57 790.23 305.11C789.47 304.65 788.877 304.03 788.45 303.25C788.023 302.463 787.81 301.58 787.81 300.6C787.81 299.867 787.933 299.183 788.18 298.55C788.427 297.917 788.773 297.367 789.22 296.9C789.667 296.427 790.197 296.06 790.81 295.8C791.43 295.533 792.11 295.4 792.85 295.4C793.837 295.4 794.657 295.607 795.31 296.02C795.963 296.433 796.473 296.96 796.84 297.6L796.57 298V295.7H798.25V305.5H796.57V303.2L796.84 303.59C796.473 304.23 795.963 304.76 795.31 305.18C794.657 305.593 793.837 305.8 792.85 305.8ZM793.05 304.14C793.703 304.14 794.283 303.997 794.79 303.71C795.297 303.417 795.693 303.007 795.98 302.48C796.273 301.947 796.42 301.32 796.42 300.6C796.42 299.873 796.273 299.247 795.98 298.72C795.693 298.187 795.297 297.777 794.79 297.49C794.283 297.203 793.703 297.06 793.05 297.06C792.397 297.06 791.817 297.203 791.31 297.49C790.803 297.777 790.403 298.187 790.11 298.72C789.817 299.247 789.67 299.873 789.67 300.6C789.67 301.32 789.817 301.947 790.11 302.48C790.403 303.007 790.803 303.417 791.31 303.71C791.817 303.997 792.397 304.14 793.05 304.14ZM801.434 305.5V295.7H803.274V299.56H808.584V295.7H810.424V305.5H808.584V301.12H803.274V305.5H801.434ZM813.602 305.5V295.7H815.392V302.74L821.092 295.7H822.672V305.5H820.882V298.38L815.132 305.5H813.602ZM829.088 305.72C828.541 305.72 828.018 305.68 827.518 305.6C827.018 305.527 826.544 305.403 826.098 305.23C825.658 305.057 825.258 304.83 824.898 304.55L825.758 303.25C826.191 303.603 826.694 303.857 827.268 304.01C827.848 304.163 828.434 304.24 829.028 304.24C829.881 304.24 830.558 304.113 831.058 303.86C831.564 303.6 831.818 303.167 831.818 302.56C831.818 302.04 831.551 301.663 831.018 301.43C830.484 301.197 829.711 301.08 828.698 301.08H826.888V299.63H828.658C829.538 299.63 830.224 299.523 830.718 299.31C831.218 299.097 831.468 298.737 831.468 298.23C831.468 297.937 831.364 297.69 831.158 297.49C830.958 297.29 830.674 297.14 830.308 297.04C829.948 296.933 829.524 296.88 829.038 296.88C828.458 296.88 827.901 296.963 827.368 297.13C826.841 297.297 826.378 297.557 825.978 297.91L825.248 296.64C825.728 296.24 826.318 295.93 827.018 295.71C827.724 295.483 828.444 295.37 829.178 295.37C829.998 295.37 830.704 295.473 831.298 295.68C831.898 295.887 832.361 296.187 832.688 296.58C833.014 296.973 833.178 297.447 833.178 298C833.178 298.52 833.011 298.967 832.678 299.34C832.344 299.707 831.861 299.973 831.228 300.14C831.988 300.307 832.568 300.603 832.968 301.03C833.368 301.45 833.568 301.973 833.568 302.6C833.568 303.26 833.381 303.823 833.008 304.29C832.634 304.757 832.111 305.113 831.438 305.36C830.771 305.6 829.988 305.72 829.088 305.72ZM840.453 305.8C839.439 305.8 838.536 305.563 837.743 305.09C836.949 304.617 836.326 303.987 835.873 303.2C835.419 302.413 835.193 301.547 835.193 300.6C835.193 299.9 835.323 299.237 835.583 298.61C835.843 297.983 836.209 297.43 836.683 296.95C837.156 296.463 837.713 296.083 838.353 295.81C838.993 295.537 839.693 295.4 840.453 295.4C841.473 295.4 842.379 295.637 843.173 296.11C843.966 296.583 844.589 297.213 845.043 298C845.496 298.787 845.723 299.653 845.723 300.6C845.723 301.3 845.593 301.963 845.333 302.59C845.073 303.217 844.706 303.77 844.233 304.25C843.759 304.73 843.203 305.11 842.563 305.39C841.923 305.663 841.219 305.8 840.453 305.8ZM840.453 304.14C841.113 304.14 841.696 303.997 842.203 303.71C842.716 303.417 843.119 303.007 843.413 302.48C843.706 301.947 843.853 301.32 843.853 300.6C843.853 299.873 843.706 299.247 843.413 298.72C843.126 298.187 842.726 297.777 842.213 297.49C841.699 297.203 841.113 297.06 840.453 297.06C839.793 297.06 839.206 297.203 838.693 297.49C838.186 297.777 837.786 298.187 837.493 298.72C837.206 299.247 837.063 299.873 837.063 300.6C837.063 301.32 837.206 301.947 837.493 302.48C837.786 303.007 838.189 303.417 838.703 303.71C839.216 303.997 839.799 304.14 840.453 304.14ZM848.035 305.5V295.7H852.535C853.629 295.7 854.509 295.913 855.175 296.34C855.849 296.767 856.185 297.4 856.185 298.24C856.185 298.613 856.099 298.95 855.925 299.25C855.752 299.55 855.505 299.807 855.185 300.02C854.865 300.227 854.489 300.38 854.055 300.48L854.025 300.08C854.859 300.213 855.495 300.507 855.935 300.96C856.382 301.407 856.605 301.967 856.605 302.64C856.605 303.233 856.449 303.743 856.135 304.17C855.829 304.597 855.389 304.927 854.815 305.16C854.242 305.387 853.559 305.5 852.765 305.5H848.035ZM849.825 304.07H852.515C853.235 304.07 853.792 303.95 854.185 303.71C854.585 303.47 854.785 303.11 854.785 302.63C854.785 302.15 854.589 301.793 854.195 301.56C853.802 301.32 853.242 301.2 852.515 301.2H849.545V299.81H852.285C852.965 299.81 853.492 299.707 853.865 299.5C854.239 299.293 854.425 298.95 854.425 298.47C854.425 297.997 854.239 297.657 853.865 297.45C853.499 297.237 852.972 297.13 852.285 297.13H849.825V304.07ZM863.397 305.8C862.41 305.8 861.537 305.57 860.777 305.11C860.017 304.65 859.423 304.03 858.997 303.25C858.57 302.463 858.357 301.58 858.357 300.6C858.357 299.867 858.48 299.183 858.727 298.55C858.973 297.917 859.32 297.367 859.767 296.9C860.213 296.427 860.743 296.06 861.357 295.8C861.977 295.533 862.657 295.4 863.397 295.4C864.383 295.4 865.203 295.607 865.857 296.02C866.51 296.433 867.02 296.96 867.387 297.6L867.117 298V295.7H868.797V305.5H867.117V303.2L867.387 303.59C867.02 304.23 866.51 304.76 865.857 305.18C865.203 305.593 864.383 305.8 863.397 305.8ZM863.597 304.14C864.25 304.14 864.83 303.997 865.337 303.71C865.843 303.417 866.24 303.007 866.527 302.48C866.82 301.947 866.967 301.32 866.967 300.6C866.967 299.873 866.82 299.247 866.527 298.72C866.24 298.187 865.843 297.777 865.337 297.49C864.83 297.203 864.25 297.06 863.597 297.06C862.943 297.06 862.363 297.203 861.857 297.49C861.35 297.777 860.95 298.187 860.657 298.72C860.363 299.247 860.217 299.873 860.217 300.6C860.217 301.32 860.363 301.947 860.657 302.48C860.95 303.007 861.35 303.417 861.857 303.71C862.363 303.997 862.943 304.14 863.597 304.14ZM871.981 305.5V295.7H873.821V299.56H879.131V295.7H880.971V305.5H879.131V301.12H873.821V305.5H871.981ZM884.149 305.5V295.7H885.989V299.56H891.299V295.7H893.139V305.5H891.299V301.12H885.989V305.5H884.149ZM896.317 305.5V295.7H898.157V304.04H900.117C900.91 304.04 901.503 303.893 901.897 303.6C902.297 303.3 902.497 302.85 902.497 302.25C902.497 301.663 902.31 301.213 901.937 300.9C901.57 300.587 901.023 300.43 900.297 300.43H897.867V298.98H900.427C901.667 298.98 902.64 299.263 903.347 299.83C904.06 300.39 904.417 301.197 904.417 302.25C904.417 302.937 904.243 303.523 903.897 304.01C903.55 304.49 903.067 304.86 902.447 305.12C901.827 305.373 901.103 305.5 900.277 305.5H896.317ZM906.077 305.5V295.7H907.917V305.5H906.077ZM915.512 305.8C914.472 305.8 913.555 305.583 912.762 305.15C911.968 304.717 911.348 304.113 910.902 303.34C910.455 302.56 910.232 301.653 910.232 300.62C910.232 299.873 910.358 299.18 910.612 298.54C910.872 297.9 911.232 297.347 911.692 296.88C912.158 296.413 912.702 296.05 913.322 295.79C913.948 295.53 914.628 295.4 915.362 295.4C916.155 295.4 916.862 295.54 917.482 295.82C918.108 296.1 918.625 296.493 919.032 297C919.445 297.5 919.742 298.09 919.922 298.77C920.102 299.443 920.138 300.177 920.032 300.97H912.052C912.032 301.623 912.165 302.197 912.452 302.69C912.738 303.177 913.152 303.557 913.692 303.83C914.238 304.103 914.885 304.24 915.632 304.24C916.178 304.24 916.712 304.153 917.232 303.98C917.752 303.807 918.212 303.55 918.612 303.21L919.392 304.58C919.072 304.84 918.692 305.063 918.252 305.25C917.818 305.43 917.365 305.567 916.892 305.66C916.418 305.753 915.958 305.8 915.512 305.8ZM912.152 299.54H918.192C918.165 298.713 917.908 298.07 917.422 297.61C916.935 297.143 916.238 296.91 915.332 296.91C914.452 296.91 913.725 297.143 913.152 297.61C912.578 298.07 912.245 298.713 912.152 299.54ZM928.03 309.99C927.71 309.99 927.394 309.95 927.08 309.87C926.767 309.797 926.45 309.663 926.13 309.47L926.56 307.88C926.767 308.013 926.99 308.113 927.23 308.18C927.47 308.247 927.684 308.28 927.87 308.28C928.364 308.28 928.747 308.16 929.02 307.92C929.294 307.68 929.514 307.313 929.68 306.82L930.07 305.7L926.19 295.7H928.21L931.11 303.6L933.94 295.7H935.89L931.6 307.06C931.307 307.833 930.98 308.43 930.62 308.85C930.267 309.277 929.877 309.573 929.45 309.74C929.024 309.907 928.55 309.99 928.03 309.99ZM937.723 309.7V295.7H939.413V297.17C939.819 296.65 940.329 296.227 940.943 295.9C941.563 295.567 942.343 295.4 943.283 295.4C944.256 295.4 945.113 295.63 945.853 296.09C946.593 296.543 947.169 297.163 947.583 297.95C948.003 298.737 948.213 299.62 948.213 300.6C948.213 301.313 948.093 301.987 947.853 302.62C947.619 303.247 947.283 303.8 946.843 304.28C946.403 304.753 945.879 305.127 945.273 305.4C944.673 305.667 944.003 305.8 943.263 305.8C942.436 305.8 941.713 305.647 941.093 305.34C940.479 305.027 939.966 304.617 939.553 304.11V309.7H937.723ZM942.953 304.14C943.613 304.14 944.196 303.997 944.703 303.71C945.216 303.417 945.616 303.007 945.903 302.48C946.196 301.947 946.343 301.32 946.343 300.6C946.343 299.873 946.196 299.247 945.903 298.72C945.616 298.187 945.216 297.777 944.703 297.49C944.196 297.203 943.613 297.06 942.953 297.06C942.293 297.06 941.706 297.203 941.193 297.49C940.686 297.777 940.286 298.187 939.993 298.72C939.699 299.247 939.553 299.873 939.553 300.6C939.553 301.32 939.699 301.947 939.993 302.48C940.286 303.007 940.686 303.417 941.193 303.71C941.706 303.997 942.293 304.14 942.953 304.14ZM955.003 305.8C953.99 305.8 953.087 305.563 952.293 305.09C951.5 304.617 950.877 303.987 950.423 303.2C949.97 302.413 949.743 301.547 949.743 300.6C949.743 299.9 949.873 299.237 950.133 298.61C950.393 297.983 950.76 297.43 951.233 296.95C951.707 296.463 952.263 296.083 952.903 295.81C953.543 295.537 954.243 295.4 955.003 295.4C956.023 295.4 956.93 295.637 957.723 296.11C958.517 296.583 959.14 297.213 959.593 298C960.047 298.787 960.273 299.653 960.273 300.6C960.273 301.3 960.143 301.963 959.883 302.59C959.623 303.217 959.257 303.77 958.783 304.25C958.31 304.73 957.753 305.11 957.113 305.39C956.473 305.663 955.77 305.8 955.003 305.8ZM955.003 304.14C955.663 304.14 956.247 303.997 956.753 303.71C957.267 303.417 957.67 303.007 957.963 302.48C958.257 301.947 958.403 301.32 958.403 300.6C958.403 299.873 958.257 299.247 957.963 298.72C957.677 298.187 957.277 297.777 956.763 297.49C956.25 297.203 955.663 297.06 955.003 297.06C954.343 297.06 953.757 297.203 953.243 297.49C952.737 297.777 952.337 298.187 952.043 298.72C951.757 299.247 951.613 299.873 951.613 300.6C951.613 301.32 951.757 301.947 952.043 302.48C952.337 303.007 952.74 303.417 953.253 303.71C953.767 303.997 954.35 304.14 955.003 304.14ZM969.156 305.5L965.846 300.27L968.816 295.7H970.796L967.836 300.18L971.376 305.5H969.156ZM962.586 305.5V295.7H964.426V299.56H967.356V301.12H964.426V305.5H962.586ZM973.445 305.5V295.7H975.235V302.74L980.935 295.7H982.515V305.5H980.725V298.38L974.975 305.5H973.445ZM985.542 308.33L984.832 307.42C985.305 307.18 985.722 306.9 986.082 306.58C986.442 306.26 986.678 305.947 986.792 305.64C986.525 305.653 986.278 305.61 986.052 305.51C985.832 305.417 985.655 305.277 985.522 305.09C985.395 304.897 985.332 304.673 985.332 304.42C985.332 304.04 985.458 303.73 985.712 303.49C985.972 303.243 986.295 303.12 986.682 303.12C987.128 303.12 987.485 303.27 987.752 303.57C988.025 303.863 988.162 304.273 988.162 304.8C988.162 305.193 988.062 305.597 987.862 306.01C987.668 306.43 987.378 306.837 986.992 307.23C986.605 307.623 986.122 307.99 985.542 308.33ZM343.621 330.5V320.7H348.121C349.215 320.7 350.095 320.913 350.761 321.34C351.435 321.767 351.771 322.4 351.771 323.24C351.771 323.613 351.685 323.95 351.511 324.25C351.338 324.55 351.091 324.807 350.771 325.02C350.451 325.227 350.075 325.38 349.641 325.48L349.611 325.08C350.445 325.213 351.081 325.507 351.521 325.96C351.968 326.407 352.191 326.967 352.191 327.64C352.191 328.233 352.035 328.743 351.721 329.17C351.415 329.597 350.975 329.927 350.401 330.16C349.828 330.387 349.145 330.5 348.351 330.5H343.621ZM345.411 329.07H348.101C348.821 329.07 349.378 328.95 349.771 328.71C350.171 328.47 350.371 328.11 350.371 327.63C350.371 327.15 350.175 326.793 349.781 326.56C349.388 326.32 348.828 326.2 348.101 326.2H345.131V324.81H347.871C348.551 324.81 349.078 324.707 349.451 324.5C349.825 324.293 350.011 323.95 350.011 323.47C350.011 322.997 349.825 322.657 349.451 322.45C349.085 322.237 348.558 322.13 347.871 322.13H345.411V329.07ZM359.203 330.8C358.189 330.8 357.286 330.563 356.493 330.09C355.699 329.617 355.076 328.987 354.623 328.2C354.169 327.413 353.943 326.547 353.943 325.6C353.943 324.9 354.073 324.237 354.333 323.61C354.593 322.983 354.959 322.43 355.433 321.95C355.906 321.463 356.463 321.083 357.103 320.81C357.743 320.537 358.443 320.4 359.203 320.4C360.223 320.4 361.129 320.637 361.923 321.11C362.716 321.583 363.339 322.213 363.793 323C364.246 323.787 364.473 324.653 364.473 325.6C364.473 326.3 364.343 326.963 364.083 327.59C363.823 328.217 363.456 328.77 362.983 329.25C362.509 329.73 361.953 330.11 361.313 330.39C360.673 330.663 359.969 330.8 359.203 330.8ZM359.203 329.14C359.863 329.14 360.446 328.997 360.953 328.71C361.466 328.417 361.869 328.007 362.163 327.48C362.456 326.947 362.603 326.32 362.603 325.6C362.603 324.873 362.456 324.247 362.163 323.72C361.876 323.187 361.476 322.777 360.963 322.49C360.449 322.203 359.863 322.06 359.203 322.06C358.543 322.06 357.956 322.203 357.443 322.49C356.936 322.777 356.536 323.187 356.243 323.72C355.956 324.247 355.813 324.873 355.813 325.6C355.813 326.32 355.956 326.947 356.243 327.48C356.536 328.007 356.939 328.417 357.453 328.71C357.966 328.997 358.549 329.14 359.203 329.14ZM370.025 330.72C369.479 330.72 368.955 330.68 368.455 330.6C367.955 330.527 367.482 330.403 367.035 330.23C366.595 330.057 366.195 329.83 365.835 329.55L366.695 328.25C367.129 328.603 367.632 328.857 368.205 329.01C368.785 329.163 369.372 329.24 369.965 329.24C370.819 329.24 371.495 329.113 371.995 328.86C372.502 328.6 372.755 328.167 372.755 327.56C372.755 327.04 372.489 326.663 371.955 326.43C371.422 326.197 370.649 326.08 369.635 326.08H367.825V324.63H369.595C370.475 324.63 371.162 324.523 371.655 324.31C372.155 324.097 372.405 323.737 372.405 323.23C372.405 322.937 372.302 322.69 372.095 322.49C371.895 322.29 371.612 322.14 371.245 322.04C370.885 321.933 370.462 321.88 369.975 321.88C369.395 321.88 368.839 321.963 368.305 322.13C367.779 322.297 367.315 322.557 366.915 322.91L366.185 321.64C366.665 321.24 367.255 320.93 367.955 320.71C368.662 320.483 369.382 320.37 370.115 320.37C370.935 320.37 371.642 320.473 372.235 320.68C372.835 320.887 373.299 321.187 373.625 321.58C373.952 321.973 374.115 322.447 374.115 323C374.115 323.52 373.949 323.967 373.615 324.34C373.282 324.707 372.799 324.973 372.165 325.14C372.925 325.307 373.505 325.603 373.905 326.03C374.305 326.45 374.505 326.973 374.505 327.6C374.505 328.26 374.319 328.823 373.945 329.29C373.572 329.757 373.049 330.113 372.375 330.36C371.709 330.6 370.925 330.72 370.025 330.72ZM377 330.5V320.7H378.61H378.67L383.21 327.16L382.41 327.18L386.75 320.7H388.4V330.5H386.69L386.71 322.95L387.05 323.1L383.33 328.44H382.08L378.21 323.08L378.54 322.93L378.56 330.5H377ZM395.96 330.8C394.947 330.8 394.044 330.563 393.25 330.09C392.457 329.617 391.834 328.987 391.38 328.2C390.927 327.413 390.7 326.547 390.7 325.6C390.7 324.9 390.83 324.237 391.09 323.61C391.35 322.983 391.717 322.43 392.19 321.95C392.664 321.463 393.22 321.083 393.86 320.81C394.5 320.537 395.2 320.4 395.96 320.4C396.98 320.4 397.887 320.637 398.68 321.11C399.474 321.583 400.097 322.213 400.55 323C401.004 323.787 401.23 324.653 401.23 325.6C401.23 326.3 401.1 326.963 400.84 327.59C400.58 328.217 400.214 328.77 399.74 329.25C399.267 329.73 398.71 330.11 398.07 330.39C397.43 330.663 396.727 330.8 395.96 330.8ZM395.96 329.14C396.62 329.14 397.204 328.997 397.71 328.71C398.224 328.417 398.627 328.007 398.92 327.48C399.214 326.947 399.36 326.32 399.36 325.6C399.36 324.873 399.214 324.247 398.92 323.72C398.634 323.187 398.234 322.777 397.72 322.49C397.207 322.203 396.62 322.06 395.96 322.06C395.3 322.06 394.714 322.203 394.2 322.49C393.694 322.777 393.294 323.187 393 323.72C392.714 324.247 392.57 324.873 392.57 325.6C392.57 326.32 392.714 326.947 393 327.48C393.294 328.007 393.697 328.417 394.21 328.71C394.724 328.997 395.307 329.14 395.96 329.14ZM408.588 330.5V326.12H405.918V324.56H408.588V320.7H410.428V324.56H413.078V326.12H410.428V330.5H408.588ZM402.248 330.5L405.398 325.29L402.698 320.7H404.718L407.388 325.27L404.368 330.5H402.248ZM414.578 330.5L411.608 325.27L414.348 320.7H416.298L413.598 325.18L416.778 330.5H414.578ZM418.856 330.5V320.7H420.696V324.56H426.006V320.7H427.846V330.5H426.006V326.12H420.696V330.5H418.856ZM435.414 330.8C434.4 330.8 433.497 330.563 432.704 330.09C431.91 329.617 431.287 328.987 430.834 328.2C430.38 327.413 430.154 326.547 430.154 325.6C430.154 324.9 430.284 324.237 430.544 323.61C430.804 322.983 431.17 322.43 431.644 321.95C432.117 321.463 432.674 321.083 433.314 320.81C433.954 320.537 434.654 320.4 435.414 320.4C436.434 320.4 437.34 320.637 438.134 321.11C438.927 321.583 439.55 322.213 440.004 323C440.457 323.787 440.684 324.653 440.684 325.6C440.684 326.3 440.554 326.963 440.294 327.59C440.034 328.217 439.667 328.77 439.194 329.25C438.72 329.73 438.164 330.11 437.524 330.39C436.884 330.663 436.18 330.8 435.414 330.8ZM435.414 329.14C436.074 329.14 436.657 328.997 437.164 328.71C437.677 328.417 438.08 328.007 438.374 327.48C438.667 326.947 438.814 326.32 438.814 325.6C438.814 324.873 438.667 324.247 438.374 323.72C438.087 323.187 437.687 322.777 437.174 322.49C436.66 322.203 436.074 322.06 435.414 322.06C434.754 322.06 434.167 322.203 433.654 322.49C433.147 322.777 432.747 323.187 432.454 323.72C432.167 324.247 432.024 324.873 432.024 325.6C432.024 326.32 432.167 326.947 432.454 327.48C432.747 328.007 433.15 328.417 433.664 328.71C434.177 328.997 434.76 329.14 435.414 329.14ZM447.534 330.8C446.501 330.8 445.584 330.573 444.784 330.12C443.984 329.667 443.357 329.05 442.904 328.27C442.451 327.483 442.224 326.593 442.224 325.6C442.224 324.847 442.357 324.153 442.624 323.52C442.897 322.887 443.281 322.337 443.774 321.87C444.267 321.403 444.844 321.043 445.504 320.79C446.171 320.53 446.897 320.4 447.684 320.4C448.324 320.4 448.914 320.483 449.454 320.65C449.994 320.817 450.494 321.073 450.954 321.42L450.014 322.84C449.714 322.58 449.364 322.387 448.964 322.26C448.564 322.127 448.141 322.06 447.694 322.06C446.961 322.06 446.324 322.2 445.784 322.48C445.251 322.753 444.837 323.153 444.544 323.68C444.251 324.207 444.104 324.84 444.104 325.58C444.104 326.693 444.424 327.567 445.064 328.2C445.711 328.827 446.584 329.14 447.684 329.14C448.191 329.14 448.664 329.05 449.104 328.87C449.544 328.683 449.904 328.443 450.184 328.15L451.134 329.55C450.621 329.937 450.057 330.243 449.444 330.47C448.831 330.69 448.194 330.8 447.534 330.8ZM455.54 330.5V322.26H452.18V320.7H460.75V322.26H457.38V330.5H455.54ZM462.84 330.5V320.7H464.68V329.04H466.74C467.533 329.04 468.127 328.893 468.52 328.6C468.92 328.3 469.12 327.85 469.12 327.25C469.12 326.663 468.933 326.213 468.56 325.9C468.193 325.587 467.647 325.43 466.92 325.43H464.39V323.98H467.05C468.29 323.98 469.263 324.263 469.97 324.83C470.683 325.39 471.04 326.197 471.04 327.25C471.04 327.937 470.867 328.523 470.52 329.01C470.173 329.49 469.69 329.86 469.07 330.12C468.45 330.373 467.727 330.5 466.9 330.5H462.84ZM485.645 330.5V322.26H481.295V323.77C481.295 324.71 481.245 325.547 481.145 326.28C481.045 327.007 480.869 327.637 480.615 328.17C480.362 328.697 480.005 329.13 479.545 329.47C479.092 329.81 478.509 330.06 477.795 330.22L477.275 329.01C477.922 328.843 478.405 328.553 478.725 328.14C479.052 327.72 479.272 327.153 479.385 326.44C479.499 325.72 479.555 324.83 479.555 323.77V320.7H487.485V330.5H485.645ZM477.275 333.5V329.01L478.525 329.14L478.805 328.94H489.465V333.5H487.775V330.5H478.965V333.5H477.275ZM495.746 330.8C494.706 330.8 493.789 330.583 492.996 330.15C492.203 329.717 491.583 329.113 491.136 328.34C490.689 327.56 490.466 326.653 490.466 325.62C490.466 324.873 490.593 324.18 490.846 323.54C491.106 322.9 491.466 322.347 491.926 321.88C492.393 321.413 492.936 321.05 493.556 320.79C494.183 320.53 494.863 320.4 495.596 320.4C496.389 320.4 497.096 320.54 497.716 320.82C498.343 321.1 498.859 321.493 499.266 322C499.679 322.5 499.976 323.09 500.156 323.77C500.336 324.443 500.373 325.177 500.266 325.97H492.286C492.266 326.623 492.399 327.197 492.686 327.69C492.973 328.177 493.386 328.557 493.926 328.83C494.473 329.103 495.119 329.24 495.866 329.24C496.413 329.24 496.946 329.153 497.466 328.98C497.986 328.807 498.446 328.55 498.846 328.21L499.626 329.58C499.306 329.84 498.926 330.063 498.486 330.25C498.053 330.43 497.599 330.567 497.126 330.66C496.653 330.753 496.193 330.8 495.746 330.8ZM492.386 324.54H498.426C498.399 323.713 498.143 323.07 497.656 322.61C497.169 322.143 496.473 321.91 495.566 321.91C494.686 321.91 493.959 322.143 493.386 322.61C492.813 323.07 492.479 323.713 492.386 324.54ZM502.165 330.65L501.485 328.96C502.171 328.787 502.671 328.51 502.985 328.13C503.298 327.743 503.498 327.2 503.585 326.5C503.671 325.8 503.715 324.89 503.715 323.77V320.7H511.445V330.5H509.605V322.26H505.455V323.77C505.455 324.837 505.408 325.763 505.315 326.55C505.228 327.33 505.065 327.99 504.825 328.53C504.591 329.07 504.258 329.513 503.825 329.86C503.398 330.2 502.845 330.463 502.165 330.65ZM514.617 330.5V320.7H516.407V327.74L522.107 320.7H523.687V330.5H521.897V323.38L516.147 330.5H514.617ZM529.133 330.5V322.26H525.773V320.7H534.343V322.26H530.973V330.5H529.133ZM536.434 330.5V320.7H538.274V329.04H540.334C541.127 329.04 541.72 328.893 542.114 328.6C542.514 328.3 542.714 327.85 542.714 327.25C542.714 326.663 542.527 326.213 542.154 325.9C541.787 325.587 541.24 325.43 540.514 325.43H537.984V323.98H540.644C541.884 323.98 542.857 324.263 543.564 324.83C544.277 325.39 544.634 326.197 544.634 327.25C544.634 327.937 544.46 328.523 544.114 329.01C543.767 329.49 543.284 329.86 542.664 330.12C542.044 330.373 541.32 330.5 540.494 330.5H536.434ZM551.479 330.8C550.446 330.8 549.529 330.573 548.729 330.12C547.929 329.667 547.303 329.05 546.849 328.27C546.396 327.483 546.169 326.593 546.169 325.6C546.169 324.847 546.303 324.153 546.569 323.52C546.843 322.887 547.226 322.337 547.719 321.87C548.213 321.403 548.789 321.043 549.449 320.79C550.116 320.53 550.843 320.4 551.629 320.4C552.269 320.4 552.859 320.483 553.399 320.65C553.939 320.817 554.439 321.073 554.899 321.42L553.959 322.84C553.659 322.58 553.309 322.387 552.909 322.26C552.509 322.127 552.086 322.06 551.639 322.06C550.906 322.06 550.269 322.2 549.729 322.48C549.196 322.753 548.783 323.153 548.489 323.68C548.196 324.207 548.049 324.84 548.049 325.58C548.049 326.693 548.369 327.567 549.009 328.2C549.656 328.827 550.529 329.14 551.629 329.14C552.136 329.14 552.609 329.05 553.049 328.87C553.489 328.683 553.849 328.443 554.129 328.15L555.079 329.55C554.566 329.937 554.003 330.243 553.389 330.47C552.776 330.69 552.139 330.8 551.479 330.8ZM556.555 330.5L560.445 325.55L560.795 326.77C559.955 326.777 559.252 326.657 558.685 326.41C558.118 326.163 557.688 325.817 557.395 325.37C557.108 324.917 556.965 324.387 556.965 323.78C556.965 323.133 557.132 322.58 557.465 322.12C557.805 321.66 558.278 321.31 558.885 321.07C559.498 320.823 560.212 320.7 561.025 320.7H565.065V330.5H563.275V322.16H561.185C560.405 322.16 559.818 322.29 559.425 322.55C559.032 322.81 558.835 323.207 558.835 323.74C558.835 324.267 559.018 324.67 559.385 324.95C559.752 325.223 560.292 325.36 561.005 325.36H563.555V326.77H561.615L558.705 330.5H556.555ZM577.69 330.8C576.657 330.8 575.74 330.573 574.94 330.12C574.14 329.667 573.513 329.05 573.06 328.27C572.607 327.483 572.38 326.593 572.38 325.6C572.38 324.847 572.513 324.153 572.78 323.52C573.053 322.887 573.437 322.337 573.93 321.87C574.423 321.403 575 321.043 575.66 320.79C576.327 320.53 577.053 320.4 577.84 320.4C578.48 320.4 579.07 320.483 579.61 320.65C580.15 320.817 580.65 321.073 581.11 321.42L580.17 322.84C579.87 322.58 579.52 322.387 579.12 322.26C578.72 322.127 578.297 322.06 577.85 322.06C577.117 322.06 576.48 322.2 575.94 322.48C575.407 322.753 574.993 323.153 574.7 323.68C574.407 324.207 574.26 324.84 574.26 325.58C574.26 326.693 574.58 327.567 575.22 328.2C575.867 328.827 576.74 329.14 577.84 329.14C578.347 329.14 578.82 329.05 579.26 328.87C579.7 328.683 580.06 328.443 580.34 328.15L581.29 329.55C580.777 329.937 580.213 330.243 579.6 330.47C578.987 330.69 578.35 330.8 577.69 330.8ZM583.426 330.5V320.7H587.926C589.019 320.7 589.899 320.913 590.566 321.34C591.239 321.767 591.576 322.4 591.576 323.24C591.576 323.613 591.489 323.95 591.316 324.25C591.143 324.55 590.896 324.807 590.576 325.02C590.256 325.227 589.879 325.38 589.446 325.48L589.416 325.08C590.249 325.213 590.886 325.507 591.326 325.96C591.773 326.407 591.996 326.967 591.996 327.64C591.996 328.233 591.839 328.743 591.526 329.17C591.219 329.597 590.779 329.927 590.206 330.16C589.633 330.387 588.949 330.5 588.156 330.5H583.426ZM585.216 329.07H587.906C588.626 329.07 589.183 328.95 589.576 328.71C589.976 328.47 590.176 328.11 590.176 327.63C590.176 327.15 589.979 326.793 589.586 326.56C589.193 326.32 588.633 326.2 587.906 326.2H584.936V324.81H587.676C588.356 324.81 588.883 324.707 589.256 324.5C589.629 324.293 589.816 323.95 589.816 323.47C589.816 322.997 589.629 322.657 589.256 322.45C588.889 322.237 588.363 322.13 587.676 322.13H585.216V329.07ZM599.007 330.8C597.994 330.8 597.091 330.563 596.297 330.09C595.504 329.617 594.881 328.987 594.427 328.2C593.974 327.413 593.747 326.547 593.747 325.6C593.747 324.9 593.877 324.237 594.137 323.61C594.397 322.983 594.764 322.43 595.237 321.95C595.711 321.463 596.267 321.083 596.907 320.81C597.547 320.537 598.247 320.4 599.007 320.4C600.027 320.4 600.934 320.637 601.727 321.11C602.521 321.583 603.144 322.213 603.597 323C604.051 323.787 604.277 324.653 604.277 325.6C604.277 326.3 604.147 326.963 603.887 327.59C603.627 328.217 603.261 328.77 602.787 329.25C602.314 329.73 601.757 330.11 601.117 330.39C600.477 330.663 599.774 330.8 599.007 330.8ZM599.007 329.14C599.667 329.14 600.251 328.997 600.757 328.71C601.271 328.417 601.674 328.007 601.967 327.48C602.261 326.947 602.407 326.32 602.407 325.6C602.407 324.873 602.261 324.247 601.967 323.72C601.681 323.187 601.281 322.777 600.767 322.49C600.254 322.203 599.667 322.06 599.007 322.06C598.347 322.06 597.761 322.203 597.247 322.49C596.741 322.777 596.341 323.187 596.047 323.72C595.761 324.247 595.617 324.873 595.617 325.6C595.617 326.32 595.761 326.947 596.047 327.48C596.341 328.007 596.744 328.417 597.257 328.71C597.771 328.997 598.354 329.14 599.007 329.14ZM606.59 330.5V320.7H608.38V327.74L614.08 320.7H615.66V330.5H613.87V323.38L608.12 330.5H606.59ZM618.836 330.5V320.7H620.446H620.506L625.046 327.16L624.246 327.18L628.586 320.7H630.236V330.5H628.526L628.546 322.95L628.886 323.1L625.166 328.44H623.916L620.046 323.08L620.376 322.93L620.396 330.5H618.836ZM642.796 330.8C641.783 330.8 640.88 330.563 640.086 330.09C639.293 329.617 638.67 328.987 638.216 328.2C637.763 327.413 637.536 326.547 637.536 325.6C637.536 324.9 637.666 324.237 637.926 323.61C638.186 322.983 638.553 322.43 639.026 321.95C639.5 321.463 640.056 321.083 640.696 320.81C641.336 320.537 642.036 320.4 642.796 320.4C643.816 320.4 644.723 320.637 645.516 321.11C646.31 321.583 646.933 322.213 647.386 323C647.84 323.787 648.066 324.653 648.066 325.6C648.066 326.3 647.936 326.963 647.676 327.59C647.416 328.217 647.05 328.77 646.576 329.25C646.103 329.73 645.546 330.11 644.906 330.39C644.266 330.663 643.563 330.8 642.796 330.8ZM642.796 329.14C643.456 329.14 644.04 328.997 644.546 328.71C645.06 328.417 645.463 328.007 645.756 327.48C646.05 326.947 646.196 326.32 646.196 325.6C646.196 324.873 646.05 324.247 645.756 323.72C645.47 323.187 645.07 322.777 644.556 322.49C644.043 322.203 643.456 322.06 642.796 322.06C642.136 322.06 641.55 322.203 641.036 322.49C640.53 322.777 640.13 323.187 639.836 323.72C639.55 324.247 639.406 324.873 639.406 325.6C639.406 326.32 639.55 326.947 639.836 327.48C640.13 328.007 640.533 328.417 641.046 328.71C641.56 328.997 642.143 329.14 642.796 329.14ZM650.379 330.5V320.7H659.359V330.5H657.519V322.26H652.219V330.5H650.379ZM662.547 330.5V320.7H664.387V329.04H666.347C667.14 329.04 667.734 328.893 668.127 328.6C668.527 328.3 668.727 327.85 668.727 327.25C668.727 326.663 668.54 326.213 668.167 325.9C667.8 325.587 667.254 325.43 666.527 325.43H664.097V323.98H666.657C667.897 323.98 668.87 324.263 669.577 324.83C670.29 325.39 670.647 326.197 670.647 327.25C670.647 327.937 670.474 328.523 670.127 329.01C669.78 329.49 669.297 329.86 668.677 330.12C668.057 330.373 667.334 330.5 666.507 330.5H662.547ZM672.307 330.5V320.7H674.147V330.5H672.307ZM679.602 330.5V322.26H676.242V320.7H684.812V322.26H681.442V330.5H679.602ZM691.293 330.8C690.279 330.8 689.376 330.563 688.583 330.09C687.789 329.617 687.166 328.987 686.713 328.2C686.259 327.413 686.033 326.547 686.033 325.6C686.033 324.9 686.163 324.237 686.423 323.61C686.683 322.983 687.049 322.43 687.523 321.95C687.996 321.463 688.553 321.083 689.193 320.81C689.833 320.537 690.533 320.4 691.293 320.4C692.313 320.4 693.219 320.637 694.013 321.11C694.806 321.583 695.429 322.213 695.883 323C696.336 323.787 696.562 324.653 696.562 325.6C696.562 326.3 696.433 326.963 696.173 327.59C695.913 328.217 695.546 328.77 695.073 329.25C694.599 329.73 694.043 330.11 693.403 330.39C692.763 330.663 692.059 330.8 691.293 330.8ZM691.293 329.14C691.953 329.14 692.536 328.997 693.043 328.71C693.556 328.417 693.959 328.007 694.253 327.48C694.546 326.947 694.693 326.32 694.693 325.6C694.693 324.873 694.546 324.247 694.253 323.72C693.966 323.187 693.566 322.777 693.053 322.49C692.539 322.203 691.953 322.06 691.293 322.06C690.633 322.06 690.046 322.203 689.533 322.49C689.026 322.777 688.626 323.187 688.333 323.72C688.046 324.247 687.903 324.873 687.903 325.6C687.903 326.32 688.046 326.947 688.333 327.48C688.626 328.007 689.029 328.417 689.543 328.71C690.056 328.997 690.639 329.14 691.293 329.14ZM698.875 330.5V320.7H700.485H700.545L705.085 327.16L704.285 327.18L708.625 320.7H710.275V330.5H708.565L708.585 322.95L708.925 323.1L705.205 328.44H703.955L700.085 323.08L700.415 322.93L700.435 330.5H698.875ZM722.885 330.8C721.852 330.8 720.935 330.573 720.135 330.12C719.335 329.667 718.709 329.05 718.255 328.27C717.802 327.483 717.575 326.593 717.575 325.6C717.575 324.847 717.709 324.153 717.975 323.52C718.249 322.887 718.632 322.337 719.125 321.87C719.619 321.403 720.195 321.043 720.855 320.79C721.522 320.53 722.249 320.4 723.035 320.4C723.675 320.4 724.265 320.483 724.805 320.65C725.345 320.817 725.845 321.073 726.305 321.42L725.365 322.84C725.065 322.58 724.715 322.387 724.315 322.26C723.915 322.127 723.492 322.06 723.045 322.06C722.312 322.06 721.675 322.2 721.135 322.48C720.602 322.753 720.189 323.153 719.895 323.68C719.602 324.207 719.455 324.84 719.455 325.58C719.455 326.693 719.775 327.567 720.415 328.2C721.062 328.827 721.935 329.14 723.035 329.14C723.542 329.14 724.015 329.05 724.455 328.87C724.895 328.683 725.255 328.443 725.535 328.15L726.485 329.55C725.972 329.937 725.409 330.243 724.795 330.47C724.182 330.69 723.545 330.8 722.885 330.8ZM740.191 330.5L736.881 325.27L739.851 320.7H741.831L738.871 325.18L742.411 330.5H740.191ZM733.621 330.5V320.7H735.461V324.56H738.391V326.12H735.461V330.5H733.621ZM748.675 330.8C747.662 330.8 746.759 330.563 745.965 330.09C745.172 329.617 744.549 328.987 744.095 328.2C743.642 327.413 743.415 326.547 743.415 325.6C743.415 324.9 743.545 324.237 743.805 323.61C744.065 322.983 744.432 322.43 744.905 321.95C745.379 321.463 745.935 321.083 746.575 320.81C747.215 320.537 747.915 320.4 748.675 320.4C749.695 320.4 750.602 320.637 751.395 321.11C752.189 321.583 752.812 322.213 753.265 323C753.719 323.787 753.945 324.653 753.945 325.6C753.945 326.3 753.815 326.963 753.555 327.59C753.295 328.217 752.929 328.77 752.455 329.25C751.982 329.73 751.425 330.11 750.785 330.39C750.145 330.663 749.442 330.8 748.675 330.8ZM748.675 329.14C749.335 329.14 749.919 328.997 750.425 328.71C750.939 328.417 751.342 328.007 751.635 327.48C751.929 326.947 752.075 326.32 752.075 325.6C752.075 324.873 751.929 324.247 751.635 323.72C751.349 323.187 750.949 322.777 750.435 322.49C749.922 322.203 749.335 322.06 748.675 322.06C748.015 322.06 747.429 322.203 746.915 322.49C746.409 322.777 746.009 323.187 745.715 323.72C745.429 324.247 745.285 324.873 745.285 325.6C745.285 326.32 745.429 326.947 745.715 327.48C746.009 328.007 746.412 328.417 746.925 328.71C747.439 328.997 748.022 329.14 748.675 329.14ZM755.778 330.65L755.098 328.96C755.785 328.787 756.285 328.51 756.598 328.13C756.911 327.743 757.111 327.2 757.198 326.5C757.285 325.8 757.328 324.89 757.328 323.77V320.7H765.058V330.5H763.218V322.26H759.068V323.77C759.068 324.837 759.021 325.763 758.928 326.55C758.841 327.33 758.678 327.99 758.438 328.53C758.205 329.07 757.871 329.513 757.438 329.86C757.011 330.2 756.458 330.463 755.778 330.65ZM767.751 330.65L767.071 328.96C767.757 328.787 768.257 328.51 768.571 328.13C768.884 327.743 769.084 327.2 769.171 326.5C769.257 325.8 769.301 324.89 769.301 323.77V320.7H777.031V330.5H775.191V322.26H771.041V323.77C771.041 324.837 770.994 325.763 770.901 326.55C770.814 327.33 770.651 327.99 770.411 328.53C770.177 329.07 769.844 329.513 769.411 329.86C768.984 330.2 768.431 330.463 767.751 330.65ZM784.613 330.8C783.573 330.8 782.657 330.583 781.863 330.15C781.07 329.717 780.45 329.113 780.003 328.34C779.557 327.56 779.333 326.653 779.333 325.62C779.333 324.873 779.46 324.18 779.713 323.54C779.973 322.9 780.333 322.347 780.793 321.88C781.26 321.413 781.803 321.05 782.423 320.79C783.05 320.53 783.73 320.4 784.463 320.4C785.257 320.4 785.963 320.54 786.583 320.82C787.21 321.1 787.727 321.493 788.133 322C788.547 322.5 788.843 323.09 789.023 323.77C789.203 324.443 789.24 325.177 789.133 325.97H781.153C781.133 326.623 781.267 327.197 781.553 327.69C781.84 328.177 782.253 328.557 782.793 328.83C783.34 329.103 783.987 329.24 784.733 329.24C785.28 329.24 785.813 329.153 786.333 328.98C786.853 328.807 787.313 328.55 787.713 328.21L788.493 329.58C788.173 329.84 787.793 330.063 787.353 330.25C786.92 330.43 786.467 330.567 785.993 330.66C785.52 330.753 785.06 330.8 784.613 330.8ZM781.253 324.54H787.293C787.267 323.713 787.01 323.07 786.523 322.61C786.037 322.143 785.34 321.91 784.433 321.91C783.553 321.91 782.827 322.143 782.253 322.61C781.68 323.07 781.347 323.713 781.253 324.54ZM791.512 330.5V320.7H797.862V322.26H793.352V330.5H791.512ZM804.158 330.8C803.172 330.8 802.298 330.57 801.538 330.11C800.778 329.65 800.185 329.03 799.758 328.25C799.332 327.463 799.118 326.58 799.118 325.6C799.118 324.867 799.242 324.183 799.488 323.55C799.735 322.917 800.082 322.367 800.528 321.9C800.975 321.427 801.505 321.06 802.118 320.8C802.738 320.533 803.418 320.4 804.158 320.4C805.145 320.4 805.965 320.607 806.618 321.02C807.272 321.433 807.782 321.96 808.148 322.6L807.878 323V320.7H809.558V330.5H807.878V328.2L808.148 328.59C807.782 329.23 807.272 329.76 806.618 330.18C805.965 330.593 805.145 330.8 804.158 330.8ZM804.358 329.14C805.012 329.14 805.592 328.997 806.098 328.71C806.605 328.417 807.002 328.007 807.288 327.48C807.582 326.947 807.728 326.32 807.728 325.6C807.728 324.873 807.582 324.247 807.288 323.72C807.002 323.187 806.605 322.777 806.098 322.49C805.592 322.203 805.012 322.06 804.358 322.06C803.705 322.06 803.125 322.203 802.618 322.49C802.112 322.777 801.712 323.187 801.418 323.72C801.125 324.247 800.978 324.873 800.978 325.6C800.978 326.32 801.125 326.947 801.418 327.48C801.712 328.007 802.112 328.417 802.618 328.71C803.125 328.997 803.705 329.14 804.358 329.14ZM812.742 330.5V320.7H814.352H814.412L818.952 327.16L818.152 327.18L822.492 320.7H824.142V330.5H822.432L822.452 322.95L822.792 323.1L819.072 328.44H817.822L813.952 323.08L814.282 322.93L814.302 330.5H812.742ZM827.313 330.5V320.7H829.103V327.74L834.803 320.7H836.383V330.5H834.593V323.38L828.843 330.5H827.313Z" fill="black"/>
<rect x="472" y="392.5" width="236" height="75" rx="15" fill="#5B8DC8"/>
<path d="M524.045 437.5V423.5H535.605V437.5H533.005V425.88H526.645V437.5H524.045ZM543.483 437.8C542.416 437.8 541.47 437.56 540.643 437.08C539.823 436.593 539.18 435.95 538.713 435.15C538.246 434.343 538.013 433.46 538.013 432.5C538.013 431.793 538.146 431.12 538.413 430.48C538.68 429.84 539.056 429.277 539.543 428.79C540.036 428.297 540.616 427.91 541.283 427.63C541.95 427.343 542.683 427.2 543.483 427.2C544.543 427.2 545.483 427.44 546.303 427.92C547.13 428.4 547.776 429.043 548.243 429.85C548.716 430.657 548.953 431.54 548.953 432.5C548.953 433.207 548.816 433.88 548.543 434.52C548.276 435.153 547.9 435.717 547.413 436.21C546.926 436.703 546.35 437.093 545.683 437.38C545.016 437.66 544.283 437.8 543.483 437.8ZM543.483 435.56C544.043 435.56 544.543 435.437 544.983 435.19C545.43 434.937 545.78 434.583 546.033 434.13C546.286 433.67 546.413 433.127 546.413 432.5C546.413 431.873 546.286 431.33 546.033 430.87C545.78 430.41 545.433 430.057 544.993 429.81C544.553 429.563 544.05 429.44 543.483 429.44C542.916 429.44 542.41 429.563 541.963 429.81C541.523 430.057 541.176 430.41 540.923 430.87C540.676 431.33 540.553 431.873 540.553 432.5C540.553 433.127 540.68 433.67 540.933 434.13C541.186 434.583 541.533 434.937 541.973 435.19C542.413 435.437 542.916 435.56 543.483 435.56ZM551.06 437.5V427.5H560.78V437.5H558.22V429.58H553.62V437.5H551.06ZM563.736 441.7V427.5H565.996V428.82C566.383 428.333 566.879 427.943 567.486 427.65C568.093 427.35 568.826 427.2 569.686 427.2C570.653 427.2 571.513 427.427 572.266 427.88C573.019 428.333 573.609 428.96 574.036 429.76C574.469 430.553 574.686 431.467 574.686 432.5C574.686 433.24 574.563 433.93 574.316 434.57C574.069 435.21 573.723 435.773 573.276 436.26C572.829 436.74 572.296 437.117 571.676 437.39C571.063 437.663 570.386 437.8 569.646 437.8C568.926 437.8 568.286 437.677 567.726 437.43C567.173 437.177 566.693 436.833 566.286 436.4V441.7H563.736ZM569.216 435.56C569.783 435.56 570.286 435.437 570.726 435.19C571.166 434.937 571.513 434.583 571.766 434.13C572.019 433.67 572.146 433.127 572.146 432.5C572.146 431.873 572.019 431.33 571.766 430.87C571.513 430.41 571.163 430.057 570.716 429.81C570.276 429.563 569.776 429.44 569.216 429.44C568.649 429.44 568.146 429.563 567.706 429.81C567.266 430.057 566.919 430.41 566.666 430.87C566.413 431.33 566.286 431.873 566.286 432.5C566.286 433.127 566.409 433.67 566.656 434.13C566.909 434.583 567.256 434.937 567.696 435.19C568.143 435.437 568.649 435.56 569.216 435.56ZM581.53 437.8C580.463 437.8 579.517 437.56 578.69 437.08C577.87 436.593 577.227 435.95 576.76 435.15C576.293 434.343 576.06 433.46 576.06 432.5C576.06 431.793 576.193 431.12 576.46 430.48C576.727 429.84 577.103 429.277 577.59 428.79C578.083 428.297 578.663 427.91 579.33 427.63C579.997 427.343 580.73 427.2 581.53 427.2C582.59 427.2 583.53 427.44 584.35 427.92C585.177 428.4 585.823 429.043 586.29 429.85C586.763 430.657 587 431.54 587 432.5C587 433.207 586.863 433.88 586.59 434.52C586.323 435.153 585.947 435.717 585.46 436.21C584.973 436.703 584.397 437.093 583.73 437.38C583.063 437.66 582.33 437.8 581.53 437.8ZM581.53 435.56C582.09 435.56 582.59 435.437 583.03 435.19C583.477 434.937 583.827 434.583 584.08 434.13C584.333 433.67 584.46 433.127 584.46 432.5C584.46 431.873 584.333 431.33 584.08 430.87C583.827 430.41 583.48 430.057 583.04 429.81C582.6 429.563 582.097 429.44 581.53 429.44C580.963 429.44 580.457 429.563 580.01 429.81C579.57 430.057 579.223 430.41 578.97 430.87C578.723 431.33 578.6 431.873 578.6 432.5C578.6 433.127 578.727 433.67 578.98 434.13C579.233 434.583 579.58 434.937 580.02 435.19C580.46 435.437 580.963 435.56 581.53 435.56ZM594.057 437.8C593.21 437.8 592.447 437.657 591.767 437.37C591.087 437.077 590.504 436.657 590.017 436.11C589.53 435.557 589.157 434.887 588.897 434.1C588.644 433.307 588.517 432.41 588.517 431.41C588.517 430.303 588.604 429.317 588.777 428.45C588.957 427.577 589.24 426.82 589.627 426.18C590.014 425.54 590.52 425.017 591.147 424.61C591.774 424.203 592.53 423.913 593.417 423.74L598.207 422.8L598.607 424.97L593.947 425.83C593.214 425.977 592.637 426.207 592.217 426.52C591.797 426.833 591.487 427.24 591.287 427.74C591.087 428.233 590.957 428.823 590.897 429.51C591.317 428.997 591.827 428.59 592.427 428.29C593.027 427.99 593.72 427.84 594.507 427.84C595.447 427.84 596.277 428.057 596.997 428.49C597.724 428.923 598.294 429.507 598.707 430.24C599.12 430.973 599.327 431.783 599.327 432.67C599.327 433.377 599.2 434.04 598.947 434.66C598.7 435.28 598.344 435.827 597.877 436.3C597.41 436.767 596.854 437.133 596.207 437.4C595.567 437.667 594.85 437.8 594.057 437.8ZM594.017 435.56C594.544 435.56 595.014 435.443 595.427 435.21C595.847 434.977 596.177 434.647 596.417 434.22C596.664 433.793 596.787 433.287 596.787 432.7C596.787 432.113 596.667 431.607 596.427 431.18C596.187 430.747 595.857 430.417 595.437 430.19C595.017 429.957 594.544 429.84 594.017 429.84C593.484 429.84 593.007 429.957 592.587 430.19C592.167 430.417 591.837 430.747 591.597 431.18C591.357 431.607 591.237 432.113 591.237 432.7C591.237 433.287 591.357 433.793 591.597 434.22C591.837 434.647 592.167 434.977 592.587 435.21C593.007 435.443 593.484 435.56 594.017 435.56ZM606.256 437.8C605.19 437.8 604.243 437.56 603.416 437.08C602.596 436.593 601.953 435.95 601.486 435.15C601.02 434.343 600.786 433.46 600.786 432.5C600.786 431.793 600.92 431.12 601.186 430.48C601.453 429.84 601.83 429.277 602.316 428.79C602.81 428.297 603.39 427.91 604.056 427.63C604.723 427.343 605.456 427.2 606.256 427.2C607.316 427.2 608.256 427.44 609.076 427.92C609.903 428.4 610.55 429.043 611.016 429.85C611.49 430.657 611.726 431.54 611.726 432.5C611.726 433.207 611.59 433.88 611.316 434.52C611.05 435.153 610.673 435.717 610.186 436.21C609.7 436.703 609.123 437.093 608.456 437.38C607.79 437.66 607.056 437.8 606.256 437.8ZM606.256 435.56C606.816 435.56 607.316 435.437 607.756 435.19C608.203 434.937 608.553 434.583 608.806 434.13C609.06 433.67 609.186 433.127 609.186 432.5C609.186 431.873 609.06 431.33 608.806 430.87C608.553 430.41 608.206 430.057 607.766 429.81C607.326 429.563 606.823 429.44 606.256 429.44C605.69 429.44 605.183 429.563 604.736 429.81C604.296 430.057 603.95 430.41 603.696 430.87C603.45 431.33 603.326 431.873 603.326 432.5C603.326 433.127 603.453 433.67 603.706 434.13C603.96 434.583 604.306 434.937 604.746 435.19C605.186 435.437 605.69 435.56 606.256 435.56ZM613.834 437.5V427.5H618.764C619.917 427.5 620.83 427.717 621.504 428.15C622.184 428.577 622.524 429.22 622.524 430.08C622.524 430.507 622.417 430.88 622.204 431.2C621.99 431.513 621.7 431.773 621.334 431.98C620.967 432.18 620.55 432.323 620.084 432.41L620.044 431.84C620.957 431.947 621.67 432.237 622.184 432.71C622.697 433.177 622.954 433.777 622.954 434.51C622.954 435.13 622.794 435.663 622.474 436.11C622.16 436.557 621.704 436.9 621.104 437.14C620.504 437.38 619.78 437.5 618.934 437.5H613.834ZM616.294 435.68H618.594C619.187 435.68 619.644 435.58 619.964 435.38C620.284 435.173 620.444 434.873 620.444 434.48C620.444 434.093 620.284 433.8 619.964 433.6C619.65 433.4 619.194 433.3 618.594 433.3H616.004V431.56H618.354C618.914 431.56 619.347 431.473 619.654 431.3C619.96 431.12 620.114 430.837 620.114 430.45C620.114 430.057 619.957 429.77 619.644 429.59C619.337 429.41 618.907 429.32 618.354 429.32H616.294V435.68ZM629.518 437.8C628.538 437.8 627.668 437.573 626.908 437.12C626.155 436.667 625.561 436.04 625.128 435.24C624.695 434.44 624.478 433.527 624.478 432.5C624.478 431.727 624.601 431.017 624.848 430.37C625.095 429.723 625.441 429.163 625.888 428.69C626.341 428.217 626.875 427.85 627.488 427.59C628.108 427.33 628.785 427.2 629.518 427.2C630.485 427.2 631.298 427.407 631.958 427.82C632.618 428.233 633.111 428.77 633.438 429.43L633.078 429.98V427.5H635.328V437.5H633.078V435.02L633.438 435.57C633.111 436.23 632.618 436.767 631.958 437.18C631.298 437.593 630.485 437.8 629.518 437.8ZM629.898 435.56C630.451 435.56 630.945 435.437 631.378 435.19C631.811 434.937 632.155 434.583 632.408 434.13C632.661 433.67 632.788 433.127 632.788 432.5C632.788 431.873 632.661 431.33 632.408 430.87C632.155 430.41 631.811 430.057 631.378 429.81C630.945 429.563 630.451 429.44 629.898 429.44C629.345 429.44 628.848 429.563 628.408 429.81C627.975 430.057 627.631 430.41 627.378 430.87C627.131 431.33 627.008 431.873 627.008 432.5C627.008 433.127 627.131 433.67 627.378 434.13C627.631 434.583 627.975 434.937 628.408 435.19C628.848 435.437 629.345 435.56 629.898 435.56ZM640.437 437.5V429.58H637.287V427.5H646.147V429.58H642.997V437.5H640.437ZM648.091 437.5V427.5H650.651V435.62H652.361C653.015 435.62 653.508 435.49 653.841 435.23C654.181 434.963 654.351 434.577 654.351 434.07C654.351 433.57 654.195 433.183 653.881 432.91C653.568 432.63 653.118 432.49 652.531 432.49H650.341V430.63H652.731C654.051 430.63 655.091 430.923 655.851 431.51C656.611 432.09 656.991 432.943 656.991 434.07C656.991 434.783 656.811 435.397 656.451 435.91C656.091 436.423 655.585 436.817 654.931 437.09C654.278 437.363 653.511 437.5 652.631 437.5H648.091Z" fill="white"/>
</svg>
