<svg width="38" height="34" viewBox="0 0 38 34" fill="none" xmlns="http://www.w3.org/2000/svg">
<path d="M9.45078 33.546C8.59758 33.0825 8.10535 32.4204 7.97409 31.5597C7.90846 30.6989 8.17098 29.772 8.76166 28.7788L15.6529 17.854L16.7358 19.4431L3.83938 19.9397C2.65803 19.9397 1.70639 19.7079 0.984456 19.2444C0.328152 18.7148 0 17.9533 0 16.9602C0 16.0332 0.328152 15.338 0.984456 14.8745C1.70639 14.3448 2.65803 14.1131 3.83938 14.1793L16.7358 14.6759L15.6529 16.1656L8.8601 5.14153C8.2038 4.14836 7.94128 3.22141 8.07254 2.36067C8.2038 1.49993 8.66321 0.837821 9.45078 0.374347C10.2383 -0.0891308 11.0259 -0.122236 11.8135 0.275032C12.6667 0.672296 13.3558 1.40061 13.8808 2.45999L19.4922 13.3848H18.5078L24.1192 2.45999C24.7098 1.40061 25.399 0.672296 26.1865 0.275032C27.0397 -0.122236 27.8601 -0.0891308 28.6477 0.374347C29.4352 0.904035 29.8618 1.59925 29.9275 2.45999C30.0587 3.32073 29.7962 4.24768 29.1399 5.24084L22.3471 16.1656L21.2642 14.6759L34.1606 14.1793C35.342 14.1131 36.2608 14.3448 36.9171 14.8745C37.639 15.338 38 16.0332 38 16.9602C38 17.9533 37.639 18.7148 36.9171 19.2444C36.2608 19.7079 35.342 19.9397 34.1606 19.9397L21.2642 19.4431L22.3471 17.854L29.1399 28.7788C29.7962 29.772 30.0587 30.6989 29.9275 31.5597C29.8618 32.3542 29.4352 32.9832 28.6477 33.4467C27.7945 33.9764 26.9413 34.0426 26.0881 33.6453C25.3005 33.248 24.6442 32.5528 24.1192 31.5597L18.5078 20.6349H19.4922L13.7824 31.5597C13.2573 32.619 12.601 33.3474 11.8135 33.7446C11.0259 34.1419 10.2383 34.0757 9.45078 33.546Z" fill="#D85B5D"/>
</svg>
