<svg width="40" height="40" viewBox="0 0 40 40" fill="none" xmlns="http://www.w3.org/2000/svg">
<g clip-path="url(#clip0_904_510)">
<path d="M20.0008 0.799805C9.39678 0.799805 0.800781 9.3958 0.800781 19.9998C0.800781 30.6038 9.39678 39.1998 20.0008 39.1998C30.6048 39.1998 39.2008 30.6038 39.2008 19.9998C39.2008 9.3958 30.6048 0.799805 20.0008 0.799805ZM27.3848 22.4618C27.3848 22.4618 29.0828 24.1378 29.5008 24.9158C29.5128 24.9318 29.5188 24.9478 29.5228 24.9558C29.6928 25.2418 29.7328 25.4638 29.6488 25.6298C29.5088 25.9058 29.0288 26.0418 28.8648 26.0538H25.8648C25.6568 26.0538 25.2208 25.9998 24.6928 25.6358C24.2868 25.3518 23.8868 24.8858 23.4968 24.4318C22.9148 23.7558 22.4108 23.1718 21.9028 23.1718C21.8383 23.1717 21.7741 23.1818 21.7128 23.2018C21.3288 23.3258 20.8368 23.8738 20.8368 25.3338C20.8368 25.7898 20.4768 26.0518 20.2228 26.0518H18.8488C18.3808 26.0518 15.9428 25.8878 13.7828 23.6098C11.1388 20.8198 8.75878 15.2238 8.73878 15.1718C8.58878 14.8098 8.89878 14.6158 9.23678 14.6158H12.2668C12.6708 14.6158 12.8028 14.8618 12.8948 15.0798C13.0028 15.3338 13.3988 16.3438 14.0488 17.4798C15.1028 19.3318 15.7488 20.0838 16.2668 20.0838C16.3639 20.0827 16.4593 20.058 16.5448 20.0118C17.2208 19.6358 17.0948 17.2258 17.0648 16.7258C17.0648 16.6318 17.0628 15.6478 16.7168 15.1758C16.4688 14.8338 16.0468 14.7038 15.7908 14.6558C15.8944 14.5128 16.0309 14.3969 16.1888 14.3178C16.6528 14.0858 17.4888 14.0518 18.3188 14.0518H18.7808C19.6808 14.0638 19.9128 14.1218 20.2388 14.2038C20.8988 14.3618 20.9128 14.7878 20.8548 16.2458C20.8368 16.6598 20.8188 17.1278 20.8188 17.6798C20.8188 17.7998 20.8128 17.9278 20.8128 18.0638C20.7928 18.8058 20.7688 19.6478 21.2928 19.9938C21.3611 20.0367 21.4401 20.0595 21.5208 20.0598C21.7028 20.0598 22.2508 20.0598 23.7348 17.5138C24.1925 16.6943 24.5902 15.8428 24.9248 14.9658C24.9548 14.9138 25.0428 14.7538 25.1468 14.6918C25.2235 14.6527 25.3086 14.6328 25.3948 14.6338H28.9568C29.3448 14.6338 29.6108 14.6918 29.6608 14.8418C29.7488 15.0798 29.6448 15.8058 28.0188 18.0078L27.2928 18.9658C25.8188 20.8978 25.8188 20.9958 27.3848 22.4618Z" fill="#413375"/>
</g>
<defs>
<clipPath id="clip0_904_510">
<rect width="40" height="40" fill="white"/>
</clipPath>
</defs>
</svg>
