<svg width="165" height="225" viewBox="0 0 165 225" fill="none" xmlns="http://www.w3.org/2000/svg">
<path d="M15.4685 36.0938L54.1404 97.9688L141.797 123.75L153.687 127.906C153.986 127.605 154.221 127.245 154.375 126.849C154.529 126.454 154.6 126.031 154.584 125.606V23.8219C154.584 22.0687 153.192 20.625 151.387 20.625H13.5091C12.6326 20.625 11.8334 20.9859 11.2559 21.5686L15.4685 36.0938Z" fill="#FFCE7C"/>
<path d="M13.5094 128.854H151.439C152.316 128.854 153.115 128.494 153.687 127.906L149.531 123.75L15.4687 25.781L11.2561 21.5684C10.6557 22.1649 10.3163 22.9752 10.3125 23.8216V125.658C10.3125 127.411 11.7562 128.854 13.5094 128.854Z" fill="#E19747"/>
<path d="M15.4688 123.698V25.7812H149.48V123.698H15.4688Z" fill="#44911B"/>
<path d="M121.637 64.3501C122.771 61.9782 123.39 59.3485 123.39 56.5641C123.39 52.9032 122.307 49.5001 120.399 46.6641C118.498 43.8093 117.493 40.4518 117.512 37.0219V36.9704C117.512 27.0704 109.468 19.0266 99.568 19.0266C98.5883 19.0266 97.6601 18.5626 97.093 17.7891C95.4548 15.4719 93.2832 13.5829 90.7614 12.2816C88.2396 10.9803 85.4417 10.305 82.6039 10.3126C76.5711 10.3126 71.2602 13.2516 68.0117 17.7891C67.7351 18.189 67.3651 18.5154 66.9338 18.74C66.5025 18.9647 66.023 19.0807 65.5367 19.0782C55.6367 19.0782 47.593 27.1219 47.593 37.0219V37.0735C47.593 40.5282 46.6133 43.8282 44.7055 46.7157C42.8492 49.5001 41.7148 52.9032 41.7148 56.5641C41.7148 59.3485 42.3336 61.9782 43.468 64.3501C43.8289 65.1235 43.8289 66.0516 43.468 66.8251C42.3336 69.1454 41.7148 71.7235 41.7148 74.5079C41.7148 84.1501 49.5523 91.9876 59.1945 91.9876H105.859C115.501 91.9876 123.338 84.1501 123.338 74.5079C123.338 71.7751 122.72 69.1454 121.585 66.8251C121.429 66.4298 121.353 66.0073 121.362 65.5824C121.37 65.1574 121.464 64.7385 121.637 64.3501Z" fill="#FFF9BA"/>
<path d="M46.4062 92.8899C56.558 84.492 69.3249 79.9051 82.5 79.9219C96.2156 79.9219 108.792 84.7946 118.594 92.9054L126.328 123.75L118.594 154.688H46.4062L38.6719 123.75L46.4062 92.8899Z" fill="#8C5543"/>
<path d="M58.2143 97.6594L65.2268 82.5H72.1877V154.688L57.7502 114.108C57.4335 113.225 57.3769 112.27 57.5872 111.356C57.7974 110.442 58.2656 109.607 58.9362 108.952L65.9487 102.094C66.7737 101.269 66.2065 99.7734 64.969 99.7734H59.5549C58.4721 99.7734 57.7502 98.6391 58.2143 97.6594ZM107.044 97.6594L100.031 82.5H92.8127V154.688L107.508 114.108C108.178 112.303 107.663 110.292 106.322 108.952L99.3096 102.094C99.1219 101.901 98.9952 101.658 98.9453 101.393C98.8954 101.129 98.9245 100.856 99.0291 100.608C99.1337 100.361 99.3091 100.149 99.5332 100.001C99.7574 99.8522 100.02 99.7732 100.289 99.7734H105.703C106.786 99.7734 107.508 98.6391 107.044 97.6594ZM46.4065 92.8125C33.8768 103.28 25.7299 119.058 25.7815 136.641V154.688H46.4065V92.8125ZM118.594 92.8125V154.688H139.219V149.531L139.167 136.589C139.167 119.006 131.227 103.228 118.594 92.8125Z" fill="#6D4534"/>
<path d="M93.0711 86.7285H71.8789V154.688H93.0711V86.7285Z" fill="#E6E6E6"/>
<path d="M82.4995 96.2674C76.6214 96.2674 71.8777 91.5236 71.8777 85.6455V72.4455C71.8777 66.5674 76.6214 61.8236 82.4995 61.8236C88.3777 61.8236 93.1214 66.5674 93.1214 72.4455V85.6455C93.1078 88.4584 91.9844 91.1523 89.9954 93.1413C88.0063 95.1304 85.3125 96.2538 82.4995 96.2674ZM67.0359 55.1205C67.0359 57.3496 66.1504 59.4873 64.5743 61.0635C62.9981 62.6397 60.8603 63.5252 58.6313 63.5252C56.4022 63.5252 54.2644 62.6397 52.6882 61.0635C51.1121 59.4873 50.2266 57.3496 50.2266 55.1205C50.2266 52.8914 51.1121 50.7537 52.6882 49.1775C54.2644 47.6013 56.4022 46.7158 58.6313 46.7158C60.8603 46.7158 62.9981 47.6013 64.5743 49.1775C66.1504 50.7537 67.0359 52.8914 67.0359 55.1205ZM114.463 55.1205C114.463 56.2242 114.246 57.3171 113.823 58.3368C113.401 59.3565 112.782 60.2831 112.001 61.0635C111.221 61.844 110.294 62.4631 109.275 62.8854C108.255 63.3078 107.162 63.5252 106.058 63.5252C104.955 63.5252 103.862 63.3078 102.842 62.8854C101.822 62.4631 100.896 61.844 100.115 61.0635C99.335 60.2831 98.7159 59.3565 98.2935 58.3368C97.8711 57.3171 97.6537 56.2242 97.6537 55.1205C97.6537 52.8914 98.5392 50.7537 100.115 49.1775C101.692 47.6013 103.829 46.7158 106.058 46.7158C108.287 46.7158 110.425 47.6013 112.001 49.1775C113.578 50.7537 114.463 52.8914 114.463 55.1205Z" fill="#E4B29A"/>
<path d="M93.1734 86.7793H71.9297V154.79H93.1734V86.7793Z" fill="#E6E6E6"/>
<path d="M82.5 96.3188C76.792 96.3188 72.1875 91.575 72.1875 85.6969V72.4969C72.1875 66.6188 76.792 61.875 82.5 61.875C88.208 61.875 92.8125 66.6188 92.8125 72.4969V85.6969C92.8125 91.575 88.208 96.3188 82.5 96.3188Z" fill="#E4B29A"/>
<path d="M103.847 39.4969H86.5734C79.7156 39.4969 73.3219 36.0938 69.4547 30.4735C69.3093 30.2607 69.108 30.0921 68.8731 29.9862C68.6381 29.8803 68.3785 29.8412 68.1228 29.8731C67.8671 29.9051 67.6251 30.0069 67.4235 30.1674C67.2218 30.3279 67.0683 30.5408 66.9797 30.7828L66.5672 31.8141C65.3606 34.7789 61.9369 37.3003 59.5031 38.6203C58.2656 39.2906 55.275 41.25 55.1719 46.4063L55.8938 63.6281C56.5125 78.8906 68.2688 89.1 82.5516 89.1C96.8344 89.1 108.591 78.8906 109.209 63.6281L109.88 47.2313C109.88 40.0125 104.827 39.4969 103.847 39.4969Z" fill="#EEBFAA"/>
<path d="M68.371 49.5C71.4132 49.5 73.9397 51.6141 75.4866 53.9859C74.2354 54.3572 73.0082 54.7147 71.805 55.0584C69.3919 55.7494 67.0304 56.4248 64.5554 57.2859L61.9772 54.9656C60.946 53.9859 60.9975 52.2328 62.1835 51.4078C63.885 50.1703 66.2053 49.5 68.371 49.5ZM96.7819 49.5C93.7397 49.5 91.2132 51.6141 89.6663 53.9859C91.0069 54.3916 92.3269 54.78 93.6263 55.1512C95.9208 55.8112 98.1947 56.4661 100.598 57.2859L103.176 54.9656C104.207 53.9859 104.155 52.2328 102.969 51.4078C101.268 50.1703 98.9475 49.5 96.7819 49.5Z" fill="black"/>
<path d="M61.926 55.7908C62.751 52.4908 65.7416 50.0673 69.2994 50.0673C73.0119 50.0673 76.0541 52.697 76.776 56.2033C76.9307 56.9251 76.3119 57.647 75.5385 57.647H63.4213C62.4416 57.647 61.7197 56.7189 61.926 55.7908ZM103.176 55.7908C102.758 54.1154 101.779 52.6331 100.404 51.5893C99.0281 50.5455 97.3372 50.0027 95.611 50.0508C93.8848 50.0989 92.2268 50.735 90.9114 51.8539C89.596 52.9727 88.702 54.5072 88.3775 56.2033C88.2229 56.9251 88.8416 57.647 89.615 57.647H101.732C102.66 57.647 103.434 56.7189 103.176 55.7908Z" fill="white"/>
<path d="M65.5879 56.3576C65.5879 53.6764 67.7535 51.5107 70.4348 51.5107C73.116 51.5107 75.2816 53.6764 75.2301 56.3576C75.2301 56.8217 75.1785 57.2342 75.0754 57.6467H65.7426C65.6395 57.2342 65.5879 56.8217 65.5879 56.3576ZM99.5676 56.3576C99.5676 53.6764 97.402 51.5107 94.7207 51.5107C92.0395 51.5107 89.8223 53.6764 89.9254 56.3576C89.9254 56.8217 89.9769 57.2342 90.0801 57.6467H99.4129C99.516 57.2342 99.5676 56.8217 99.5676 56.3576Z" fill="#7D4533"/>
<path d="M70.4351 53.5732C71.982 53.5732 73.2195 54.8107 73.2195 56.3576C73.2195 56.8217 73.0648 57.2342 72.8586 57.6467H67.9601C67.7413 57.2214 67.6352 56.7471 67.6521 56.2691C67.669 55.7911 67.8083 55.3255 68.0567 54.9167C68.305 54.508 68.6541 54.1698 69.0706 53.9346C69.487 53.6994 69.9568 53.5749 70.4351 53.5732ZM94.7211 53.5732C93.1742 53.5732 91.9367 54.8107 91.9367 56.3576C91.9367 56.8217 92.0398 57.2342 92.2976 57.6467H97.1961C97.4149 57.2214 97.5209 56.7471 97.504 56.2691C97.4871 55.7911 97.3478 55.3255 97.0995 54.9167C96.8511 54.508 96.502 54.1698 96.0856 53.9346C95.6692 53.6994 95.1993 53.5749 94.7211 53.5732Z" fill="black"/>
<path d="M69.6613 54.4498C69.6613 54.6823 69.569 54.9052 69.4046 55.0696C69.2402 55.234 69.0172 55.3264 68.7848 55.3264C68.5523 55.3264 68.3293 55.234 68.1649 55.0696C68.0006 54.9052 67.9082 54.6823 67.9082 54.4498C67.9082 54.2173 68.0006 53.9944 68.1649 53.83C68.3293 53.6656 68.5523 53.5732 68.7848 53.5732C69.0172 53.5732 69.2402 53.6656 69.4046 53.83C69.569 53.9944 69.6613 54.2173 69.6613 54.4498ZM93.9473 54.4498C93.9473 54.6823 93.8549 54.9052 93.6905 55.0696C93.5261 55.234 93.3032 55.3264 93.0707 55.3264C92.8382 55.3264 92.6153 55.234 92.4509 55.0696C92.2865 54.9052 92.1941 54.6823 92.1941 54.4498C92.1941 54.2173 92.2865 53.9944 92.4509 53.83C92.6153 53.6656 92.8382 53.5732 93.0707 53.5732C93.3032 53.5732 93.5261 53.6656 93.6905 53.83C93.8549 53.9944 93.9473 54.2173 93.9473 54.4498Z" fill="white"/>
<path d="M82.551 72.7034C79.7151 72.7034 77.0854 72.033 74.8167 70.8471C74.0432 70.4346 73.2698 71.3112 73.7338 72.033C75.5901 74.9205 78.8385 76.8284 82.551 76.8284C86.2635 76.8284 89.512 74.9205 91.3682 72.033C91.8323 71.3112 91.0073 70.4346 90.2854 70.8471C88.0167 72.033 85.387 72.7034 82.551 72.7034Z" fill="#990838"/>
<path d="M80.5404 55.12L77.8076 64.0404C77.2404 65.845 78.6326 67.7013 80.5404 67.7013H84.6138C86.5217 67.7013 87.9138 65.845 87.3467 64.0404L84.5623 55.12C84.4245 54.6952 84.1557 54.3249 83.7944 54.0623C83.4331 53.7997 82.998 53.6582 82.5513 53.6582C82.1047 53.6582 81.6696 53.7997 81.3083 54.0623C80.947 54.3249 80.6782 54.6952 80.5404 55.12Z" fill="#D19479"/>
<path d="M101.062 46.5095C101.268 46.6642 101.526 46.7157 101.783 46.7157C102.299 46.7157 102.763 46.4579 103.021 45.9423C103.122 45.7773 103.19 45.5936 103.219 45.402C103.248 45.2105 103.238 45.0151 103.19 44.8275C103.141 44.6398 103.056 44.4638 102.939 44.3099C102.821 44.1559 102.674 44.0272 102.505 43.9314C102.351 43.8282 97.6069 41.1986 92.1928 42.1782C91.3678 42.3329 90.8522 43.1064 91.0069 43.8798C91.1615 44.7048 91.935 45.2204 92.7084 45.0657C96.7148 44.3593 100.34 46.1537 100.964 46.4631L101.062 46.5095ZM62.0287 45.9939C62.2286 46.3126 62.5389 46.5465 62.9002 46.6512C63.2616 46.7558 63.6489 46.7237 63.9881 46.561C64.0397 46.5095 67.9584 44.3439 72.3412 45.1173C73.1147 45.272 73.8881 44.7048 74.0428 43.9314C74.1975 43.1579 73.6303 42.3845 72.8569 42.2298C67.6645 41.2398 63.1373 43.6632 62.5959 43.9571L62.5444 43.9829C61.874 44.3954 61.6162 45.272 62.0287 45.9939Z" fill="#A56953"/>
<path d="M107.095 46.9217H89.2023C87.6555 46.9217 86.2117 47.6436 85.232 48.8295C84.9172 49.2229 84.5166 49.5389 84.0608 49.7534C83.6049 49.9679 83.1061 50.0752 82.6023 50.067C82.0986 50.0752 81.5998 49.9679 81.1439 49.7534C80.6881 49.5389 80.2875 49.2229 79.9727 48.8295C78.993 47.6436 77.5492 46.9217 76.0023 46.9217H58.007C57.0273 46.9217 56.2539 47.6952 56.2539 48.6749V49.8092C56.2539 50.3764 56.5117 50.8405 56.9242 51.1499C57.1305 51.3045 57.2852 51.5624 57.2852 51.8202V57.492C57.2852 62.9061 61.668 67.3405 67.1336 67.3405H70.7945C76.2086 67.3405 80.643 62.9577 80.643 57.492V54.3467C80.6945 53.3155 81.5195 52.542 82.5508 52.542C83.582 52.542 84.407 53.367 84.4586 54.3983V57.492C84.4586 62.9577 88.893 67.3405 94.307 67.3405H97.968C103.434 67.3405 107.816 62.9061 107.816 57.492V51.7686C107.816 51.5108 107.92 51.253 108.126 51.0983C108.538 50.7889 108.796 50.2733 108.796 49.7577V48.6233C108.803 48.3979 108.764 48.1734 108.681 47.9638C108.598 47.7541 108.473 47.5636 108.314 47.4042C108.154 47.2447 107.964 47.1196 107.754 47.0367C107.544 46.9537 107.32 46.9146 107.095 46.9217ZM78.9414 56.9764C78.9414 61.6686 75.1258 65.4842 70.4336 65.4842H67.5977C62.9055 65.4842 59.0898 61.6686 59.0898 56.9764V53.2639C59.0898 50.7374 61.1008 48.7264 63.6273 48.7264H74.3523C76.8789 48.7264 78.8898 50.7374 78.8898 53.2639V56.9764H78.9414ZM106.166 56.9764C106.166 61.6686 102.351 65.4842 97.6586 65.4842H94.8227C90.1305 65.4842 86.3148 61.6686 86.3148 56.9764V53.2639C86.3148 50.7374 88.3258 48.7264 90.8523 48.7264H101.629C104.155 48.7264 106.166 50.7374 106.166 53.2639V56.9764Z" fill="#433B6B"/>
<path d="M48.1074 124.317C48.1074 121.481 50.4277 119.161 53.2637 119.161C56.0996 119.161 58.4199 121.481 58.4199 124.317V136.125H48.1074V124.317ZM116.943 124.317C116.943 121.481 114.623 119.161 111.787 119.161C108.951 119.161 106.631 121.481 106.631 124.317V136.125H116.943V124.317Z" fill="#E4B29A"/>
<path d="M58.3164 117.975V154.688H111.632V112.458C111.632 110.138 109.776 108.282 107.455 108.282H68.0617C62.6477 108.23 58.3164 112.613 58.3164 117.975Z" fill="#F92F60"/>
<path d="M53.1602 154.688V112.819C53.1602 107.457 57.4914 103.074 62.9055 103.125H107.455C109.776 103.125 111.632 104.982 111.632 107.302V110.525H61.8742V154.688H53.1602Z" fill="#433B6B"/>
<path d="M111.581 107.56H62.3902C61.2005 107.56 60.0595 108.032 59.2182 108.873C58.3769 109.715 57.9043 110.856 57.9043 112.046C57.9043 113.235 58.3769 114.376 59.2182 115.218C60.0595 116.059 61.2005 116.531 62.3902 116.531H111.581V107.56Z" fill="#E6E6E6"/>
<path d="M73.5285 131.433C73.4844 130.413 73.0456 129.45 72.3047 128.748C71.5639 128.045 70.579 127.658 69.5582 127.669V127.617H52.5426C51.3528 127.617 50.2118 128.09 49.3705 128.931C48.5293 129.772 48.0566 130.913 48.0566 132.103V150.202C48.0566 152.677 50.0676 154.688 52.5426 154.688H69.5582C71.6723 154.688 73.477 153.038 73.5285 150.923C73.5285 149.531 72.8582 148.294 71.7754 147.572C72.8582 146.902 73.5285 145.716 73.5285 144.375C73.5285 143.034 72.8066 141.848 71.7754 141.178C72.8582 140.508 73.5285 139.322 73.5285 137.981C73.5285 136.641 72.8066 135.455 71.7754 134.784C72.3301 134.423 72.7827 133.924 73.0897 133.338C73.3966 132.751 73.5478 132.095 73.5285 131.433ZM91.4207 131.433C91.4723 129.319 93.277 127.669 95.391 127.669V127.617H112.407C114.882 127.617 116.893 129.628 116.893 132.103V150.202C116.893 152.677 114.882 154.688 112.407 154.688H95.391C93.277 154.688 91.4723 153.038 91.4207 150.923C91.4207 149.531 92.091 148.294 93.1738 147.572C92.6313 147.235 92.1849 146.764 91.8778 146.203C91.5707 145.643 91.4132 145.014 91.4207 144.375C91.4207 143.034 92.1426 141.848 93.1738 141.178C92.6313 140.841 92.1849 140.37 91.8778 139.81C91.5707 139.25 91.4132 138.62 91.4207 137.981C91.4207 136.641 92.1426 135.455 93.1738 134.784C92.6191 134.423 92.1665 133.924 91.8596 133.338C91.5526 132.751 91.4015 132.095 91.4207 131.433Z" fill="#EEBFAA"/>
<path d="M18.982 207.336L17.75 204.452C18.8327 204.191 19.808 203.803 20.676 203.29C21.5533 202.777 22.3513 202.095 23.07 201.246C23.7887 200.397 24.4513 199.347 25.058 198.096L30.28 187.4H33.906L27.984 199.076C27.3307 200.364 26.6727 201.484 26.01 202.436C25.3473 203.379 24.6567 204.177 23.938 204.83C23.2193 205.483 22.4493 206.011 21.628 206.412C20.816 206.813 19.934 207.121 18.982 207.336ZM24.624 200.84L17.162 187.4H20.984L26.724 198.068L24.624 200.84ZM43.4205 207V201.582C42.7672 201.75 42.1465 201.876 41.5585 201.96C40.9799 202.044 40.3685 202.086 39.7245 202.086C38.4832 202.086 37.4379 201.895 36.5885 201.512C35.7392 201.129 35.0999 200.551 34.6705 199.776C34.2412 199.001 34.0265 198.026 34.0265 196.85V193.14H37.1065V196.416C37.1065 197.405 37.3445 198.157 37.8205 198.67C38.2965 199.183 39.1085 199.44 40.2565 199.44C40.9192 199.44 41.4979 199.412 41.9925 199.356C42.4965 199.291 42.9725 199.211 43.4205 199.118V193.14H46.5005V207H43.4205ZM50.7904 207V193.14H53.7724V202.492L61.2904 193.14H63.9784V207H61.0104V197.536L53.4224 207H50.7904ZM71.3571 207V195.688H66.8071V193.14H79.0011V195.688H74.4371V207H71.3571ZM88.1536 207.42C86.6603 207.42 85.3489 207.117 84.2196 206.51C83.0903 205.894 82.2083 205.035 81.5736 203.934C80.9483 202.833 80.6356 201.554 80.6356 200.098C80.6356 199.034 80.8176 198.054 81.1816 197.158C81.5456 196.253 82.0589 195.469 82.7216 194.806C83.3843 194.143 84.1589 193.63 85.0456 193.266C85.9416 192.902 86.9169 192.72 87.9716 192.72C89.1196 192.72 90.1416 192.925 91.0376 193.336C91.9336 193.737 92.6756 194.302 93.2636 195.03C93.8609 195.758 94.2809 196.612 94.5236 197.592C94.7756 198.563 94.8176 199.617 94.6496 200.756H83.5896C83.5709 201.587 83.7529 202.315 84.1356 202.94C84.5183 203.556 85.0643 204.037 85.7736 204.382C86.4923 204.727 87.3369 204.9 88.3076 204.9C89.0916 204.9 89.8476 204.783 90.5756 204.55C91.3129 204.307 91.9803 203.953 92.5776 203.486L93.7676 205.698C93.3196 206.062 92.7783 206.375 92.1436 206.636C91.5089 206.888 90.8463 207.079 90.1556 207.21C89.4649 207.35 88.7976 207.42 88.1536 207.42ZM83.7716 198.488H91.6256C91.5976 197.443 91.2616 196.621 90.6176 196.024C89.9829 195.427 89.0776 195.128 87.9016 195.128C86.7629 195.128 85.8156 195.427 85.0596 196.024C84.3129 196.621 83.8836 197.443 83.7716 198.488ZM97.345 207.238L96.267 204.466C97.219 204.223 97.9144 203.841 98.353 203.318C98.801 202.795 99.081 202.067 99.193 201.134C99.3144 200.201 99.375 198.997 99.375 197.522V193.14H110.645V207H107.565V195.688H102.245V197.522C102.245 199.006 102.175 200.299 102.035 201.4C101.904 202.501 101.662 203.439 101.307 204.214C100.952 204.989 100.453 205.623 99.809 206.118C99.1744 206.603 98.353 206.977 97.345 207.238ZM113.973 207L119.293 199.902L119.965 201.89C118.817 201.899 117.837 201.731 117.025 201.386C116.213 201.031 115.592 200.537 115.163 199.902C114.743 199.258 114.533 198.497 114.533 197.62C114.533 196.677 114.771 195.875 115.247 195.212C115.723 194.54 116.395 194.027 117.263 193.672C118.131 193.317 119.148 193.14 120.315 193.14H126.293V207H123.325V195.478H120.623C119.634 195.478 118.882 195.651 118.369 195.996C117.865 196.341 117.613 196.859 117.613 197.55C117.613 198.222 117.846 198.745 118.313 199.118C118.789 199.482 119.475 199.664 120.371 199.664H123.717V201.904H121.281L117.487 207H113.973ZM130.58 207V193.14H133.254H133.338L139.554 202.128L138.224 202.156L144.132 193.14H146.862V207H144.062L144.104 196.752L144.678 197.004L139.722 204.242H137.734L132.553 196.99L133.128 196.738L133.17 207H130.58Z" fill="#35237A"/>
</svg>
