<svg width="24" height="24" viewBox="0 0 24 24" fill="none" xmlns="http://www.w3.org/2000/svg">
<path d="M10.0634 13.9389L14.9384 9.06329M11.6884 6.62546L12.0646 6.18991C12.8265 5.42795 13.86 4.99992 14.9375 5C16.015 5.00008 17.0484 5.42824 17.8102 6.19031C18.5721 6.95238 19.0001 7.98593 19 9.06358C18.9999 10.1412 18.5718 11.1747 17.8098 11.9367L17.3759 12.3137M13.3134 16.3768L12.9908 16.8107C12.2198 17.5727 11.1794 18 10.0954 18C9.01145 18 7.97114 17.5727 7.20007 16.8107C6.81991 16.4351 6.51808 15.9877 6.31208 15.4945C6.10607 15.0013 6 14.4722 6 13.9377C6 13.4032 6.10607 12.8741 6.31208 12.3809C6.51808 11.8878 6.81991 11.4404 7.20007 11.0647L7.62582 10.6885" stroke="black" stroke-width="1.5" stroke-linecap="round" stroke-linejoin="round"/>
</svg>
