<svg width="56" height="38" viewBox="0 0 56 38" fill="none" xmlns="http://www.w3.org/2000/svg">
<rect x="0.799662" y="1.29966" width="53.8157" height="35.3441" rx="11.9949" fill="#151515"/>
<rect x="0.799662" y="1.29966" width="53.8157" height="35.3441" rx="11.9949" stroke="#504387" stroke-width="1.59932"/>
<path d="M17.483 31.5268V29.8453C17.4929 29.7039 17.4725 29.562 17.4231 29.429C17.3738 29.2961 17.2968 29.1752 17.197 29.0745C17.0973 28.9737 16.9773 28.8953 16.8449 28.8446C16.7125 28.7939 16.5708 28.772 16.4293 28.7804C16.2441 28.7683 16.059 28.8061 15.8934 28.8899C15.7277 28.9737 15.5876 29.1004 15.4876 29.2568C15.3965 29.1051 15.2661 28.9807 15.1103 28.8969C14.9544 28.8131 14.7788 28.7728 14.602 28.7804C14.4479 28.7726 14.2944 28.8053 14.1568 28.8751C14.0192 28.9449 13.9021 29.0494 13.8173 29.1783V28.8476H13.2344V31.5268H13.8229V30.0415C13.8102 29.9498 13.8179 29.8565 13.8455 29.7682C13.8732 29.6799 13.92 29.5988 13.9827 29.5307C14.0454 29.4627 14.1224 29.4093 14.2082 29.3746C14.2939 29.3398 14.3863 29.3245 14.4787 29.3296C14.8654 29.3296 15.0617 29.5819 15.0617 30.0359V31.5268H15.6502V30.0415C15.6384 29.95 15.6468 29.857 15.6748 29.7691C15.7028 29.6813 15.7497 29.6006 15.8122 29.5327C15.8747 29.4649 15.9513 29.4115 16.0366 29.3765C16.1219 29.3414 16.2138 29.3254 16.306 29.3296C16.7039 29.3296 16.8945 29.5819 16.8945 30.0359V31.5268H17.483ZM26.1932 28.8476H25.2404V28.0349H24.6519V28.8476H24.1082V29.3801H24.6519V30.602C24.6519 31.2241 24.8929 31.5941 25.5823 31.5941C25.8398 31.5949 26.0924 31.523 26.3109 31.3867L26.1428 30.8878C25.9865 30.9811 25.8091 31.0332 25.6271 31.0392C25.3357 31.0392 25.2404 30.8598 25.2404 30.5908V29.3801H26.1932V28.8476ZM31.1649 28.7804C31.0228 28.7762 30.8822 28.8104 30.7579 28.8795C30.6336 28.9485 30.5302 29.0498 30.4587 29.1727V28.8476H29.8814V31.5268H30.4643V30.0247C30.4643 29.5819 30.6548 29.3353 31.036 29.3353C31.1607 29.3335 31.2845 29.3564 31.4003 29.4025L31.5797 28.8532C31.4466 28.8056 31.3063 28.7809 31.1649 28.7804ZM23.6486 29.0606C23.3186 28.8644 22.9392 28.7671 22.5556 28.7804C21.8774 28.7804 21.4402 29.1054 21.4402 29.6379C21.4402 30.0751 21.7653 30.3442 22.365 30.4282L22.6396 30.4675C22.9591 30.5122 23.1105 30.5964 23.1105 30.7477C23.1105 30.9551 22.8974 31.0728 22.4995 31.0728C22.1794 31.082 21.8655 30.9833 21.6083 30.7925L21.3337 31.2466C21.6732 31.4837 22.0799 31.6055 22.4939 31.5941C23.2674 31.5941 23.7158 31.2297 23.7158 30.7197C23.7158 30.2489 23.3627 30.0022 22.7798 29.9181L22.5052 29.8789C22.2529 29.8453 22.0511 29.7949 22.0511 29.6155C22.0511 29.4193 22.2416 29.3016 22.5612 29.3016C22.8546 29.306 23.142 29.3851 23.3963 29.5314L23.6486 29.0606ZM39.2642 28.7804C39.1221 28.7762 38.9814 28.8104 38.8571 28.8795C38.7328 28.9485 38.6295 29.0498 38.558 29.1727V28.8476H37.9807V31.5268H38.5635V30.0247C38.5635 29.5819 38.7541 29.3353 39.1353 29.3353C39.26 29.3335 39.3838 29.3564 39.4996 29.4025L39.679 28.8532C39.5459 28.8056 39.4056 28.7809 39.2642 28.7804ZM31.7534 30.1872C31.7457 30.3759 31.7775 30.5642 31.8469 30.7399C31.9163 30.9156 32.0217 31.0748 32.1563 31.2073C32.291 31.3399 32.4518 31.4427 32.6286 31.5093C32.8054 31.576 32.9942 31.6048 33.1828 31.5941C33.5327 31.6117 33.8766 31.4977 34.1468 31.2746L33.8666 30.8037C33.665 30.9574 33.4193 31.0419 33.1659 31.0448C32.9475 31.0315 32.7423 30.9354 32.5923 30.776C32.4423 30.6167 32.3588 30.4061 32.3588 30.1872C32.3588 29.9684 32.4423 29.7578 32.5923 29.5984C32.7423 29.439 32.9475 29.3429 33.1659 29.3296C33.4193 29.3325 33.665 29.417 33.8666 29.5707L34.1468 29.0998C33.8766 28.8767 33.5327 28.7628 33.1828 28.7804C32.9942 28.7696 32.8054 28.7985 32.6286 28.8651C32.4519 28.9317 32.291 29.0346 32.1564 29.1671C32.0217 29.2996 31.9163 29.4588 31.8469 29.6345C31.7775 29.8102 31.7457 29.9984 31.7534 30.1872ZM37.2127 30.1872V28.8476H36.6298V29.1727C36.5303 29.0445 36.4016 28.942 36.2543 28.8737C36.1071 28.8054 35.9456 28.7734 35.7835 28.7804C35.4223 28.7981 35.0817 28.954 34.8323 29.2159C34.583 29.4778 34.4439 29.8256 34.4439 30.1872C34.4439 30.5489 34.583 30.8967 34.8323 31.1586C35.0817 31.4204 35.4223 31.5764 35.7835 31.5941C35.9456 31.601 36.1071 31.569 36.2543 31.5007C36.4016 31.4325 36.5303 31.3299 36.6298 31.2017V31.5268H37.2127V30.1872ZM35.0436 30.1872C35.0526 30.0291 35.1077 29.8771 35.2021 29.7499C35.2965 29.6228 35.4261 29.526 35.5748 29.4716C35.7235 29.4172 35.8849 29.4075 36.0391 29.4437C36.1932 29.48 36.3334 29.5605 36.4423 29.6755C36.5513 29.7904 36.6242 29.9347 36.6521 30.0906C36.68 30.2465 36.6617 30.4071 36.5994 30.5527C36.5371 30.6983 36.4335 30.8224 36.3015 30.9099C36.1695 30.9973 36.0147 31.0442 35.8564 31.0448C35.7454 31.0463 35.6353 31.0248 35.533 30.9816C35.4307 30.9384 35.3385 30.8746 35.2621 30.794C35.1858 30.7134 35.1269 30.6179 35.0893 30.5135C35.0517 30.409 35.0361 30.2979 35.0436 30.1872ZM28.0093 28.7804C27.6458 28.7995 27.3038 28.9587 27.0551 29.2245C26.8064 29.4903 26.6703 29.8421 26.6754 30.2061C26.6805 30.5701 26.8263 30.918 27.0823 31.1768C27.3383 31.4355 27.6846 31.5851 28.0485 31.5941C28.4484 31.6081 28.8395 31.4744 29.1471 31.2185L28.8612 30.787C28.6399 30.9643 28.3658 31.063 28.0821 31.0672C27.8895 31.0834 27.6982 31.024 27.5486 30.9016C27.399 30.7792 27.3029 30.6034 27.2806 30.4114H29.2704C29.276 30.3385 29.2816 30.2657 29.2816 30.1872C29.276 29.3521 28.7604 28.7804 28.0093 28.7804ZM27.9981 29.3016C28.1741 29.2982 28.3444 29.3647 28.4715 29.4866C28.5986 29.6085 28.6723 29.7757 28.6763 29.9518H27.2862C27.2965 29.7719 27.3767 29.6032 27.5097 29.4817C27.6427 29.3602 27.818 29.2956 27.9981 29.3016ZM42.6216 30.1872V27.7715H42.0387V29.1727C41.9392 29.0445 41.8104 28.942 41.6632 28.8737C41.5159 28.8054 41.3545 28.7734 41.1923 28.7804C40.8311 28.7981 40.4906 28.954 40.2412 29.2159C39.9918 29.4778 39.8527 29.8256 39.8527 30.1872C39.8527 30.5489 39.9918 30.8967 40.2412 31.1586C40.4906 31.4205 40.8311 31.5764 41.1923 31.5941C41.3545 31.601 41.5159 31.569 41.6632 31.5007C41.8104 31.4325 41.9392 31.3299 42.0387 31.2017V31.5268H42.6216V30.1872ZM43.5933 31.1386C43.6295 31.1383 43.6654 31.1454 43.6988 31.1595C43.7309 31.1728 43.7601 31.1922 43.7849 31.2166C43.8096 31.2408 43.8293 31.2696 43.843 31.3014C43.857 31.334 43.8642 31.3692 43.8642 31.4047C43.8642 31.4402 43.857 31.4754 43.843 31.508C43.8292 31.5396 43.8095 31.5683 43.7849 31.5925C43.76 31.6168 43.7308 31.6363 43.6988 31.6499C43.6655 31.6642 43.6296 31.6714 43.5933 31.6712C43.54 31.6717 43.4877 31.6565 43.4429 31.6275C43.3982 31.5985 43.363 31.5569 43.3417 31.508C43.3278 31.4754 43.3206 31.4402 43.3206 31.4047C43.3206 31.3692 43.3278 31.3341 43.3417 31.3014C43.3554 31.2697 43.375 31.2409 43.3995 31.2166C43.4243 31.192 43.4537 31.1726 43.486 31.1595C43.52 31.1454 43.5565 31.1383 43.5933 31.1386ZM43.5933 31.6124C43.6209 31.6126 43.6483 31.6071 43.6737 31.5961C43.698 31.5855 43.7201 31.5705 43.7389 31.5517C43.7776 31.5126 43.7993 31.4598 43.7993 31.4048C43.7993 31.3498 43.7776 31.297 43.7389 31.258C43.7202 31.2393 43.698 31.2243 43.6737 31.214C43.6483 31.2032 43.6209 31.1977 43.5933 31.1979C43.5652 31.1977 43.5374 31.2032 43.5114 31.214C43.4867 31.2241 43.4642 31.2391 43.4452 31.258C43.4065 31.297 43.3847 31.3498 43.3847 31.4048C43.3847 31.4598 43.4065 31.5126 43.4452 31.5517C43.4642 31.5706 43.4867 31.5857 43.5114 31.5961C43.5373 31.6071 43.5652 31.6126 43.5933 31.6124ZM43.609 31.2802C43.6352 31.2785 43.6612 31.286 43.6825 31.3014C43.6909 31.3084 43.6977 31.3172 43.7021 31.3273C43.7066 31.3373 43.7087 31.3482 43.7082 31.3592C43.7085 31.3686 43.7068 31.3779 43.7033 31.3866C43.6998 31.3953 43.6944 31.4032 43.6877 31.4097C43.6714 31.4241 43.6509 31.4327 43.6292 31.4342L43.7102 31.5275H43.6469L43.5718 31.4349H43.5477V31.5275H43.4948V31.2802H43.609ZM43.5477 31.3265V31.3925H43.6084C43.62 31.393 43.6316 31.3902 43.6417 31.3843C43.6458 31.3815 43.6491 31.3778 43.6512 31.3734C43.6534 31.369 43.6544 31.3641 43.654 31.3592C43.6543 31.3544 43.6533 31.3496 43.6511 31.3453C43.649 31.3409 43.6457 31.3373 43.6417 31.3346C43.6316 31.3288 43.62 31.326 43.6084 31.3265H43.5477ZM40.4525 30.1872C40.4615 30.0291 40.5167 29.8771 40.6111 29.75C40.7055 29.6228 40.835 29.5261 40.9837 29.4717C41.1324 29.4173 41.2938 29.4076 41.448 29.4438C41.6021 29.4801 41.7423 29.5606 41.8512 29.6755C41.9601 29.7905 42.033 29.9348 42.0609 30.0907C42.0888 30.2465 42.0705 30.4072 42.0082 30.5527C41.9459 30.6983 41.8423 30.8225 41.7103 30.9099C41.5783 30.9973 41.4235 31.0442 41.2652 31.0448C41.1542 31.0463 41.0441 31.0248 40.9418 30.9816C40.8396 30.9384 40.7473 30.8745 40.671 30.794C40.5946 30.7134 40.5358 30.6179 40.4982 30.5134C40.4606 30.409 40.445 30.2979 40.4525 30.1872ZM20.7676 30.1872V28.8476H20.1846V29.1727C20.0851 29.0445 19.9564 28.942 19.8091 28.8737C19.6619 28.8054 19.5004 28.7734 19.3383 28.7804C18.9771 28.7981 18.6365 28.954 18.3871 29.2159C18.1378 29.4778 17.9987 29.8256 17.9987 30.1872C17.9987 30.5489 18.1378 30.8967 18.3871 31.1586C18.6365 31.4204 18.9771 31.5764 19.3383 31.5941C19.5004 31.601 19.6619 31.569 19.8091 31.5007C19.9564 31.4325 20.0851 31.3299 20.1846 31.2017V31.5268H20.7676V30.1872ZM18.5984 30.1872C18.6075 30.0291 18.6626 29.8771 18.757 29.75C18.8514 29.6228 18.981 29.5261 19.1297 29.4717C19.2784 29.4173 19.4398 29.4076 19.5939 29.4438C19.7481 29.4801 19.8882 29.5606 19.9972 29.6755C20.1061 29.7905 20.179 29.9348 20.2069 30.0907C20.2348 30.2465 20.2164 30.4072 20.1541 30.5527C20.0918 30.6983 19.9883 30.8225 19.8562 30.9099C19.7242 30.9973 19.5695 31.0442 19.4111 31.0448C19.3001 31.0463 19.19 31.0248 19.0878 30.9816C18.9855 30.9384 18.8933 30.8745 18.8169 30.794C18.7406 30.7134 18.6818 30.6179 18.6442 30.5134C18.6065 30.409 18.591 30.2979 18.5984 30.1872Z" fill="#FAFAFA"/>
<path d="M32.2823 8.42969H23.4531V24.2959H32.2823V8.42969Z" fill="#FF5F00"/>
<path d="M24.0151 16.3629C24.0137 14.8349 24.3599 13.3266 25.0277 11.9521C25.6954 10.5777 26.667 9.3732 27.869 8.4298C26.3805 7.25977 24.5928 6.53214 22.7103 6.33009C20.8277 6.12804 18.9263 6.45971 17.2234 7.2872C15.5204 8.11469 14.0847 9.4046 13.0802 11.0095C12.0757 12.6144 11.543 14.4696 11.543 16.3629C11.543 18.2563 12.0757 20.1114 13.0802 21.7163C14.0847 23.3212 15.5204 24.6111 17.2234 25.4386C18.9263 26.2661 20.8277 26.5978 22.7103 26.3957C24.5928 26.1937 26.3805 25.4661 27.869 24.296C26.667 23.3526 25.6954 22.1481 25.0277 20.7737C24.36 19.3993 24.0137 17.8909 24.0151 16.3629Z" fill="#EB001B"/>
<path d="M44.1967 16.3629C44.1967 18.2562 43.6641 20.1114 42.6597 21.7163C41.6552 23.3212 40.2195 24.6111 38.5166 25.4386C36.8137 26.2661 34.9123 26.5978 33.0298 26.3957C31.1473 26.1937 29.3596 25.4661 27.8711 24.296C29.0721 23.3517 30.043 22.147 30.7106 20.7728C31.3782 19.3986 31.725 17.8907 31.725 16.3629C31.725 14.8351 31.3782 13.3273 30.7106 11.9531C30.043 10.5789 29.0721 9.37415 27.8711 8.4298C29.3596 7.25977 31.1473 6.53214 33.0298 6.33009C34.9123 6.12804 36.8137 6.45972 38.5166 7.28721C40.2195 8.11471 41.6552 9.40463 42.6597 11.0095C43.6641 12.6145 44.1967 14.4696 44.1967 16.3629Z" fill="#F79E1B"/>
<path d="M43.2338 22.6153V22.2905H43.3648V22.2243H43.0312V22.2905H43.1623V22.6153H43.2338ZM43.8815 22.6153V22.2236H43.7792L43.6616 22.493L43.544 22.2236H43.4417V22.6153H43.5139V22.3199L43.6242 22.5746H43.699L43.8093 22.3192V22.6153H43.8815Z" fill="#F79E1B"/>
</svg>
