<svg width="33" height="33" viewBox="0 0 33 33" fill="none" xmlns="http://www.w3.org/2000/svg">
<g clip-path="url(#clip0_830_3687)">
<path d="M16.5 0C7.392 0 0 7.392 0 16.5C0 25.608 7.392 33 16.5 33C25.608 33 33 25.608 33 16.5C33 7.392 25.608 0 16.5 0ZM24.156 11.22C23.9085 13.827 22.836 20.163 22.2915 23.0835C22.0605 24.321 21.5985 24.7335 21.1695 24.783C20.2125 24.8655 19.4865 24.156 18.5625 23.5455C17.1105 22.5885 16.2855 21.9945 14.883 21.0705C13.2495 19.998 14.3055 19.404 15.246 18.447C15.4935 18.1995 19.7175 14.355 19.8 14.0085C19.8115 13.956 19.8099 13.9015 19.7956 13.8498C19.7812 13.798 19.7544 13.7506 19.7175 13.7115C19.6185 13.629 19.4865 13.662 19.371 13.6785C19.2225 13.7115 16.9125 15.246 12.408 18.282C11.748 18.7275 11.154 18.9585 10.626 18.942C10.032 18.9255 8.91 18.612 8.0685 18.3315C7.029 18.0015 6.2205 17.82 6.2865 17.2425C6.3195 16.9455 6.732 16.6485 7.5075 16.335C12.3255 14.2395 15.5265 12.8535 17.127 12.1935C21.714 10.2795 22.6545 9.9495 23.2815 9.9495C23.4135 9.9495 23.727 9.9825 23.925 10.1475C24.09 10.2795 24.1395 10.461 24.156 10.593C24.1395 10.692 24.1725 10.989 24.156 11.22Z" fill="#5B8DC8"/>
</g>
<defs>
<clipPath id="clip0_830_3687">
<rect width="33" height="33" fill="white"/>
</clipPath>
</defs>
</svg>
