<svg width="24" height="24" viewBox="0 0 24 24" fill="none" xmlns="http://www.w3.org/2000/svg">
<path d="M13.8624 5.27924V4.5H19V5.27924L17.1376 5.4883V12.0073C17.1376 13.3377 16.9164 14.4084 16.474 15.2193C16.0316 16.0175 15.4251 16.6004 14.6544 16.9678C13.8838 17.3226 13.0061 17.5 12.0214 17.5C10.9939 17.5 10.0877 17.3226 9.30275 16.9678C8.51784 16.6131 7.90418 16.0619 7.46177 15.3143C7.03364 14.5668 6.81957 13.6038 6.81957 12.4254V10.3728C6.81957 9.54922 6.81957 8.73197 6.81957 7.92105C6.81957 7.09747 6.8053 6.28021 6.77676 5.4693L5 5.27924V4.5H11.0581V5.27924L8.87462 5.50731C8.86035 6.30556 8.84608 7.11014 8.8318 7.92105C8.8318 8.73197 8.8318 9.54922 8.8318 10.3728V11.8743C8.8318 12.9513 8.97452 13.8065 9.25994 14.4401C9.55963 15.0609 9.9735 15.5044 10.5015 15.7705C11.0296 16.0239 11.6575 16.1506 12.3853 16.1506C13.5984 16.1506 14.5117 15.8085 15.1254 15.1243C15.739 14.4274 16.0459 13.2364 16.0459 11.5512V5.52632L13.8624 5.27924Z" fill="black"/>
<path d="M4.73047 18.5H19.2705V19.5H4.73047V18.5Z" fill="black"/>
</svg>
