<svg width="57" height="38" viewBox="0 0 57 38" fill="none" xmlns="http://www.w3.org/2000/svg">
<rect x="1.62779" y="1.29966" width="53.8157" height="35.3441" rx="11.9949" fill="white"/>
<rect x="1.62779" y="1.29966" width="53.8157" height="35.3441" rx="11.9949" stroke="#CCCCCC" stroke-width="1.59932"/>
<path d="M28.3233 11.7227L25.3924 25.6797H21.8472L24.7784 11.7227H28.3233ZM43.2373 20.7349L45.1031 15.4937L46.1769 20.7349H43.2373ZM47.1939 25.6797H50.4718L47.6081 11.7227H44.5844C43.903 11.7227 43.3285 12.1251 43.0743 12.7457L37.7552 25.6797H41.4782L42.2172 23.5953H46.7646L47.1939 25.6797ZM37.9398 21.1232C37.9552 17.4397 32.9406 17.2357 32.9742 15.5898C32.985 15.0897 33.4534 14.557 34.4773 14.4208C34.9849 14.3542 36.3856 14.3002 37.9734 15.0455L38.5944 12.0846C37.7416 11.7704 36.6442 11.4678 35.2786 11.4678C31.7741 11.4678 29.3089 13.3638 29.2891 16.0811C29.2666 18.0904 31.0502 19.2108 32.3911 19.8801C33.7737 20.5641 34.2369 21.0026 34.2301 21.6138C34.2205 22.5502 33.1277 22.9649 32.11 22.9806C30.3268 23.0089 29.2932 22.4897 28.4694 22.0985L27.8258 25.1583C28.6555 25.545 30.1841 25.8815 31.767 25.8988C35.4928 25.8988 37.9287 24.025 37.9398 21.1232ZM23.2578 11.7227L17.514 25.6797H13.7673L10.9406 14.541C10.7692 13.856 10.6198 13.6043 10.0986 13.3149C9.24616 12.8434 7.83895 12.4023 6.60156 12.1279L6.68539 11.7227H12.7173C13.4857 11.7227 14.1769 12.2435 14.3529 13.145L15.8461 21.2221L19.5336 11.7227H23.2578Z" fill="#1434CB"/>
</svg>
