<svg width="33" height="33" viewBox="0 0 33 33" fill="none" xmlns="http://www.w3.org/2000/svg">
<path fill-rule="evenodd" clip-rule="evenodd" d="M33 16.5C33 25.6127 25.6127 33 16.5 33C7.3873 33 0 25.6127 0 16.5C0 7.3873 7.3873 0 16.5 0C25.6127 0 33 7.3873 33 16.5ZM21.1305 11.0938C19.8102 9.96772 18.1244 9.36214 16.3893 9.39073C14.6543 9.41932 12.9893 10.0801 11.7069 11.2491C10.4244 12.4181 9.61268 14.0149 9.42397 15.7399C9.23525 17.4649 9.68254 19.1995 10.6819 20.6181C10.8325 20.8319 10.8609 21.1088 10.7567 21.3487L9.86977 23.3913L12.9122 22.8491C13.0689 22.8212 13.2305 22.8439 13.3736 22.9139C14.9321 23.677 16.7155 23.8451 18.3891 23.3866C20.0627 22.9282 21.5115 21.8747 22.4636 20.4239C23.4156 18.9732 23.8055 17.2248 23.5601 15.507C23.3146 13.7891 22.4507 12.2199 21.1305 11.0938ZM16.3646 7.89094C18.4649 7.85633 20.5057 8.5894 22.1039 9.95257C23.7021 11.3158 24.7479 13.2153 25.045 15.2948C25.3421 17.3743 24.8701 19.4907 23.7176 21.2469C22.5651 23.0031 20.8113 24.2784 18.7854 24.8333C16.8399 25.3662 14.7719 25.1998 12.9401 24.3678L8.75659 25.1134C8.48455 25.1618 8.20788 25.0568 8.03656 24.84C7.86523 24.6232 7.827 24.3298 7.93705 24.0763L9.218 21.1262C8.17576 19.479 7.71996 17.5228 7.93286 15.5768C8.16131 13.4886 9.14395 11.5556 10.6964 10.1405C12.2488 8.72546 14.2643 7.92555 16.3646 7.89094ZM14.3125 12.6875C13.9976 12.6875 13.6955 12.8126 13.4728 13.0353C13.2501 13.258 13.125 13.5601 13.125 13.875V14.75C13.125 16.1092 13.665 17.4128 14.6261 18.3739C15.5872 19.335 16.8908 19.875 18.25 19.875H19.125C19.4399 19.875 19.742 19.7499 19.9647 19.5272C20.1874 19.3045 20.3125 19.0024 20.3125 18.6875C20.3125 18.3726 20.1874 18.0705 19.9647 17.8478C19.742 17.6251 19.4399 17.5 19.125 17.5H18.25C17.9351 17.5 17.633 17.6251 17.4103 17.8478C17.3054 17.9527 17.2222 18.0752 17.1635 18.2083C16.6113 18.0349 16.1035 17.73 15.6867 17.3133C15.27 16.8965 14.9651 16.3887 14.7917 15.8365C14.9248 15.7778 15.0473 15.6946 15.1522 15.5897C15.3749 15.367 15.5 15.0649 15.5 14.75V13.875C15.5 13.5601 15.3749 13.258 15.1522 13.0353C14.9295 12.8126 14.6274 12.6875 14.3125 12.6875Z" fill="#5B8DC8"/>
</svg>
