<svg width="165" height="225" viewBox="0 0 165 225" fill="none" xmlns="http://www.w3.org/2000/svg">
<path d="M121.636 63.6285C122.771 61.3081 123.389 58.73 123.389 55.9972C123.389 52.3878 122.307 49.0363 120.45 46.2519C118.594 43.3644 117.614 40.0644 117.614 36.7128V36.6613C117.614 31.9707 115.751 27.4722 112.434 24.1554C109.118 20.8387 104.619 18.9753 99.9285 18.9753C98.9488 18.9753 98.0723 18.5113 97.5051 17.7378C95.8718 15.4477 93.713 13.5828 91.2097 12.2998C88.7065 11.0168 85.932 10.3531 83.1191 10.3644C77.1895 10.3644 71.9301 13.3035 68.7332 17.7378C68.467 18.1201 68.1123 18.4324 67.6992 18.6479C67.2862 18.8633 66.8272 18.9757 66.3613 18.9753C61.6707 18.9753 57.1722 20.8387 53.8555 24.1554C50.5387 27.4722 48.6754 31.9707 48.6754 36.6613V36.7128C48.6754 40.116 47.6957 43.416 45.8395 46.2003C43.9832 48.9847 42.9004 52.3363 42.9004 55.9456C42.9004 58.6785 43.5191 61.3081 44.6535 63.5769C45.0145 64.3503 45.0145 65.2785 44.6535 66.0519C43.5191 68.3206 42.9004 70.8988 42.9004 73.58C42.9004 83.1191 50.6348 90.8535 60.1738 90.8535H106.168C115.707 90.8535 123.441 83.1191 123.441 73.58C123.441 70.8472 122.822 68.3206 121.688 66.0519C121.49 65.6804 121.382 65.2674 121.373 64.8463C121.364 64.4253 121.454 64.0081 121.636 63.6285Z" fill="#FFF9BA"/>
<path d="M58.8431 85.0781H106.152C98.9536 81.7678 90.9408 79.9219 82.5 79.9219C74.0592 79.9219 66.0464 81.7678 58.8431 85.0781ZM118.594 95.3906H46.4062L36.0938 123.75L46.4062 154.688H118.594L128.906 123.75L118.594 95.3906Z" fill="#212121"/>
<path d="M118.594 154.688V95.8753C111.53 108.56 98.0618 117.15 82.5002 117.15C75.1322 117.157 67.8971 115.188 61.5489 111.448C55.2006 107.708 49.9715 102.334 46.4065 95.8856V154.688H25.7815V136.641C25.7299 119.058 33.8768 103.28 46.4065 92.8125V92.8796C56.564 84.493 69.3279 79.9108 82.5002 79.9219C96.221 79.9219 108.792 84.7636 118.594 92.8744V92.8125C131.227 103.228 139.219 119.058 139.219 136.641V154.688H118.594Z" fill="black"/>
<path d="M64.4531 154.636V127.565C64.4531 126.122 63.3187 124.987 61.875 124.987C60.4312 124.987 59.2969 126.122 59.2969 127.565V154.636H64.4531ZM85.0781 154.636V127.565C85.0781 126.122 83.9438 124.987 82.5 124.987C81.0562 124.987 79.9219 126.122 79.9219 127.565V154.636H85.0781ZM105.703 154.636V127.565C105.703 126.122 104.569 124.987 103.125 124.987C101.681 124.987 100.547 126.122 100.547 127.565V154.636H105.703Z" fill="black"/>
<path d="M87.2445 94.2559L83.8929 97.2465C83.0679 97.9684 81.882 97.9684 81.057 97.2465L77.7054 94.2559C75.8631 92.5951 74.3885 90.5675 73.3762 88.3031C72.3639 86.0388 71.8363 83.5877 71.8273 81.1074V65.1746C71.8273 59.2965 76.571 54.5527 82.4491 54.5527C88.3273 54.5527 93.071 59.2965 93.071 65.1746V81.1074C93.071 86.109 90.957 90.9043 87.2445 94.2559ZM67.8621 54.9652C67.8621 56.069 67.6447 57.1619 67.2223 58.1816C66.8 59.2013 66.1809 60.1278 65.4004 60.9082C64.62 61.6887 63.6935 62.3078 62.6738 62.7302C61.6541 63.1525 60.5611 63.3699 59.4574 63.3699C58.3537 63.3699 57.2608 63.1525 56.2411 62.7302C55.2214 62.3078 54.2949 61.6887 53.5144 60.9082C52.734 60.1278 52.1149 59.2013 51.6925 58.1816C51.2701 57.1619 51.0527 56.069 51.0527 54.9652C51.0527 52.7362 51.9382 50.5984 53.5144 49.0222C55.0906 47.446 57.2284 46.5605 59.4574 46.5605C61.6865 46.5605 63.8242 47.446 65.4004 49.0222C66.9766 50.5984 67.8621 52.7362 67.8621 54.9652ZM115.289 54.9652C115.289 57.1943 114.404 59.3321 112.828 60.9082C111.251 62.4844 109.114 63.3699 106.885 63.3699C104.656 63.3699 102.518 62.4844 100.942 60.9082C99.3654 59.3321 98.4799 57.1943 98.4799 54.9652C98.4799 52.7362 99.3654 50.5984 100.942 49.0222C102.518 47.446 104.656 46.5605 106.885 46.5605C109.114 46.5605 111.251 47.446 112.828 49.0222C114.404 50.5984 115.289 52.7362 115.289 54.9652Z" fill="#E4B29A"/>
<path d="M104.105 39.0846H87.0898C80.3352 39.0846 74.0445 35.7331 70.2289 30.1643C70.0843 29.9549 69.8861 29.7882 69.6549 29.6817C69.4237 29.5753 69.1681 29.533 68.915 29.5594C68.6618 29.5858 68.4204 29.6798 68.2161 29.8316C68.0119 29.9834 67.8522 30.1874 67.7539 30.4221L67.2898 31.505C66.1039 34.444 63.7836 36.7643 60.9992 38.0534C60.793 38.105 60.5867 38.2081 60.432 38.2596C59.143 38.8784 56.2555 40.8378 56.1523 45.8909L56.8742 62.8549C57.493 77.9112 69.0945 87.9659 83.1711 87.9659C97.2477 87.9659 108.849 77.9112 109.468 62.8549L110.138 46.7159C110.035 39.6003 105.085 39.1362 104.105 39.0846Z" fill="#EEBFAA"/>
<path d="M83.1698 71.8783C80.3854 71.8783 77.7557 71.208 75.5901 70.0737C74.8167 69.6612 74.0432 70.5377 74.5073 71.2596C76.3635 74.0955 79.5604 76.0033 83.1698 76.0033C86.7792 76.0033 90.0276 74.0955 91.8323 71.2596C92.2963 70.5377 91.4714 69.7127 90.7495 70.0737C88.5323 71.208 85.9542 71.8783 83.1698 71.8783Z" fill="#990838"/>
<path d="M81.159 54.5012L78.4262 63.2668C77.859 65.0715 79.1996 66.8762 81.1074 66.8762H85.1293C87.0371 66.8762 88.3777 65.0715 87.8106 63.2668L85.0777 54.5012C84.5106 52.5934 81.7777 52.5934 81.159 54.5012Z" fill="#D19479"/>
<path d="M69.197 48.9844C72.2392 48.9844 74.7142 51.0469 76.2611 53.4187C74.9548 53.8141 73.6744 54.187 72.4197 54.5377C70.12 55.1925 67.8719 55.8319 65.5361 56.6672L62.9579 54.3469C62.7079 54.1228 62.5107 53.8461 62.3805 53.5366C62.2504 53.2271 62.1905 52.8926 62.2053 52.5571C62.2201 52.2217 62.3092 51.8938 62.4661 51.5969C62.623 51.3001 62.8438 51.0418 63.1126 50.8406C64.8142 49.6547 67.0829 48.9844 69.197 48.9844ZM97.247 48.9844C94.2564 48.9844 91.7814 51.0984 90.2345 53.4187C91.6112 53.8467 92.9518 54.2283 94.2873 54.6098C96.4942 55.2389 98.6753 55.8628 100.96 56.6672L103.538 54.3469C103.785 54.1192 103.978 53.8394 104.104 53.5278C104.23 53.2161 104.285 52.8804 104.265 52.5449C104.246 52.2093 104.152 51.8824 103.99 51.5877C103.829 51.2929 103.604 51.0378 103.331 50.8406C101.531 49.6352 99.4138 48.9894 97.247 48.9844Z" fill="black"/>
<path d="M62.9065 55.1719C63.7315 51.9234 66.6706 49.5 70.1768 49.5C73.7862 49.5 76.8284 52.0781 77.4987 55.5328C77.6534 56.3063 77.0346 56.9766 76.2612 56.9766H64.3503C63.3706 56.9766 62.7003 56.1 62.9065 55.1719ZM103.538 55.1719C102.713 51.9234 99.7737 49.5 96.2675 49.5C92.6581 49.5 89.6159 52.0781 88.9456 55.5328C88.7909 56.3063 89.4096 56.9766 90.1831 56.9766H102.094C103.074 56.9766 103.744 56.1 103.538 55.1719Z" fill="white"/>
<path d="M66.4648 55.7387C66.4648 53.109 68.6305 50.9434 71.2602 50.9434C73.8898 50.9434 76.0555 53.0574 76.0555 55.6871C76.0555 56.1512 76.0039 56.5637 75.8492 57.0277H66.6195C66.5164 56.6152 66.4648 56.2027 66.4648 55.7387ZM99.9805 55.7387C99.9805 53.109 97.8148 50.9434 95.1852 50.9434C92.5555 50.9434 90.3898 53.0574 90.4414 55.7387C90.4414 56.2027 90.493 56.6152 90.5961 57.0277H99.8258C99.9289 56.6152 99.9805 56.2027 99.9805 55.7387Z" fill="#7D4533"/>
<path d="M71.2604 52.9551C71.7315 52.9586 72.1939 53.0829 72.6032 53.3162C73.0126 53.5494 73.3552 53.8838 73.5984 54.2874C73.8415 54.6909 73.9771 55.1501 73.992 55.621C74.007 56.0919 73.9009 56.5588 73.6838 56.977H68.837C68.6199 56.5588 68.5138 56.0919 68.5287 55.621C68.5437 55.1501 68.6792 54.6909 68.9224 54.2874C69.1656 53.8838 69.5082 53.5494 69.9176 53.3162C70.3269 53.0829 70.7893 52.9586 71.2604 52.9551ZM95.1854 52.9551C94.7143 52.9586 94.2519 53.0829 93.8426 53.3162C93.4332 53.5494 93.0906 53.8838 92.8474 54.2874C92.6042 54.6909 92.4687 55.1501 92.4537 55.621C92.4388 56.0919 92.5449 56.5588 92.762 56.977H97.6088C97.8259 56.5588 97.932 56.0919 97.9171 55.621C97.9021 55.1501 97.7665 54.6909 97.5234 54.2874C97.2802 53.8838 96.9376 53.5494 96.5282 53.3162C96.1189 53.0829 95.6565 52.9586 95.1854 52.9551Z" fill="black"/>
<path d="M70.4855 53.8316C70.4855 54.0641 70.3932 54.2871 70.2288 54.4515C70.0644 54.6158 69.8415 54.7082 69.609 54.7082C69.3765 54.7082 69.1536 54.6158 68.9892 54.4515C68.8248 54.2871 68.7324 54.0641 68.7324 53.8316C68.7324 53.5992 68.8248 53.3762 68.9892 53.2118C69.1536 53.0474 69.3765 52.9551 69.609 52.9551C69.8415 52.9551 70.0644 53.0474 70.2288 53.2118C70.3932 53.3762 70.4855 53.5992 70.4855 53.8316ZM94.4621 53.8316C94.4621 53.9467 94.4394 54.0607 94.3954 54.1671C94.3513 54.2734 94.2868 54.3701 94.2054 54.4515C94.124 54.5329 94.0273 54.5974 93.921 54.6415C93.8146 54.6855 93.7007 54.7082 93.5855 54.7082C93.4704 54.7082 93.3565 54.6855 93.2501 54.6415C93.1438 54.5974 93.0471 54.5329 92.9657 54.4515C92.8843 54.3701 92.8198 54.2734 92.7757 54.1671C92.7317 54.0607 92.709 53.9467 92.709 53.8316C92.709 53.5992 92.8013 53.3762 92.9657 53.2118C93.1301 53.0474 93.3531 52.9551 93.5855 52.9551C93.818 52.9551 94.041 53.0474 94.2054 53.2118C94.3698 53.3762 94.4621 53.5992 94.4621 53.8316Z" fill="white"/>
<path d="M101.372 46.0454C101.63 46.2001 101.837 46.2517 102.094 46.2517C102.61 46.2517 103.074 45.9939 103.332 45.5298C103.744 44.8595 103.487 43.9829 102.816 43.5704L102.77 43.5498C102.239 43.2662 97.7528 40.8789 92.612 41.8173C91.8386 41.9204 91.3229 42.6939 91.4776 43.4673C91.5808 44.2407 92.3542 44.7564 93.1276 44.6017C97.0825 43.8953 100.656 45.6845 101.275 45.999L101.372 46.0454ZM62.9584 45.5298C63.2162 45.9939 63.6803 46.2517 64.1959 46.2517C64.4537 46.2517 64.66 46.2001 64.9178 46.0454L65.0106 46.0042C65.6294 45.6948 69.2078 43.9468 73.1678 44.6532C73.9412 44.8079 74.6631 44.2923 74.7662 43.4673C74.8012 43.2844 74.7995 43.0963 74.7613 42.914C74.7231 42.7318 74.6491 42.5589 74.5436 42.4054C74.4381 42.2519 74.3032 42.1209 74.1467 42.02C73.9902 41.919 73.8152 41.8501 73.6319 41.8173C68.5323 40.8789 64.0567 43.261 63.5205 43.5446L63.474 43.5704C62.8037 43.9829 62.5459 44.8595 62.9584 45.5298Z" fill="#A56953"/>
<path d="M130.607 71.0535C130.332 70.146 129.772 69.3508 129.011 68.7847C128.25 68.2186 127.328 67.9114 126.379 67.9082C124.368 67.9082 122.718 69.1973 122.151 71.0535L119.161 81.9332C118.8 83.1707 119.728 84.4082 121.017 84.4082H131.69C132.979 84.4082 133.907 83.1707 133.547 81.9332L130.607 71.0535Z" fill="#F9C23C"/>
<path d="M110.061 18.5625H124.318V60.225C123.44 60.6861 122.743 61.4279 122.336 62.332C121.93 63.236 121.838 64.2503 122.075 65.2127C122.313 66.1751 122.866 67.0302 123.646 67.6415C124.426 68.2528 125.389 68.5849 126.38 68.5849C127.372 68.5849 128.334 68.2528 129.115 67.6415C129.895 67.0302 130.448 66.1751 130.686 65.2127C130.923 64.2503 130.831 63.236 130.425 62.332C130.018 61.4279 129.321 60.6861 128.443 60.225V14.4375H128.391C128.391 12.1687 126.535 10.3125 124.266 10.3125H41.9727C39.7039 10.3125 37.8477 12.1687 37.8477 14.4375C37.8477 16.7062 39.7039 18.5625 41.9727 18.5625H56.2555L51.718 26.8125L75.2305 30.7313C80.4898 31.5047 85.8008 31.5047 91.0602 30.6797L114.521 26.7609L110.061 18.5625Z" fill="#1C1C1C"/>
<path d="M16.482 207.336L15.25 204.452C16.3327 204.191 17.308 203.803 18.176 203.29C19.0533 202.777 19.8513 202.095 20.57 201.246C21.2887 200.397 21.9513 199.347 22.558 198.096L27.78 187.4H31.406L25.484 199.076C24.8307 200.364 24.1727 201.484 23.51 202.436C22.8473 203.379 22.1567 204.177 21.438 204.83C20.7193 205.483 19.9493 206.011 19.128 206.412C18.316 206.813 17.434 207.121 16.482 207.336ZM22.124 200.84L14.662 187.4H18.484L24.224 198.068L22.124 200.84ZM40.9205 207V201.582C40.2672 201.75 39.6465 201.876 39.0585 201.96C38.4799 202.044 37.8685 202.086 37.2245 202.086C35.9832 202.086 34.9379 201.895 34.0885 201.512C33.2392 201.129 32.5999 200.551 32.1705 199.776C31.7412 199.001 31.5265 198.026 31.5265 196.85V193.14H34.6065V196.416C34.6065 197.405 34.8445 198.157 35.3205 198.67C35.7965 199.183 36.6085 199.44 37.7565 199.44C38.4192 199.44 38.9979 199.412 39.4925 199.356C39.9965 199.291 40.4725 199.211 40.9205 199.118V193.14H44.0005V207H40.9205ZM54.6184 207.42C53.1251 207.42 51.8138 207.117 50.6844 206.51C49.5551 205.894 48.6731 205.035 48.0384 203.934C47.4131 202.833 47.1004 201.554 47.1004 200.098C47.1004 199.034 47.2824 198.054 47.6464 197.158C48.0104 196.253 48.5238 195.469 49.1864 194.806C49.8491 194.143 50.6238 193.63 51.5104 193.266C52.4064 192.902 53.3818 192.72 54.4364 192.72C55.5844 192.72 56.6064 192.925 57.5024 193.336C58.3984 193.737 59.1404 194.302 59.7284 195.03C60.3258 195.758 60.7458 196.612 60.9884 197.592C61.2404 198.563 61.2824 199.617 61.1144 200.756H50.0544C50.0358 201.587 50.2178 202.315 50.6004 202.94C50.9831 203.556 51.5291 204.037 52.2384 204.382C52.9571 204.727 53.8018 204.9 54.7724 204.9C55.5564 204.9 56.3124 204.783 57.0404 204.55C57.7778 204.307 58.4451 203.953 59.0424 203.486L60.2324 205.698C59.7844 206.062 59.2431 206.375 58.6084 206.636C57.9738 206.888 57.3111 207.079 56.6204 207.21C55.9298 207.35 55.2624 207.42 54.6184 207.42ZM50.2364 198.488H58.0904C58.0624 197.443 57.7264 196.621 57.0824 196.024C56.4478 195.427 55.5424 195.128 54.3664 195.128C53.2278 195.128 52.2804 195.427 51.5244 196.024C50.7778 196.621 50.3484 197.443 50.2364 198.488ZM64.3139 207V193.14H67.3939V198.488H74.3379V193.14H77.4179V207H74.3379V201.036H67.3939V207H64.3139ZM81.7045 207V193.14H84.6865V202.492L92.2045 193.14H94.8925V207H91.9245V197.536L84.3365 207H81.7045ZM108.389 207L103.797 199.636L108.067 193.14H111.357L107.115 199.496L112.071 207H108.389ZM99.1772 207V193.14H102.257V198.488H106.429V201.036H102.257V207H99.1772ZM120.383 207.42C119.002 207.42 117.779 207.103 116.715 206.468C115.66 205.824 114.83 204.951 114.223 203.85C113.626 202.739 113.327 201.479 113.327 200.07C113.327 199.015 113.5 198.04 113.845 197.144C114.19 196.248 114.676 195.469 115.301 194.806C115.926 194.143 116.673 193.63 117.541 193.266C118.409 192.902 119.356 192.72 120.383 192.72C121.746 192.72 122.884 193.009 123.799 193.588C124.723 194.167 125.428 194.913 125.913 195.828L125.479 196.486V193.14H128.223V207H125.479V203.654L125.913 204.312C125.428 205.227 124.723 205.973 123.799 206.552C122.884 207.131 121.746 207.42 120.383 207.42ZM120.789 204.69C121.629 204.69 122.38 204.503 123.043 204.13C123.706 203.747 124.224 203.211 124.597 202.52C124.98 201.829 125.171 201.013 125.171 200.07C125.171 199.127 124.98 198.311 124.597 197.62C124.224 196.92 123.706 196.383 123.043 196.01C122.38 195.637 121.629 195.45 120.789 195.45C119.94 195.45 119.184 195.637 118.521 196.01C117.868 196.383 117.35 196.92 116.967 197.62C116.584 198.311 116.393 199.127 116.393 200.07C116.393 201.013 116.584 201.829 116.967 202.52C117.35 203.211 117.868 203.747 118.521 204.13C119.184 204.503 119.94 204.69 120.789 204.69ZM132.509 207V193.14H135.183H135.267L141.483 202.128L140.153 202.156L146.061 193.14H148.791V207H145.991L146.033 196.752L146.607 197.004L141.651 204.242H139.663L134.483 196.99L135.057 196.738L135.099 207H132.509Z" fill="#35237A"/>
</svg>
