<svg width="40" height="40" viewBox="0 0 40 40" fill="none" xmlns="http://www.w3.org/2000/svg">
<g clip-path="url(#clip0_904_512)">
<path d="M23.6736 19.259L19.088 17.1194C18.6878 16.9336 18.3591 17.1418 18.3591 17.5849V21.6151C18.3591 22.0582 18.6878 22.2664 19.088 22.0806L23.6715 19.941C24.0737 19.7531 24.0737 19.4469 23.6736 19.259ZM20.4008 0C9.57586 0 0.800781 8.77508 0.800781 19.6C0.800781 30.4249 9.57586 39.2 20.4008 39.2C31.2257 39.2 40.0008 30.4249 40.0008 19.6C40.0008 8.77508 31.2257 0 20.4008 0ZM20.4008 27.5625C10.368 27.5625 10.1924 26.658 10.1924 19.6C10.1924 12.542 10.368 11.6375 20.4008 11.6375C30.4335 11.6375 30.6091 12.542 30.6091 19.6C30.6091 26.658 30.4335 27.5625 20.4008 27.5625Z" fill="#413375"/>
</g>
<defs>
<clipPath id="clip0_904_512">
<rect width="40" height="40" fill="white"/>
</clipPath>
</defs>
</svg>
